<mxfile host="app.diagrams.net" agent="Mozilla/5.0 (Windows NT 10.0; Win64; x64) AppleWebKit/537.36 (KHTML, like Gecko) Chrome/129.0.0.0 Safari/537.36" version="24.7.17">
  <diagram name="Page-1" id="rVUosgsF6ES1caKkt0pE">
    <mxGraphModel dx="3000" dy="2783" grid="1" gridSize="10" guides="1" tooltips="1" connect="1" arrows="1" fold="1" page="1" pageScale="1" pageWidth="827" pageHeight="1169" math="0" shadow="0">
      <root>
        <mxCell id="0" />
        <mxCell id="1" parent="0" />
        <mxCell id="c7Pq1dkR-VcAxKLpXhSD-4" value="" style="rounded=0;whiteSpace=wrap;html=1;" vertex="1" parent="1">
          <mxGeometry x="170" y="260" width="520" height="200" as="geometry" />
        </mxCell>
        <mxCell id="c7Pq1dkR-VcAxKLpXhSD-2" value="" style="shape=image;verticalLabelPosition=bottom;labelBackgroundColor=default;verticalAlign=top;aspect=fixed;imageAspect=0;image=data:image/png,iVBORw0KGgoAAAANSUhEUgAAAMgAAADICAYAAACtWK6eAAAYaUlEQVR4nOzdCXhTZb4/8DfJycna0kLTprRA26SltNS2QAtqoRUYBFlHBUERlxFnUPSvjs4fnbnjvd5x8F5HxWXUkauD4ogbaFldrtKCIrRAkZa2tA0Uujdd6JL0JDlJ7tP6JE+6ZznnvCfJ7/M8HZvtnO88T7+85+QsrxABAEZF4A4QTB5NnBpqsxFqgrCnSqX261xfy0UIJcdPJft/r7x81Vw45LMUJThP04ILAru16fVLV3o4DR7EBLgDBAqtQiGaPkGeNisiNCVGJo2WSu1ztQqlUBsiV0ul6EY21klR6MeaXmNzTW+vjaIEpxr6TI1n2rorqroMpTUGg5WNdQYbKIiXssPDJQsmT9j4RFJcKilH6wgCxeDO5IqmUYPZiD59uar2wrGmzg+LOrpMuDP5IyiIG1IQQvGTVWmrp0WuTAyTZ8wMU6SJSZSMO5cnzBZUWdtDlZ5v7z23r7b1QG1ja2k57lB+AAoyiv5SLNTGJ9+mnfTbzCjlY7jzsKGk0fDKvkv6f3ynq70IZRkZFMTFKqVClh0TfuuSNM1qjVSQKxKhSNyZuGC1olYdZS/8plSXX1TfsXe/wUjhzsQXUBCE0M1qlXrP7Lh3hBGKlbiz8IGtzXDgztNXNn/V0tqCOwtuQVuQJRGTQudPDX/w4enTFgpJ6zLcefjIJlAcea3k4hfHm7o+/q5VH5RfLQdVQeZEqqS5KsXae6ZHb50aIsnGncef1HWbit6vanqjQG/47HSrPmg2wYKmIH+fnbLojuTIDwgCTcadxZ/RNGr8uFy/aWvJhe9wZ+FCQBdEq5QTm5KiH3soOfZBQixIxJ0nkNA0qn6rvP6dXVVNO3QGA407D1sCtiBvzU3duCFZtRt3jmDwcUXbxt8Vlf0Ldw42BFRBUhBCt8/Urn4kPeYFMSHwqwN5/s5qtVfuONe4bW9ZdX4gHVMJmIKsiIm87r35Ke+SEjQHd5ZgZjIJiu8/XvabQw36UtxZmCDCHcBXWqVC/GFW8ratmdN2isUoAXeeYEcQKGbNtMgNGplMWHHNeKrTYrHhzuQLvx1BEkNlgidSE/6wNl71GCFGatx5wHA0jZr317a/sr1E92K10WjHnccbflmQlVNUae/mzPyAJO0ZuLOA8ZnNgpL7j13YdLChtQx3Fk/51SaWWiohd2QnP/t0ZtwbsDnlP0QiFL16mmpdYqhMWdzac6KXtvrNtSp+M4JkTwyTHvxV2hlSKkrBnQV4r8eICm7935JlxZ1dfnE03i9GkJ3pmrv/cuP0/WJSqMGdBfhGIkZxGzTR9yqERFtBS8d53HnGw/sR5PiKvK1pk9DruHMA5p2/2PrwgpPlb+LOMRbejiDp4aGxHy9I354eKX4WdxbAjqgIxfKl6siIii5DaYOR6sadZyS8HEGyJ4aHHl6aXkSI0XTcWQD7aNpeuezI+ezijk7enVLPuxHk+Tkpa1+ZpzlIiFE87iyAG0KhIOJOjXpTiMVWd7Sti1dnqvBmBImSSMhP8tKey1Ar/z/uLACfkmbDCxsKzj/bbDKZcWdBfBlBUhBCuxbPfi9DrXgYdxaAV7SSzMmJmDilSNeYr8cdhg8jiCY0VLBvSeYn0xSCtbizAP5o7hN+dsv+E+suUXgPl2AtiCZEJjy1OusoIRIuwJkD8JOFsh+be/B03iWDAdt5XNhuXq1RKIi9izI+h3KA0YilggV7F6V/rlHKsd1DGssI0l+OE6uyjktINA/H+oF/MZvtP11/oHiBrtfI+aW9nI8gGrlcuHfxdZ9COYC7SFJw/ecL0z9JUCg4/wed0xX275CfWpVRAJtVwBtms/DYvC9O5HK5487ZCJKCENq3JPMTKAfwFknaFhxedcOnXK6Tk+MgURIJuWvx7PeSJ5J3crE+ELiUYnvqUnVk3FcNbYd7aSvrl/NyUpBDi2Y9nxENBwEBM9RKcUaOKly8q6aR9ZvXsV6Q5+ekrF2VEP4q2+sBwUWtJHNkfbaTBe1dOjbXw+pOevbEsJDDyzIq4XafgA00jepvOXJuRlHHtV621sHaTnp6eGjs4aUZxVAOwBaCQLGHlmYUz50UFsvWOlgryKvZydvgeg7ANrEYJb8wO+kPbC2flX2Q4yvyHk6PFP87G8sGYKjoEPHcZaRcv6tRX8z0shkvyM50zd03JUzYyfRyARiLWqVYLhEIdYXNnYzeCILRnfTsiWHSw8syavg2JTIIDjSN6m45/HNiUWcnY1NeM7YPEiWRkPk3p5+BcgBcCAJN+WrprCNREomYqWUyton16rzkP6erFLcztTwAvCEQ2eOjJFL7gTp9ARPLY2QEWRmrSvt1vOohJpYFgK9uS1BtWT5ZNZOJZfm8D5Iolwt+XJ19hiRRJhOBAGCC2YzOXn/o7Bxdd7dPVyP6PII8k6l5CsoB+IYk0ayn07UP+rocnwqiVSrEK+MmPe5rCADYsGZq6J+1SoVPl+v6VJCnUqc+SRAweQ3gJ4JAk59JT3jSl2V4/S3WilhV2h9nx/+PUIikvgQAgE1JE+SzKzoMh6u6ja3efN6rnfQUhNDRDXlFEhJlefN5ALhkMqNTUXsKvLoHglebWLfN1K6GcgQmyZp70IRdR5Fs89O4ozBGQqK5z6RqVnjzWa8K8lhGzAvefA4AXB5JmeLVvojHBXk7K/UukQjfJP2imXMRkZmDhOqpuCIAPySTo9zXZ6ct9vRzHhVEo1AQ61NUH3q6EibJHtiGFP/vP5F43k04YwA/dPfMSd9qlUqPvpjyqCD3Jqkf8zgVADyyKSnKo+N2HhVkS8oUn49MAoDTQzNiN3vyfrcL8kZm6iKCQIlepQJBTzR3MZI+sA2JF67BmoMgBEmvpc/Ic/f9bhVkjlQivSNF9b5PyUBQE8XPQJKcm5E4OR13FHRnatTuOVKJxJ33ulWQPE30WjFcCAUCBCFGsbkJ0W5N2ORWQe5Jit7qcyoAeGRjYvQmd943bkEWRapCpoRKshlJBQBPxIdJfrUqfppivPeNW5D50aHrGUvFY/KHnh04xYK8AwbLYDErRLxhvPeMW5BHM6fj/doBAJY8OiV83L/tMS8mWRoVGSW0G29hNBUICrK/Dj7hQhQ64Zf/pl8/7LW+V7YhpK/nNF8/YYRi+c1RkaqvW1pHnXF6zIJ8NGfaO6wkA4zo3yTsd+2ZzUjQWIM7ziDk5JG/9BRKJMNe61OEIoRpUvRtGdOe//rr1lEPgI+6ibVKqZAKIxSrWEsGAA9kqhWbtUrFqMdERi1Idkz4raylAoBH7o0Jv22010YtyJI0Deycg6CwRB066t/6iAVJQQhppIJcVlMBwBOaKZGjTiw7YkEWauOTRCIUyWoqAHhCJEJRWzXxCSO9NmJBbktQ/Zb1VADwyO3ayC0jPT/sa97+zavMaPkTnKQCbhNdNw8RCSNP2CVdvBqh7jbnY7ryHLJW/sxhOv+XoZY9iRB6aujzwwoSx9BNf5kif+jZQY+Fil9OnxFn5SHR5Djn83SbHpk/fZPzfFwh0q9H0kUjf+suXTj4hh3Ul7ugIF5YHq1KPdSkv+D63LCCrJ6q4tXOuTh75GtbRDFxAz8O9qtXEArgggD2rZimnj+0IMP2QTJVobwqCABcmS2xLhz63LCCxCmlaZwlAoBH4iZHpg59blBBssLDSZJE2O55BQBOJIlSssLCBu12DCpI7uQJGzlPBQCP5MaE3e36eFBBHpueMGyIASCYbEmMn+H6eFBBpDLbHZwnCnCixeuQ7PndiFwPVyr6gwkK+6AraJ0F0SrlIpjCmXmiyGhExsQiYuIk3FGAGwgCTdEqlc5eOH9JClHw6gAhALgkhcicXXAW5Iao8BRsiQDgkRtCJM4uOAsSIRFHY0sEAI9MCp8Q5fjdWRCp1O7VFFUABBqZ1H6j43dnQTRyuc9zpgMQCLRKpXPuTudRQ21ISBRCdmyhAoXjTiNDibPz0IQhJ152/dvvEKq7yFGykY2Wl7xxycCPq657g2PSIq1C7rxY0DlqyGT2HGyJAOARqQw5L8GFzSoAxjBQkIcSNUrcQcDYbEYjoq91On+s3d3O16w93YNes1EU1qyB4LGZKTLk2AcR2Wxq3IHA2Cx7/zHw48qx/9Cz/fe8u7Oiv7P29fV34vLACCIi7HCSIgAuRIR94Gj6QEGkUpSBOxAAfCKVolkIdtIBGNuYd3cPWGEqRG7+86CnhHG/3ABCnJ2L0NTBt9cxv/gIp/EAfwRtQWSpI5+8TEyKGPhxZeYoFuAf2MQCYAwDBfl9WlpwjiQAjGJNbNRANwb+xy6w4s4DAK/YCenAiYkDBXn5fDmNOxAAfJJfe2WgILBpBVgx9Mxfcv0jSLb0VmQpKkDGN/8DWy5PwU46AGOAggAwBigIAGMYKAhFCc7hDgIAn1AUOoscBaGt6ALuQADwCW1FpchRECtNN+EOBACfiGWyFuT4mvet2jrD9lwN7kzcaa1HxkOfDnpKMvsGJFLHIsulKmSpgC3OYPdKaUUfCtrjIMZuZPnsrUFPiVWRAwWhL5YOew0EL+e3WBSFjuONAgA/UBQqdPzuLEhVj6EFWyIAeKTaSOkdvzsLcslggLvGAYAQ0nV3O7vgLEgfJfgJWyIAeISiBD86fncWpN1kbsaWCAAeabvW5dzdcH6LdaLlWvlWmGAKsMT87V5kOV2I7L3XcEcZ14kek/PAubMgF7uNZdgSgcDX3ojs7Y24U7jlYk+vsyDOTSydwWC10KgeWyoAeMBCozpdT5/N8XjQ2bx9tPgTLKkA4AkhLd7j+njQkfTXyqrL/zQnjvNQgcTw+rODHovnL0dkRjaiq8uQ6avPBr+5rYHbcGBc28uqK10fDypIYVPnh39Cce9yniqA0GeODXosnJ458F97Z9uw1wD/FDZ27XZ9PGgTq7ijy2w2owrOUwHAAxYzulDc2TnoBibDriistdjh2ywQlC43tpYPfW5YQc5e1RdwlggAHjlttH8/9LlhBTlQp4cNZRCUDja0DfvbH1aQQ0162MQCQelwo378Tax+55v7XuYkEQA8UdJq+ttIz49YkE9qWt5mPREAPPJ5ddObIz0/YkGO6mqrrVYEF1AxwHa1euB2m3QN3DiGr6xW1Pz3mtrLI7024jXp/RtiurrWY0lxkWtZTxfg6B8OD/wA/tLVtY56ufmoN234prn7Sz4UpP9fX1fErBwkIAhkbahFtoZa5/PWNr1P6+nL342ooweRrR0GzmCzs6H7/dFeG7UgRfUdexFC/2ItlZuG3glcueMLJAoLQ5biAmT6ctT/Xx6zN1xCdjg1Kigdber8drTXRr03736D0VTWZtjPWioAeOBck+GdGoNh1Gkox7x59V/O1G5mJRUAPPFfpbV/HOv1MQvyVbO+1SaQwx4mCEi2NsOhI036trHeM+70B6+WVH3JaCoAeOK1+o4vxnvPuAUp0ffuYSwRADxyttv68XjvGbcg+xube6/2UEWMpQKAB2o7qW/2X641jPc+t2aY+uBi8+uMpAKAJz7UNX/gzvvcKkiBrukzmka8OEpAd3Qgur0N2YxG3FGAn6JpVF+ga/rcnfe6Nf3Bacpk+qi6/e5NMyYNu6CEa9Rzv8EdIaAMnSdFnJiCxEkzEV1fi8w/B+aW9e7Klo39f9PuvNft+UEeLSo9uiExr0pMoCSf0gFeGToXinDNPQMFsV2pCsh5Uiy04OLjZyoK3X2/R7PcvlVRt9OrVADwxNvlVz36G/aoIO9XNe3wOBEAPLKrqtmjv2GPCqLrNdJ7Lrbc5XEqAHjgw7LWxTqDwerJZzwqSL8tJys+oiiB29twwL/QlecQ9eUuZDkTWDPymSnh0a1nyr/z9HMeF6TfGxUNcM16gLJW/jxwGQF99gfcURi1o+zKS958TuDNh1IQQgUbbjpFkvZsbz4PAJfMFnQy8qOC6735rFcjSDlC6L5jFx6wWlGnN58HgCtWK+q471iZ15dtiLz9YHWPoTVeLhemRSgWebsMANiWf7X7uRdLdfu8/bxXm1gOWoVCfHJ11hVCjKJ9WQ4AbLDQqGFeflGcrtdIe7sMrzaxHGoMBsuBK+1wbATwUn5Z3XO+lAP5OoL00yqVghMr55wmSTTL12UBwBSzGZ3Oyi/KuuLjSa0+jSD9anp77fcdL7vHakVjXroIAFesVqR/4HjFfb6WA/myk+6qutvYmqiQK1MnKXKZWB4AvviituWlF8tqP2ViWT5vYjmopRJx+a9zvhaS1puYWiYAnrIJ5N+n7PluabPJZGFieT5vYjk0UybLsq/OLqNhKmmACU2jqzfn/7SMqXIgpjaxHBooyioXEvp56tBbmVwuAO7Y8XPdw3uuNJ5jcpmMFqRfQUvH+WWkXK9WKZYzvWwARlNW1bLlnjNV/2R6uYxtYrnKLS5/s6TJCDd6AJwoaTK+mvNTBStz2jA+gjhUXjOUro9X3yISoQi21gEAbUGV95yourPRYBz1/rq+YOxbrJFkTwxTHlqWUSEmUCyb6wHByUKjulsO/zyjuLNz3PtbeYu1EaRfQx9lVpps5fOmhG9kcz0gOL16ombdnsbWSjbXwWpB+hW0d+mWRqukaiWZw/a6QPAoaendfn9x5Ttsr4f1gvQ7Ut9+LCdiYmy0kszkYn0gsJ1rNr67oeD8k71Wq43tdbG6DzJU5dLZn6qjQrBP6wb8V3MH9VnygZPruFofK1/zjuaWggvrzGbhMS7XCQKHySouvLWwnLNyIK4LcomiUM6BorzL1yivr/ACwan2GrUvZ9+PN5V3d3O6Xk43sRy0CoXoxOqs46QYeXUhPQguJrPgxI0HTi2o6TV6dE8rJnA6gjjUGAzWG/KL58NIAsZT20ntw1UOhGsEcUhSKgU/rMwuIEnbApw5AD/1GejCBYfP3lRtNNpxZcAygjhU9fbas/JP5jZ3UJ/hzAH4p/9vYtE35/NwlgPhHkFcFSzJei8jWnEf7hwAv3PNxnfzvi56AHcOxNWBQnccqW8/PD9iklitFMMR9yB2rqV3+3qODgK6gzcFMVittl26hu9kffaTc9TheUIRCsWdCXCHplHdjhM16+4rrnyHL+VAfNrEcpU9MVx5aGlGsVhsT8adBbDParVXLj10fg6bZ+V6izcjiKuGPsp8rOlaflpoiFitJOfizgPYc67J+OqmH6vvOt3e3os7y0h4OYK4KshO3ZIxQ/Um7hyAeWVVLVvYuhKQKbwcQVztatCflgiEuqyICVlCIZqAOw/wHU2jqzt+rn+YjWvImcb7EcQhOzxc8tXSWUfgvlv+zSZQfH9z/ollxZ2drFwiyzTejyAODRRl3VXd+FGUVGpPnqBIEQqRAncm4D6rFem/vNz20q3fnH6wqreXsftWsc1vRhBXyyerZv4zN/V9uGG2fzCZ0JnNP1Tcu7++pQx3Fk/5zQjiqrrH2LrvasfOSRJFU1KIZJZQiEJwZwLD0TRq3He+/sl7fyz/7cmOrlbcebzhlyOIK61SQTyTnvDk6vhJT4lEaCLuPOCXac/213e/+Jfii3/TGQw+zc+Bm98XxGFFTGTau/NTd0okdjhugpHZjE7df6z8gYMNrX63OTWSgCmIwzOpmhVbU6f+Xi6z5+HOEkzMJmHBjtIrL/31gu4g7ixMCriCOLw+J3Xx3amqb3HnCAb/Km9Z/HBxhceT9PuDgC0IGtg/kYs2JUU//tCMKZsJAiXhzhNILBZ08e2K+p27qpp26AwGLFf7cSGgC+LqtYyUvDtTIncTYrgNqi9oGtXvrmzZ+PiZikLcWbgQNAXpN0cqkeRpotfepZ28KT6M/BXuPP6kttP07YeXmt4vqGn6/DRlMuHOw5WgKoirVfFxylmhxPpHY8PXCCNgLpOR2NqMh15raP/ibJf14/2Xa3l3KjoXgrYgrm5Wq1Tb0uOfz1TLN+POwgclTcad/116+ZkjTfqgn7kYCuJCq1RI7o0Jv22JOnSNZkrkApEIReHOxAWrFTXr6lqP72zofv9oU+e3NQaDX5xIyAUoyBi2ahISbteqtmSoZU/izsKGklbT3/ZWNb35hq72Mu4sfAUFcdPyyZGpK6dFzZ9FWhfGTY5MJUmUgjuTJyxmdOFyY2v5GaP9+wMNbccON+rLcWfyB1AQL2WFhRG5MWF3P52aOMMutqwnCDQFdyZXFhrVCS3ij7dfqK4obOzaXdzZ6dfnROECBWGIVqkUTg+Vzbw+RJoSERYaJZXab9SEhgoS5VKVVIpy2VgnRaHCaiOl13V32ylK8GPbte6Wn3pM5ZU9PWW6nj7e3BnEn0FBOPRE2gyZ2UhFEQRKk0rtw65lWRMbNXCnyy/rW4b9cVOU4CxNo1JSLm15ubSij6vMAAAwqv8LAAD//6Kekra+CM7tAAAAAElFTkSuQmCC;" vertex="1" parent="1">
          <mxGeometry x="220" y="273.84000000000003" width="110" height="110" as="geometry" />
        </mxCell>
        <mxCell id="c7Pq1dkR-VcAxKLpXhSD-3" value="" style="shape=image;verticalLabelPosition=bottom;labelBackgroundColor=#FFFFFF;verticalAlign=top;aspect=fixed;imageAspect=0;image=data:image/png,iVBORw0KGgoAAAANSUhEUgAABdwAAAKFCAQAAAB8GuNeAAAABGdBTUEAALGPC/xhBQAAACBjSFJNAAB6JgAAgIQAAPoAAACA6AAAdTAAAOpgAAA6mAAAF3CculE8AAAAB3RJTUUH4AkXEToKwtZCVQAAAAJiS0dEAP+Hj8y/AABcx0lEQVR42uzdZYAW1eLH8e/u0g0CEgaloiKCIgbYFwM7rvi/dgGi2B3Xxm5RROzrtTuxFa8tNmILSglICCy17P/FigJuzJln5tldnu/nvOIFO/M855kzvzlzAiRJkiRJkiRJkiRJkiRJkiRJkiRJkiRJkiRJkiRJkiRJkiRJkiRJkiRJkiRJkiRJkiRJkiRJkiRJkiRJkiRJkiRJkiRJkiRJkiRJkiRJkiRJkiRJkiRJkiRJkiRJkiRJkiRJkiRJkiRJkiRJkiRJkiRJkiRJkiRJkiRJkiRJkiRJkiRJkiRJkiRJkiRJkiRJkiRJkiRJkiRJkiRJkiRJkiRJkiRJkiRJkiRJkiRJkiRJkiRJkiRJkiRJkiRJkiRJkiRJkiRJkiRJkiRJkiRJkiRJkiRJkiRJkiRJkiRJkiRJkiRJkiRJkiRJkiRJkiRJkiRJkiRJkiRJkiRJkiRJkiRJkiRJkiRJkiRJkiRJkiRJkiRJkiRJkiRJkiRJkiRJkiRJkiRJkiRJkiRJkiRJkiRJkiRJkiRJkiRJkiRJkiRJkiRJkiRJkiRJkiRJkiRJkiRJkiRJkiRJkiRJkiRJkiRJkiRJkiRJkiRJkiRJkiRJkiRJkiRJkiRJkiRJkiRJkiRJkiRJkiRJkiRJkiRJkiRJkiRJkiRJkiRJkiRJkiRJkiRJkiRJkiRJkiRJkiRJkiRJkiRJkiRJkiRJkiRJkiRJkiRJkiRJkiRJkiRJkiRJkiRJkiRJkiRJkiRJkiRJkiRJkiRJkiRJkiRJkiRJkiRJkiRJkiRJkiRJkiRJkiRJkiRJkiRJkiRJkiRJkiRJkiRJkiRJkiRJkiRJkiRJkiRJkiRJOaIGDViFtenDQC7nBq7ncV7iJUZyD9dzHWeyP5uyKk2o45clSZIkZV8j1qcvZ/ME3zCdWRSymCKKKP6zFFHEQuYwgwn8j5s4iB60osCvTpIkScqGfLpxAvfyBYXLxPSKyxJ+5lmGsBNN/RIlSZKk9BTQkv35L18FRvZly2Im8DqnsgG1/UIlSZKkpNWkM8fxDnNYEju0/1UW8DM30JN6frGSJElSctbhLD5mcQKRfdkyjhvZiRp+vZIkSVLmmnEE77Mo4dC+tEzgOtYi369ZkiRJiq8O2/I481IK7UtXnxnNIbTwy5YkSZLiacU5TEg1tC8t87iPbn7hkiRJUqgCuvMUc7MS20tWm/mQPajlFy9JkiRFV4d/MTZroX1pmc5ZNPfLlyRJkqJpyHlMynpsL6aYudxJeytAkiRJqlgjLsniEJkVyyIeZQ0rQZIkSSpfW27LYF/UJMoSXmZjK0KSJEkqWxvuTm3F9pAyinWtDEmSJKl0DbmySsT2Yop5nNWtEEmSJOnvGjGEOVUkthezhAdobaVIkiRJy6vJafxeZWJ7yaZMl9HQipEkSZKWtTO/VKnYXkwxMzmCfKtGkiRJWmp93q5ysb2YYn5kCytHkiRJKtGcO1lcJYN7MSNpZwVJkiRJkM9RGU5KXcgsvmUk13MygzmQPTiawVzIPbzNJOZQlMHfXsyF1LSSJEmSpA34KoO1XybyMueyLa1oRG3yyQMgjzxqUo/GdKIft/FJBnuxjmMrK0mSJEm5rg43x+wRX8J3XMXONK/wGAV0oj9PMSNmdL+fJlaUJEmSctseTI4VpqdzJT2oHfk4eazKnrzK/BjHms2BVpQkSZJyWXMeiRGkC3menagTfLQ8mnMaX8c44tvuoypJkqRctmeM4Su/MYTVYh8xn948G7yGze8caWVJkiQpVzXi8eDY/gtHxuhrX147hgUPmXmG1laYJEmSctNuzAqMz5+yayKLMzblvMBjz6OfFSZJkqRcVIf/Bsb2sfRJ7OgNOI8FQUd/kgZWmiRJknJPd8YGBeeJ/Iv8BI/flGFBY91/pZuVJkmSpNxzQlCP9xyOpyDhM1iTZ4P2Z/23lSZJkqRc0zJoYmoRt6WyCVLvoMUh34iw2ZMkSZK0UunFtIDIPIa1UzmLfI6nMPJZTGBnK06SJEm5JI9jglZ06Z/o6PZlNeO5yOexhFOtOkmSJOWSetwTENyfplWK5xKyCdSdriwjSZKkXNKcMZHD8mwOS/lcHo18Lh+kNGRHkiRJqpK2ZmbksPwWbVM+m6OYG3nQzo5WniRJknLHycyPvAjjuamfTSc+ifwYcTR5Vp8kSZJyxXUURQzK0+iR+tkUcFPk87mG2lafJEmSckM+L0Tu4X6Rxlk4o/2YE/F8nnB6qiRJknJFc96OHNwvpGYWzqgTkyKezyc0swIlSZKUGzaOvF/pEnbPyhk1ifwoMZnWVqAkSZJywzb8FDEmT2eLrJxR9HXlZ9DbCpQkSZLBffnyMZ2zckY1uTDiGc1kaytQkiRJuWFvpkaMya+xZlbOKJ/BkYP7VlagJEmScsOh/B4xJr/KGlk6p/6R93HtawVKkiTJ4L58eZhVsnROfSOeUSEDrUBJkiQZ3Jcvd2Zt1fTtI27BNJtdrEBJkiQZ3CsruPdkYsR1bja2AiVJkmRwr6zg3p5Rkc7obZpYgZIkSTK4V1ZwL+CqSBtCnUkNK1CSJEkG98oK7rAp30ZYV359q0+SJEkG98oM7jU4j4UVrOE+kHyrT5IkSQb3ygzu0Jxh5UT3Qq6ioZUnSZIkg3tlB3dow83MLfVMpnIxja06SZIkGdyrQnCHJhzDByxa7iyKeJ39qW/FSZIkyeBeVYI75LMO/XmUn/iVKXzD/RxOeytNkiRJBveqFdxLwnsDmtOSlqxCfSekSpIkyeBeNYO7JEmSJIO7JEmSZHCXJEmSZHCXJEmSDO4Gd0mSJMngLkmSJMngLkmSJBncJUmSJBncJUmSJBncJUmSJIO7JEmSJIO7JEmSZHA3uEuSJEkGd0mSJEkGd0mSJMngbnCXJEmSDO6SJEmSDO6SJEmSwV2SJEmSwV2SJEmSwV2SJEkyuEuSJEkyuEuSJEkGd4O7JEmSZHCXJEmSZHCXJEmSDO6SJEmSDO6SJEmSDO6SJEmSwV2SJEmSwV2SJEkyuBvcJUmSJIO7JEmSJIO7JEmSZHA3uEuSJEkGd0mSJEkGd0mSJMngLkmSJMngLkmSJMngLkmSJBncJUmSJBncJUmSJIO7wV2SJEkyuEuSJEkyuEuSJEkGd0mSJEkGd0mSJEkGd0mSJMngLkmSJMngLkmSJBncDe6SJEmSwV2SJEmSwV2SJEkyuBvcJUmSJIO7JEmSJIO7JEmSZHCXJEmSZHCXJElS8vKpS1NasSYd6UQnOtKBDqxJa1rSmDrk+xUZ3CVJknI3KLegJS1oRr1KC8Y1aEZHtuBobmMUYxnPZH5lCpOZyATG8RUf8Tw3M5BerEc7mlOHPKvP4C5J1VEtmtGathWUNqxKi1JKM5ot9+/mNKVJKaUhDWhAA+pT234vqdqry8YMYigP8DhP8BgPMpzBbEL9LJ9HPbbmEh7iHcYxhyXlxL4i5jCBz3mdRxnKALpQ12osRx61aUCj1B/IDO6SFEk+q3Eot/IkL/Ear1dQXuMVXiqlvMDzvLjMv1/keZ77W3mWp3nyj/I4D3Evt3Ilp7A3nalvkJeqVcvRhX/zDGP5fYWgPIeveZ5zWScr/dn5rMXpPMMPFEUMfsuW2XzOC1zN5tSwSlfQiO04j7t5gmd5lqd5hOEcTceUWmqDuyRF0IIDGfm3G2/2yhIWs4AZfMBwjmcvNqG5L6+lKq8lRzGaheVc24t4i4NoloUW7E0WZNgOFTGGw7P+lqAqq8vW3MEvLFqhvZ7LOwyincFdkipDN/6b8S0vybKYcfyXI9nC+C5VYW25hcIIV/QCbmbNFM+ja4It2HQO8a3fH+ozmF/KaadfZrvEvyuDuyRVYFPerLSe9vL64H/nB57jMNpQy0qSqpzmPBIpthdTzELupHUqZ5FHL0Yl2oKNobOVC9TjHKZV8F19xc4Jd64Y3CWpXF15q8qF9mXLXL7gIta3D0yqUhpx1QoDKCqK7hem8Aiex858mnCbs4AzHelOPoOYEeHb+pANDO6SlC0N+E+sqVzZLfN5n3+zrtUlVRn9KuyNXbH8wD8SP4ud+SKFFuct1sn5+t2YMREfyG6iicFdkrJjR2ZW+di+9PbwAYNZxSqTypVPTWpRi4JUj7IqT8S4iu9IuCd7Gz5LpbUZz/Y5/itqxE0sjvht/cwWBndJyoZWPF5NYvvSYTP/YVPqWHHS3+TRgp7swWDO4zIu43T2YSMapXS0vsyOcQV/RPsEz6E7H6TU0vzCDjn+a+rGdwHzkc5LcBCUwV2SyrQLE6tVcC953X58oi9mpZVBbbbnPiawkCV/loX8xE10TWFlpnyOi3X1/shWiZ1DI4am1sr8wo45/nvalbkB39ebtDG4S1L6jq9Si0BGLbMYkcr6wVJ11YorGF/qyioL+ZRDE59qWYNzKr0ne0+mpNbG/JzjPe4FnBQ092k8XQzukpS2mlxRDWN7yZYuz7GZK7xLALTlLuaXc72MY6+Er5YanBVz7HhS01Pr82CKLcyrdMjpX1QNzg4K7rPY2eAuSWmrz83VNLgXU8xodjO6S7TgpgqXZRyV6NjykmAX56qdkNgQlF1THOa3gLNSntpb9YP7WUHBfQ79DO6SlH5wH1qNg3sxX7Ct0V05Lo9jmVPhtTKPwYlG0XxOijkEpU8ix6/HLSm2LBPYKMd/VeHBfT+DuySlH9xvqtbBvZjP6W01Kqetw9uRrpVRtEj0uPswL9bD9vqJHH19PkqtVZnB2dQ2uAcG9/8zuEuSwb3i8hJrWZHKWXkcFHEnhk9YPdEjd2JUjOv1uUSiVgHHBq15smIpYhELWVRqNJ3OWTTM+d9VeHD/l8FdkgzuFZfF3OJtVjmrTuRreBLdE35kOC44PM/jxESO3ZhXYm7iNomnOYt/sSt92Y1+DOYKHuFTJjGZb3iNK+hje2JwlySDe3plNoMc6a6cvYajrq0yky0TPnY7ngu8Vv9D80SO3IXJwe3EEkZzDlvRcrmlMfOoTUvWZVO2pCdruLmbwV2SVrbgPo+xfMgHkctovuAbxjOr1FWmkyjv0tXKVE5qyLORg/tWiR99cz4LCM6vJXadHhLc17+YF+nmz8XgLkm5FtyLeIBNWDugdGZ9NmF3+nMet/AUH/I9k5jJwgRXdR9GPatTOahJxKmp6QT3PHbko0gBbyEvs0lCR23E7UGhsphi3vPh3uAuSbkY3AsZGPMWn09N6tCQprSgA9txHq/wI4WJRPdpOb7PoXI3uL9XicEd8lmHm/il3LdpRYxnCKsmNqAtfEWZSeztT8XgLkm5GNzn0T+ho9ekDb04gTcT6Xt/gtZWqAzuWQ7uAA3YgduYVOaurdexHXUTPF4ffg5sHa5N9PgGd4O7JFWb4F7IoETPoYAOHMRjzMowuE9P8MYhVRct+KTSgztAY3pxGBcwgicZyUhe5Fnu41IOpSf1Ez7W/swIahtm0dcfisFdkgzuyWlOf96ucNv28stT9rkr56zN91UiuAPkUZO6NKARjWhMQ+pTK5X1ngYGDrB7k/b+UAzukmRwT1Z7bmF6BsF9puPclXM2Z2KVCe7Zkce/A6emXuMijwZ3STK4J68RZ0XcBbL0ctZyKzRLK78tci64N2B4UKswN7FZOQZ3g7skGdyXU48zmRc7uD/NKlaqckpvpuRYcO/MO0Gtwm/082dicJckg3s6mnELi2MG9/FsbaUqh+TTP/JWRCtLcO/Nt0GtwhR294dicJckg3taOvFGzOC+gDOtVOWQulwf+TF3ZQnuW/NdUKvwA739oRjcJcngnp5tA2/Nf5X/OspdOaQhd5S79ZHBvZjPWdcfisFdkgzu6SngypjDZZ6intWqnNGAu3MuuG/Dj0Ftwqd09odicJckg3uaNuSbWMH9BRpbrcoZjXgkYLnUlSO492FyYHBfxx+KwV2SDO5pqsttsYL7x/auKYeszrs5F9wPZkFQm/AOHf2hGNwlyeCepjwOD7w9l5Rv2dxqVc5Yh09zLLjncWxQi1DEXS4Sa3CXJIN72rrzWYzg/jWbWa3KGWvxicG93DKfU8j3h2JwlySDe7oackeM4D7W4K4c0jng8TY3g3shg/2ZGNwlyeCetnrcYnCXytUzYBK3wV0Gd0kyuKfmnKAbh8FduWfLgKURDe4yuEuSwT01x8aYnmpwVy7pzQ8Gd4O7wV2SDO6VH9wHxQjuTk5VLtnS4G5wN7hLksG9ugb3MWxstSpn7MSEgOC+tcFdBndJMrinI85QmbdZrQp9v/nUoA51/yh1qEPNar80XR751KD2n5+qLnWoTU0KvJwqwUHMinxtzKDXShHcjza4G9yrWHDPowa1qEu9P1rEutShFjVciHQllUcBtf64t9ehtnc/GdyXOjPG5NSnqFsFLuo6rMbm/ItTuJQbGPpnuZ4rOJsj6EMn6pNXjX4p+TRgDTZhT47mDC7h+mU+1VBu4HLOpT+7sAHNqeGFlTXHMi/ytTGdrivFZz6QJUHruJ9Qra40g3t1Cu61aU0P9uJYLuR6hjGcYX+2itdwISexLz1oWwXuSkpCTVqxEbszmPO5ipv+qOlrOZeD2ZSWBnjlenCvzXUxloMcUWk36Tzq05WDGMLdPMEovmYqhaVEjIXMZBzv8Qz3cj0nsgurU7NK9inUph07MIhLuIV7eYq3GMNEZrOg1OC0iFn8wqe8zEPcxmUcSx/aVMonq8e67MGRnMBxHMAmNK2Efq88arEGO3AEJ3I8h7INq8Zu1OuxGQM4heOWK4MZwEm8ERBiF3AnAxm8wt9ZWk7gVAbQg9oZfep6rMdeDOBEBrEvXakX8y/VYn3+xQmctMJZHsuRvBTUIixhNKdzZKmf+URO5ST2pG3sVqOAlvTmAAZxIgPZlQ4ZfX/xH6sb0Z1/ciwncgz70IX6BvfUFLAKWzKAy7mLx3mTMUxiTqnfVRHzmMIYRvE4t3Epx7A9rSq5YyOP+nRhT47iBAazPxvTuFLumXVoz44cxYkcz8FsSfOEQ28ejdiI/TmakxjEXqybwcNTbTqxD2dzK4/yBl8ykTksXuHu9xtf8xoPcSOD2KSadcvJ4J6Y5jwSfG4LOK1Sbptt2IojGc4Y5q5wQVe0Hft8pvEaF/JPetC0SvwmCmjFxvRlADfwJpMoZFFQD2dJWUwhk3iJyziQrVkzS9G5Bp3px018xmzmMZ/5zOE77mcQm2W1z2s19uQKXmfyH2cxj194htPZJriO67AZ1/MDhSxg/gqlkPmB76SKKPzbX/mrLKCQsVxAl1iPWzXozEEM5xN+o5D5FDKbzxnKfqwTWPv59OAiPmdOKedYyLwYv8YFf9RDaZ95Ab8xkoNpHfyJm7AVJ/Ekk5j7xyf+jf9xBfuyZlYD0MYM4j6+ZNYf39BMPuVWDmTdjB6bDe6l1Xh39uA0HmYchUEt/dI28Vee5Wz2oSfNKyHaFbAeBzCML/n9z/ZxLPcygI2z2D7msTr7cg1v8esfZzGXcTzJyWxFw4SuiW4cxX2MZfYfV+ZMRnMDe9MhsC2qS1f24wreYQYLI7U8Syjke4bzf2zgexblXnDfiC+Cz20822S9d3dDBvAMM2K8HVg+Uo3jLg6hC3Uq7ddQk9XZnpN4kp9YlOHnWbbM4lWOY8PUm7GGHMnoMm6nP3MGq2QpSPXhaeaXMVjlZjYMuHU04Dh+SrAmovVQf8aBwZGvBcfwUalBbwnvs2fArzqfvRiT5c9czHweYMOAKJXHBtzMb2UEtJFsk6V+1dU4le9LDRSL+YgjaGJwT+iqXpcDuZ3vE2kZi5jAfzmYDRJ4MxLdKgziszLax584OYPfStg3uRvPlzF77VeuYb2Mj9CWs/m21L+/kFHsGrktakRvLuarmDW+mK8YQq+EHkWkahHc8zmahcHn9jjNsthv0IBe3MVXzE4sMs3iC4axOQ2yPrijHl25jPcZHzBmujjotv4VI9iYeqn1MzXjqjKC1NIzuJ+1s3BFncz4cgLPIj6ib8TarcEpTM96hC15zNk3qJ5aM6Lcq2AyF0S+Mv8ZsKVUkmURbwZMbN+Kd8q5oRfxA/2z0N+2AU8xt5zP9BvDYrxJMLgv/z004x/czuf8FmPOVXmt/UzG8B/+QZOsPOS15uZyv9UZ3BP7txJdY87hl3KvwlFsl9E9oj0PlnMPW8IkhtCiwnt7fbbhIX6IkUGWf1D4gfvp5cAZ5Upwr8uIGBfKCVkLvA3py5NMT7QpX/qk/iuPsVcW+2Lqsy33MSnRXvbS48wU/sMmqTRijbmSwgq/2edZK9VvsjZnRniM+5E+kf7aDoyrlAhbsjpTl4De9rsr/O3M4SYaRfhbHXmz0j7zQoZEDNub83GFf20aJ6Y8w2N9XovQmtxZYUwxuJelgA6cyofMSKGdX9om/sYbHM+aKUe75gyrMIQu5gHap3xXvyBCx9CX9I59hFY8VOGAlnmMKLctymcrHmJqYg9oU/kvGxvdlQvBfYMYr8vHs0VWvrUC+nAXP6caIiZxG9tlYWpnHhtxA9/FGDcctxn7lNMTHwOcT/9IyyIWcW2qry53Lbc36a8ykk4R3oEMq7QIW8xCzoj4mWtxZqS3NL9zVIU9i/kMZE4lfurvIrUgbXk20l/7IeIDWtx3ZLdHGmU9kxNj9ega3FtxPK9V2B2QRPmdkZxAuxRb+dPKGLy34oCxS1PsMMpj74i7TjzNqrGOUIfzI9XXHAaUeW/twLl8nfhd70MGZmmopgzulRbcC7g8uP93CTdmYbxjHm05ke+zEnF/4GLWSPXTNGJ/PsxaaP/r9jCSHRN9PdyFDyIeeyr7pfZtNuU/ka+h4yv8a+vwfiVG2GIepXmkT70Jn0X8i59WuDlaQ56o1M88m4Mr/Lw1OTHy4LinaZvar20bpkU8i89jRcLcDu712ZUnyh2GlHyr+Ap7pTS8Kvp8scnsnNovtgnPRDyLuRwW6wi9GBvxCF/Qs9RrexdejrF7TLSHszsD3mJK1TC4bxr5Aly2v3371M+rFn0YmdKFXXq/53P0TGmBuTw6c1PGk2rjlgkMTHA+wkUBj3kPpTb9d28mRz6LVyt8Kb17xN77tMq7Ed4KQB1uivzgt5izKnhh3DrGhPQkSyEDIzxQfRhws941tYfEuyN/7/NjDSHM5eDegSuZmvUOjWJ+4zLWTXzEewGXBpzDsNTaxwMCZoO9FGMjxbrcFrnOirjgb8tPNmEgE1Os3cW8zdZuyaWVNbi34sHgMYVF3Jb6/O36DKqEMPU1A1K5OfXif5Xcu3kdrRL5JPUi9+SUjKDsnsqvoy7DA271s+lXQWw6KXJ4Sae8RYcIn3pVPg/4m89X0AO9Gl9VcnA/usJP/I+AvWqLuTKlGNSrjHUzSi8vx5h2mLvBfTNeSm1Me8XlY/ZOOLq34umA449OaQp/HR4MOIup7BN8hJZBbdGbK7RvTbkksWUmyi5j2M0NCrUyBvc6nBnjFeWkCl/DZ2o1ri131ZL0yjRuT/yV+5a8V6kRqWSS0OOJfK61+TTolWU6v98mvB306YdQq9zYdHpWX9T/vYyKNFGtZ9C6Nz+zZQW33vcrObhX1OOez3FBoe69lEYuHxwUMr5jc4N7JI04ka8rMbaXXCWnJ/qp1g96jzWTQ1P5xbYNvLbPjXEfCOkvn8FOy/zfFtyahdheTDHfsqsTVbWyBfcCjowxfGMh16a8/nl3HsniEJm/v2R7kvUT/DQ9Io8JT3sJvhEJRPduQROZF3NBKn0ezYP6e4q5voIhULulPP05mR73PYLeCyzkoArendxTqZ95eoUzIELj7I9smEp7dHSkyYZLyzi2NbhHsDq3Vurk6L/ex11Dm8Q+1YZ8E3DsBZySyi82rHulmEuC420XpgTNIev/5/9sxx0ZLvwYUr5hRwfMaGUK7jXYlx9iXAqvRxqPG1dN+vJeJYx4XD5uvlzqdJo41uC5KhHbS35Nl2Z8690wqEdpMZekslpPy8Dx2ddVENzX5p1KrZknaBnhU/cLDDonl3vLymP/yFMu0ygfsUGFLdQZQTtm/pzSm0CDe/LBfT0eCfpW023vH6RrQp+ra9AAtAWcmsovtnPkSexLg3uobQO7/E78oy1aLcJytkkPh9rG8KmVJbjX4VC+i3EZ/Mr/pfgd1WD/oB6L9MrbiUT3elyYxd6FKBOyDs2w/6FqBPfQHvcbK3hH1IDbK7FWijg3Uo/XfoEj8c+u4G3HqjxWiUO3Blf4y6gqwX1gUMSMM3E/14L7BrxUyZ0zK/YIv8AGiQyqqBrBPbTH/dLgz35g4ODC48kHmjGiEh7XRtHN+KnqH9zzaMO/Y61xMp/Lyh0tnJm6HBT0Ai7d8h6bZvyJ9mZSFbo9FVPMZxn2LVWV4P5ZosG9cgfLfBgxcP4zcGToORUOU+odsGpLkmUOd0fY9L26Bvd/GNzL1aOSp+qXHt3fZ5sEonv1DO6XBX/ygwOD+zFAY66rlCGwS1JdKlYG96wE93rszfORtnEpbTWZVql9PzU5PNUFosLLGxW+zC9fI+6qgjeoERnNUFhZg3ttzsrK9i+ljfXuF/G2mXxwh968nPXpgTO4NNLQIIP7yhjcu0XYg7ayHqA3s8c9ooMCg/sRNODsoDWikiwLuSylhZ5lcM9CcG/CvjwWsxd4If9NcYuimhyRQWwvopAJvMZQzuZ4juE4zuJqHuRjprMg9kvZIh6laQafaYtKXnCvrHjT1+BeiqYcx09ZfoG/hI/ZL/I7rDSCex5r0o/b+ILf+J3ZK5SZQcG55JqZzcy//Z2SMouJvMPV7BCht93gvnIG9868luE1VsRcvucJruRUjuUYjuVkLucxfmRuho+gS/hfxtHd4F56+TcHMLXCmp3PZN5kOBdwwh91eyJDeICvmJNh3U5kXyepqvoF9/p04yDuZ0rMZrOI+yMtWRdXP8bHvCSn8SrXM4DtWJM61CCfPPKpQW0a0YU9OI3beYNfY33uQk7LYGjQ/2Ww5dJipvM1/+N5HuN+7mIEI7ide3mcN/iamRnd/F6IseHGyh/coRY7cA9fMJ3ZzFyu/BZjuciFTGP6Cn9naZnFbKYymhvpEXA7SSO4l4T3hnSlL3uy23JlZ7bl/sBf7XPszlbsusJfWlp2pENAz5fBfWUL7qvzeAYt1xKmMJJrOILNaE4tCsgjjzzyqU0LNuFQrua5DAcnPp3hXc7gXtbqLl+WW7MTeYHrOJ4d6EA9apL/Z93WpDHdOYTreDOjRSTfZz1DqLIT3Octs4xSuHwa0Z7N2I2jGMpXwb1nf5W53JPgkll/t3FgQ7M0JnzOUPqxSoXBpAX7cgsfxxhhN44dYn+qAwJfDS5hFl/yPPdwI+dyIFvQjmYrNGN1acOmHMpV/Jf3YzZkc9nf4F7mm5+uHMAgBixTjuRfnM+PgbH9Hg7gMPov95eWloEMoh/rBPYBpRXcy/OvwAfdgQnWssF95QruTbgm9nC0xYxhOHtV+K6mIbtzK1/F7p8t4paMNhc0uIffjd7mRnajcYXHbM0Ano8d3ou4inrGUGUjuC/kCtqwGmsElHZ0ogu92J3jGM47fMfkWCPa/yq/c32kMalxtQ7a521pyJ3G7WwcMF67LutzIT8HP768GGmN7dLsHHnC4zymMJo7OJgNaUNDalUY6WrQmLU5gtdirYX8Suy5Cit7cF/6yLtsyQOaMCJwHPfmQN4Kf2nZEi77wT2PowOD+7EGd4N7mW9VZ8XsaZ/GCHpGjl316cGtTI4Z3mdxIgUG96wE9wWM5Xg6BbTObTiaj2N2QU6mjzFU2QjuJZFuIhMCykQmM5XfmE1hAtPOiviSA6if4vdSlyuC+2EW8ipbUzf4WLXYmAcDF6RazL9jTmxZnRcifJKfeZ7+rEsz6gbHuQKacgifBDdkc2Iv6pkbwf3vanNtYHDfLPFPXRnB/djAVacGG9wN7mVE2ngrGC1kJFsGt/V12ZwXYga872PUoME9vEzhYtoFPyTl057rY3ZFPljh23kpkeBeuWUBD7NpypM6dgneBqaQ2+kY+3ircSYzg473HdvFPNap5Q7Omc9rnMQ/aJ3RMmQ16MkdgQ8jS7gr5gvh3A3u1wUdcSZb5WBwLzS4G9xL1YQ7Y3UjLeAW1o55zE5cHbjzwdLW8fnYyzAY3KNfJwfG6Hor0ZSLYs0fm8WhBlGt3MF9EZ9wUqoj20sa11eC30Fcw6oZBoIDGBt0zLtjBr92PFLq7aqICdzB/rRLZNMPWIVLA8fvf0Mvg7vB3eBucM9CcM9jYKyxybO5OqM+0oacFGtnkAUcH3O4jME9WvmB/TLqEGzIhbEGiT5Cc6OoVtbgvpDPuY4NEpjcVlGDfnJgX/HvXE6jjI+bz66MCVpMareYR+rCUyv078/lY4azI/UTCu0l2pbxiFD2LSPeaGSDu8Hd4G5wD7MOo2Kt6XVFxIVDy1aHk2P1zX4Xc6ibwT3aldov47apAVfF2JV8Ogclet+Vwb2KlLmM5lLWz8qqpxvxSWBv+7UZray+rN34OuDI98U+bmMG8zJj+YHvGMNITqdjKk3HFnwb9F1eHatPyeBucDe4G9zDrp3LY6zntYhbElkSoTaXxeibLWJYrE9rcI8yYOW4RNJFK+6PsbjoUxmtGiSDe5UrRUzlMfanc+yxZ6FN6hVBt6vF3JnhIJnlQ8nhAY3P+Njj3KEWq9GV7nSjC21TCbIANbkoqAfiIZoZ3A3uBneDe8rBfV1+inEveiSD3SaW14L/xLgbTmIPg3sKwX0xQxN4Zx6v469kbZlNDaNamYL7L5xMiyx+I1vyQ9D5vZvwFlCNGBo5GCxheJYeZ+Jbg48Dvs3RbGBwN7gb3A3uqQb3OlzOouB70dusn2ANbsQHMe6Hd8bomzW4V1ReZa3EPmc+BwTPYSjipgw2VZTBvcqV33iGKziVPRLs1y6vH/r2oBddk/i/xIfvbBIw0v072lXxX1htrg74RmdySIwhOwZ3g7vB3eAe3cZBUXZpTe6RcFu/D5NjTKDc3uCecHCfmsHmf6VpzL3Bw2U+TvDRQQb3KjNgZjLPcS59Up5/vSnfBJ3XiMResP2lJqdHviknebNMy878EvCNXhdjfXqDu8Hd4G5wj25w8Jrbi7km8T7RWpwdPJWxiFuD37Ia3Muv2VsSv4t3C1whrphf2cs4qpUtuC9dV2YGz7E/66T0WqkRNwc9KY9li1TOY42APvdHs/ImIhOteTbgO30sxo3Y4G5wN7gb3KNqx2vB9553Eh4SWaIjbwWfyfesaXBPMLhPp3cKnW8XBg7FKuKGDPcAlsG9Spf5fMTZdEphhZnuQf3ti7kqg22oy++JuSjyigfjM9hRLztqMzRoTVuDu8Hd4G5wTy+47x0c8BZwQiptfQEDgheGnMfAwHufwb288lKsBREq0iPwblDMp6xrINXKG9yXrjt+AW0TbkRPDbol/8TmqdXLhoyOHEuOrvK/sksM7gZ3g7vBvUoE9zrcEHy/eZfOKbWNbXg7+GxeprXBPaHgPo/DUlkIuU5Qd1VJptnRQKqVO7iX9LyPZKcYI6LL0j5wGafLEjz23y/7GwPG2Vf1NWBPDwgAL8UYb2hwN7gb3A3uabQWJcMYzk9xB5EhwevbjA+coGpwL7uMibWOWRRHBZ/NKSm9wZfBvcotFnlRYmMPwy77CSmMjFvWLkyIeCaf0bWK/8oGB2x18m6MTaUM7gZ3g7vBPWprVBh4l5nAzim2jj34PrjL6pSgUGtwL+8Nb1qLTfcMfkB8LOWlN2Rwr0ITVp+iewIvuxpyd8DE1CXcxSqp1kxDno78im3vlSi4vxdjxKHB3eBucDe4R5HP3cH3mCcDh6aE3oPvDz6jF4I2gjK4lz1Q5tTUernrMTzo+inmF3oZSZVecJ/KKN5nNB9VWEbzCZ/xBV8ylm/4nnFMZCqzmB9jW+Dy1kDdLuPLbwu+Dlq/fffU6+aSyK9Qq/orNoO7wd3gbnCvCsF9Nd4NDncDUhkFvVQBJwQPlpnK1gb3BIL7d6lG5f6Bi44WMshIqrSC+wIuYBVWp32E0pG16Mx6bEB3erIF29GXvTmYs7mTN/iBOQkF+C/om+EoxIFBL1A/ycJ2CdGboZszjoAGd4O7wd3gvvIH910jD0FcWqaxScrt4+Z8Gzzq/jCDewLB/c1UB6dsy8ygs1nEJUZSpRXc53JwxsetSVPasRHbsRdnMZJpQTfD0tdU3zWD6J7PFUFHez6FjZdW1CvyxkUvV/GxcQZ3g7vB3eBe+cG9JhcE925/kNoo6KUac2/w/e6SgL1MDO5llQczbo3KsxY/Bp7P8FTf7Sing3vSCxDWoDW7cTkv8WtG0f0bdos9ZKQ5jwY9GQ9JcZWBpaJvXPRzFV/LfUDA2wyDu8Hd4G5wTye4N+OhwLvKYi5Pabu/ZZ0aOBq6mGdoZXDPMLgv5vKUH8geC6zV51NZU14G9xRHYjVhX27j0+BNoP8qX7FtzGNvHtS0/cZuWaibWlwauUZOyuJvphZNaMu6bMzmbMvO7M4e7Mne7M2+/POPsg97szd7sxe7sxN3BkQdg7vB3eBucE8nuLfjjcB7ypSsrK69H9MDz2tcwK7dBveyZi/0T7VW8zkm4F1zSYLZBKlaBXeAenTlSibEHjjzcqyx5wWcGHQbHEvHrNTOkRFnACzmqtTOIY+aNKApLVidDfgHB3E2dzKKzxnLd4xjIpOZwq9MZSrTmM50pjONqX+UX5nCpKDZAwZ3g7vB3eCeTnDfgDGBd5TRrJOFln7j4H0253KIwT3D4P5L6g9lmzMx6Iyms7+hVNUvuJf06HbhgaDb0rKTdm6J8WKzHv8JOspntKM2daibYqlDHY6IfON8KIUoWovmrMNunM9jfMR3TOBXZjKXBcGvdYsN7gZ3g7vBvdKD+z7MCGyPnqNNFu7DzXkgcJmGkGEeBveyHsrWT7leN+SbwOmpZxhKVT2DO8BqXBczuo+jT/DRGjEysLfjYYZxK7elWIZxG6Mjn9ETie7iWp/enMxQHuUDJga+7DO4G9wN7gb3qhjca3NV8Lvcu7KyL3UeFwQPEb038owug3tZ7+dXSble1+L9wFq9lXrGUlXX4A5NuYI5saLfI7QMPNYqwWv7VrXyDHUT+M4LWI3duIAn+S6DmQYGd4O7wd3gXvWCeyOeCG6PrsnC1NQ4obOYhyOfmcG99HJP6iG5PW8GP441Qqq2wR0ac2WsXveZHBa45kvHoIatKpZXaZxhGGpJb07gNWYGL5dmcDe4G9wN7lU/uLfiw8DWaDbHZGH9MIDtmBV4bi9G7i82uJderk30PXVpOvBWYK3eT1NjqapzcIfWQeuR/FXeDuxz7xa83mpVK28HLA5W2tuNXXiAqYnuZmtwN7gb3A3uVSm4d2J8YGv0QwpXTOk25bfAc/uMrgb3jIL79akH9zV5PbBWn2ZVY6mqd3CHTrwXI/zNZs+go2xU7YP7O7SOGYIashfPMrFKhHaDu8Hd4G5wTyu4rxUc3L9gwyzd6dZnUuC5fR75l2Vwr6zgvkrwvgEvsZqxVNU9uMNukfcPXX6yZshaAD1jHaMqlTdiTbOpzU48GrzOgsHd4G5wN7hXx+A+Lnh54WztSd05+B70GRsZ3DMK7pelPn+hAbcH/+JWN5aq+gf3JtwZI/5NZZ+AIHBYYPioemVUjBtMR4ZUwTcNBneDu8Hd4J5GcF87OBw/nvE1mt7bgM8ivw0wuJdezsy4Lao4Xw03uCsXgzvswoQYAfCyyItl1eaKSp6QmURwD4u7NejJU7G3uTK4G9wN7gb36hbcu/JrlQ3ubfgo8Nx+irzwscG99HJC6hOPG3CbwV25Gdwb8UKMAPg6HSL+/bpcWyUjbNgSmCEv/RpyFN+luo2Swd3gbnA3uFet4B4+AfSprK2q3Sh4NPQ8To7YOWVwL72caHCXwT09V8UI1jPYI2d63CezX1DAvDjmCvkGd4O7wd3gXl2D+8ZMD2yNnstwmd3oGvNI4Lkt4OyI15LBvfRySuS38gZ3GdyD7cfMGBHwtIiXZT4nx9yltWqUBQyhfuTvshlXU5j4OSyhiMUsYiELWciC5crCoBVrDO4Gd4O7wT2d4B7e414/S/e4VXgl8NwmsVfEv21wL72cZI+7DO7p6RC8/1gxxYyIvJtoH6ZU29j+C/8OmJhaj8uCd+grqyxiJuP4kKe4l2Fcw6VcxHmcyzmcuUw5g7MYZXA3uBvcDe6VHNzXZ3Lw6mR1s3SPa8+3gec2lp4G94yC+zlOTpXBPc2zvDtGsHw1cgTcgB+C/vJ8XucpHuORSiyP8zQPcx17BNxaCjg6eH++FcP6eF7mbq5nCCdzEH3YgObUqaDn4hgWGNwN7gZ3g3ulBvfw5SCfDvjrmQlfx/0z13HPMLhfkYXlIEcY3JWrwb0ed8UImZ/SMeLf7x64LOL7rMeqNKc5q9C8EsoqNKcFrVglMAT1DGrAlx8KM5fxjORidmR1GgYed7DB3eBucDe4V7vg/kbQfiCZWI+JgefmBkyZBvfrsrAB08MGd+VqcK/D0Bhh85vIrxK78VPQX34gayMfk9SGx2Ptj7qAH3mKw2hPQ2oFN6YGd4O7wd3gXhWCe6fAdr6Yr9ksS61z+FKVn9HN4J5RcL8x9cU+2wcP8nXnVK00wb2A02IEztkMiPj32/Fl4OKLDapdTdfgpFiTUr/lAnrTNFZgN7gb3A3uBveqEtzX4JvA1m8qB2Spfe4dvIP1W6xhcM8ouN+e+gyGDrwVWKvP0MpYqpUjuOcxKNZ47AsjzhpvxtuBr7MaVbua3jRwHH/Jo8+tbJxAr4TB3eBucDe4V3Zwb8ZLwfeQc1NfMrDEvpE/8V/j7xsa3DMK7i/QIvUe91GBtfoATY2lyu3gPiRio9uYV4P+8uhq91RckyuD18L/iVNjhGiDu8Hd4G5wr4rBvS7Dgu8it2fp7epxwUsSPxD5SjK4l7Uuz6Yp1+o6jA6s1XurYaegDO6lKuD0WMH90ojBvQGPBv3ln9mimtXzxkHRtphiPmS3jIbHLOsEFhrcDe4Gd4N7pQb3Ao4PHi74dFY6aRpwY2DHyhJuidw+G9xLL7/xfynX64bBi3zeXi3nz8ngXoo63JxqcK/J+YHTNc9OLNRmx2mBe8N+mGjEOzNgUmx2gnsay4AZ3A3u2QvuAwzuwcEdevNL4F3kf3TIQvu8Hu8Hntd8To7816tGcF+rygX3hZyVcr1uzoTAer0o9U2hZHDPknqx1nGPHtxhj8AtmJ6JPL6wKmjEvYELaSb5RiGPITmxAVOLwLcaBneDe3xHG9xjBPe1ggPy95HXJsvEbsFbQ/1K32oW3DsHdmykH9yLuSPVmJzP4IB3zcUUMz31dwAyuGdNQ/6bcnDvyBtBf/sT1qpGtbxh0Ei7qRyQaHOWx2VVKrgXcVEqO+Z1DJz+a3DPheA+PvKifWFCz8LgDtCaZwLvIvM4PgvTU0O2qFu6veCaqQX3U1L5jJsGDhvJRnB/MdUOuMY8Fng+X9LdUKqVJbivzbuxgvsFkS/9+twe9LcnsHO1qeMCjg5aseDuhEfZ1eDaKhXci7k+lfV7NwtcidngngvBfSq9Uvit1eaaoO/A4F6iXoxBl0+nPl2wBlcHn9XVAZsHhQX3RVySyqfcOXCLqWwE97FslGK9rhW8ktuzNDGUamUJ7v2YFSO4z+LIgGOcEzg67tLU14BNSti+sxPZKeHjN+KeKhbc/0PjFL7nPQMjrME9F4L7bHZP4bfWlPsM7jGCOxzI9MD7yDjap9xCh77vLaaYAQGxtmvgjtl3pTKA5MDAleqzEdznckKKg2W2ZWZqE45lcK/ywX1I8FKGJaMTQ/q6/o/fAseBr1tN6rhR0OrFdyUeasNuS9kI7o+wSgrvNU4LfN1tcM+F4D4nlVGrnQLXhza4L7UOnwTvZrFryi30v4LXcJ8TMMI9PLg/nMJQwjpcGNg+ZiO4F/MgzVOr1wGBaxgt5BwjqVaW4F6Th2LE9mK+Yv2gBv2dwJVlDqgmdbwKHwesVXBMCj3Rk1IP7l8G3piSD+5NeSTw92lwr57B/czA4L5/Ctf0ToGT6Q3uf10zoeOOF3NDqkv01eHG4HvbaDoHBfexQX/9oRSCe1ueDfyM2QnuY9kwpXptwIig6yeth3wZ3CsluK/P57GC+6igfdHyGRK4ZOKLtK0WddyZnwNWtu2X+GPXhQGLQcYN7mOCau6xFHbM2yB4pfzKCO5bGtwT6HEPuR3PTeEBv4BTg64pg/uyzg1c6aOYL9kkxfa5dfAMrkVcFjRQsytfB7aPya+6tRE/VsngPj9o0FGInoF3pWK+d2qqVpbgXsBpwZtmlJR7qBfYMxz2wnIeR1eLOu4dMGlyQuIj3OsHvi+JE9w7Be5P93rAigxR7cPUKh/cZ7G9wT3jox8d1OM+n5NSaLVDV9kyuC/bHoZGyLkclWL7fEjwDK5JgYN31g0cHvRqQjtmL98+LqiSwb2Yl1N4/wpwVIzFKd01VStJcA8dwhI/IrQL3p74jdSnLSVhu4Dg/iNbJ3z0NQJ7ouME92a8FnSMHxLf6rou1wT2gSYR3OtwQ9ARf2dPg3vG9grqSFjCbYlv99UteD9Gg/tfGgZNll86nb1pSq1zPR4PPpv3A+87a/J64CDTjRL/lOGr+WQruP/GNinUax2GBp5HUdBiGjK4V+HgXpdrAwew/DUGPfQ2UsApgZNgF3BGNdjnLCS4/5RwcM9jEPNSD+51AldnLuTkhEdxdg98GZ1McK/F5YE9hwcZ3BO4nsI+8Ud0Sfiauii4TTS4L+uw4O9vWiprAwFsFbxk4ELOC7yGWvF04JC6/gkPH+nJT1U2uC/mhhRWc+8ZOO+qmKkpDGSUwb1Sgvv2gZOw/ipfxBgv1j24J+uLFKb7rUzBvXXwQmdxgnut4F6rpxNtqgs4NXAaUjLBHQ4P6ucvZKDBPYGoNSMwBh2Y6PHb817wb83gvqwNYsyaujuVrXpW4fbgFdN+Dn4QbBE8IffORNcTrxE8fyybwb2YX9gl4XqtzRXB9foSaxhItTIE97UYGTO2F3NbjIa2EbcGHmUJL6Uw0bHygvs4tkv02IcELrIZL7jnMSxwoMqEoBWHku9dSSq49wu6PSyOcTM0uP/98f77wJq+PsHBMnU5P8acH4P7smpyfnCQnJrKih97Bj4ElixmG/qJQ7cXLOaLRN8Sbc93MdrH7AX3Yu5OeFR/j+A2Yi4nZ2GHXhncU9eEm2MOkylmPsfGOmbv4AtuAefHuHXE67doyxbswCaBjwrbB0ybnM3BCZ5xJ94Orrn3YjWhxwUOyFnAOYmtnFCP24PHtycV3A8I7Om/P/Gd+XIvuK/By4E1/SkbJ3b03jEGHRjcV9QruJ0v5l3WSfja6Ri4Gn8xxUzhn8GBNo8zA1fSWcBJicXI0M3CKiO4/87pCa6k04wHYuw6s4VxVNU/uDfh0sAwtnzP8baxjlqH+4OPNY1TUnmNuvy7gD5cwPN8x0S+4gH2CrhdbcbkgE9zSWJ9svkMjvHgFS+49wru0/ksoQlYBRwSvJ5McsH9n4E35PcSHm+di8G9HpcFrpCxmCsCNqgvTysejfVbM7gvrwHDgwe3LeJuVk3wd9SYq2O0j4/G2jDoH4wLbh/bJdTdNDj4rWv2g3sxP9InoXqtSX+mBR//xRQ3gpLBPSvBvYAO3MCc2BdhESNi7/+5W1DMXTov/dQUF3Kqz6YM5eflbjRTODnyYpcdgnqXXkmowYZtY/RqxQ3uTXkyeIrXGYk8onTlg5i/0iSCe5/A2Dw58Ul2uRfcYc/gNuIb1kokEpzEfIN7AsEdNosxe2oeZyY26Cmfo5kZfAazOCzW0Vryaoy7fBLtY/gKSJUT3It5nU6J1OymMQZOJvVty+BeScE9jzYcw1fBUzuWLTMyWK86fDxgyQi1W1k98Usvj+b8g/uYUsq3MTPyKvLN+Szo5nRMIivlrMbzseouXnCvyZDgI42hZ8afsg1PxpiWmlxw34wJgY+0ZxncM7Z+8GZbi7kucFeJ0j53v8DaNriXrS63xOjvnk6/RIaQ5LNfrCFPD8ZcczyP4cHH+iiBd5JrBu+XWnnBfTH3JvBGpQPPxTj2p9VkM0cZ3EvVjEN4LoO+9qUbSGSypcK2wQt0lYyqf47NE43urTmSx5hQ5vjpNyP2jTflw6BP8k4Cs9sbcW3w/oSZBHc4OMZt+J4Mt95YlRtjz8JIJrh3DJ5F8BodDO4ZahI8yr2YSeyXUeuQR5+gB3CDe0V68HGMb3IMOyTw+bZnbIxjT8igQ+rE4Hc1RQzN8D1yK+6I+YaoMoJ7MYVcn+EcoJbcGaMjZxFDEt/rQQb3v/28k98xNI/6bMo5vBRzPNzyA1cOzOgWWYNzgnd5W9qoD4w9RGf5WtmO63i7glepMyK+Ng3dZ3EhF2cYrhpyeYzVEjIL7t1ivKCcx6VBW4ev+E5heAazMJIJ7k0YETgxdn6C03JzNbjnc16Mx9IvM1inuYDdg3v5De4Vfb7TY+3J/Qk7ZfROMo++sR7Birgwg5kSm8cYuDiTczJoo9pxd8z7aGUF92Lmcy0tM+hquyXWL2p0jKWrZXAPHhaS3DYudWhNV3bkKG7luwx6L5ctj2f8wmutGD1qS8P0cP6RwVN7Q7rxfwzn5whDhYq4JFIEy+ewwNGUP9E3g0efVlyYwTuTuMG9NlfFWNtlOmfE6lXKoxv3Z/h7TSK4wwnBt4pv2dzgnqEusUbuvkmvmK3C4bEW1DO4V9RSPRqzg2af2MsR1OSfsXrbi3mPzhl8o/WCd/IsaR+PifX91mQTHs9ouGvlBPdiCrmLDWM9mHXgzljvF4q40IUglX5wX8CZNKA5rYJKa9qyGu1Ym670ZEt2Zl/6cxlP81UCl9uyt6i+CXwvOzApgx7/EezLWkEvvwpoTnf+xS18F/lmWcRlEY/RmXcDP8MHbBr7oef2WL0OmQZ32CVWnf3OJbQOPFIzjsio/zPJ4L5XwCr9S8sodkxsMnVuBve63BGrzj9ip8CX4nl045bIMdbgHmZrvonZxl9Gx1h9siczMdYRJ7B3hnOPdov1K/qNfwevd9KCwTF2kq4awb3kKj0osN+9NlvxTMzZTh+woUFU6Qf3Yn7mcZ5lZFB5mTd4mw/5lC/5hh+ZwDTmZPhMXtposWsSGS1Wm39ntKrNND5iCJvTkkbULSOqFFCbBjShDZtxEs8zlhlBl34Rl0b8rPUZEfwZPqRP8DdZk56MjDm2PfPgvmrw/oBLg919rBfxpphHXdZlRIz1INIK7j1i3CKL+IV72JFWNKERjWhME5rRkjXoQm92YVe2oz0NIt04czO4wx4xH+1/pH/k3tp8mtKPD2PtEmBwj/YZj4/ZzTCfN+lLo8hhOp+G7MQzMR/BFjAk4wVF1+DFmGucD6d95D7hunTn/owfNCs3uBczg8fpS7MIbVXJHeEafowZ2ws5PpHFIGRwr8blOdon9M00544MHysWMZ1veZXbOY1d6EI72tCatqxBR9anDwO5ksd4lx+ZzvwYN+cFnB75kh8YYzT2BC6ifeTGM492nBlrWm9SwR12ijlDoojPOYE1K2im82nKlhGHMWUvuDeNuW5DEbP4nrcZyUhe5z0+4zvGM4lpzGAGMxjPI2wRofZzNbg3itnnXsxsHuAfFb7xqE07juStwG/X4B6qBXfGHPK2hFm8xiGsXuGAxTxasg9PMiP2I9jDGU6jL3FAjPXFS9ZbGc3ACldNy6cFW3M3ExNqHyszuBezhNl8wGlsQIMy77I1aUUfbmd8BoMmn6eNMVS5Hdy/ZrsEv5u1Y+xrV1bEHs9o3uAFnuMFXuFtPmc8MzJs4MYFrDHQgTdiHGEeL9M/wkCSArpxDq8m0mxmEtybZLD42O+8wmXsTetSbhcFrMHeXMxD/FBOlBkf+K4hmeCex4CMpsiWv0jZQRXG7FwN7rB3jEFKS0PBD9zLifQsdYnIBvRgEEN5g1ll/oVZgQMuDO5l68RLGS2F8BJXlNFuALRiLy7iyRi7g/xV3qVHIt9qq5h97iW/uBe5mN1ZtZTPWYP27MsQHuOnMh9NFjItsH1MP7jPrzBwz+Mj7uYSDmNzVqMeBeSRT21Woxf9uZpnV9hfJXzswg5IOR3cJ/CvhCd57MSYKvx5Hw26ZfWPGe/m8ArnsAudqf+3hrQGLdmcQxnKp+U2ypOYnpXgDrvHXum6pPzKq9zMOQziCA7jSAZyAhdyG2/yawW9ZZ8zIHB3wmSCO7SPtdFV1IfD3Sq4feZucG/KiIxu2gv5ige5nJPoz2EczlEcw+lcxSOMqeBaXciNXBN0bIN7eTYKngNUWrsxlLM4hiM5jMM4nP4cyznczEtMyehXUswPCW6atm9Gg/yKmMxL3MRZHM3hf7SPJ3Ihd/A/plbQPn7IaYEr16cf3B9kWKR1b5Ywm7G8zP3cylCGcS+v8G3Gi1YXM5fzqW8IVS4H918ZlOgydyUv//4ZvFV0tsov7BP0WVblmQwixkw+YRiD2JN/sA1bsw07sh9n8hS/MK+CG9N4zuD+yDevzIJ7I25L4CXpQgqZxzzmUch8FkV4wT2ZA2gZuF5+UsG9Pven+DuraC2L3A3usAU/Z/z9Lmb+H7+1eRSyINJ18iRrcERQSDG4l2/rwGu3onajpDYXJjA74Uf2S7A7qlHMdXQybR8nsC+rB+4xnX5wP5K2gUtWLmFJAnW6tDwVvCyCtFIF90kcl3hsLxkk0S/WDndpl7mcEvx5+8Z+tf9Xs7WIBcxjDoUsiDjQp5BTaMs1kUcBZhbcoWcC672Eh69rqckqfFopwT2P/Zia2mdbSP9yb6C5HNxrcV5GK1XHjXJbAv2DJlUa3CuyFe9XwXZ+XOJvkbeNuRhlZkNFz6cGHQM3vEo/uB8NrMETCUbxsOUfehhAFTe4D10pYvsxGc+5L0ttduHHSrq0y44iV8XY6KkxN2S44kucSHszzajDlVkL7vmcltqY77IeZx5lTaA5n1dKcIeWCfSjlde/27JaB/f5qQV36MDrWX+zeBQ1gYFBa0aPj7HnZm4F9zx68n6Gg1qSLmPZM/EdNWtwfuJruVVU7mVVYO3Ajo30g/uJ5APr81Yl1PsYR7crvnrcXO1j+7f0S3XD4Hy24Y0qFN0XcH3M3d068maWY/tDrA7kc3nkm0WmwR2ac1dWY/srrA9Ai8Dgfl2CD5v9ExhxWfZr7k3KDe5hS7+dkXEPYh7HBD7mHpti67BjVt/IzeL0P/b6PToouI9j2ywE939W4+AOsD7PZD3Ull3eoU8qCwWuzmNZvJsV8TTrAtA5cL/YS4I/WWhwP/mP77dbRtOT481b2NPwqUxugudVsd7k0Bf5r9M3C/uOdee+rPdWl16mc2UGS4PtnMWYUcSTrP3Hca+IfEN8l6YZ19aGWXvtvYRX2PjPB4ZPgv7v9QkG99UymMFQUZlZ7jCLPYOC+0IOT+DT7h/0TqWQASm2DDU4LcWHphWv/fP/iO2hk83HxVhvq4BTg+4N09m6mgd36Mx9Ce3fnVmZx310y2D36vJtmsCI/qjt44t/dGtAp8D2cUjWgjv04IUs9rr/Qr9UBvYqhxxYzqJjVb38xrCMtoEO0YqrmFHpn/hnTsvoRlWTk2KudR7e2/7UMnVzUeTb4asxBgGV1g/6VVZuS6Po/ucxm/BW4I0pyfdEe6dWr9PYppzjbh503Anl/q3owePbgGPOTnBVjtI05tpYW52H97afv8zWTWHt9vdsEeOTHRTU//wFHap9cIfVGJbI9kGZlBlcTKtUf7O7JrDjRpSum5fo9ucx2wR2p5ybxeAOnXk0S11zP3FQFroatZLrHjjyrOr0tX/CgVldTKkeA/iqEt9PzOEVtsk47NXhjCxE9wU8TKdljnp85GhzfyJ1ms+WfJxyH8pCnmWDZY7ZgIeD+oEPT7RHrR5XxNwDsqLyDRuVc9w2QTu3vkq7RB6inwrq31on5ZahMRclspdu+fN4Tltu1fedghY+/V+s77130IY9d0beEbYqB3eoy6Gptx3lhd1vGVDq+v5Jyqcvo1O/Qz/+5xtXgEaMDHpMPSirwR1W55YEN3Aqq3xHP3dKVeZqc24lrIyQeV/7zXRJ7VVi2a/FN0toO+fwMoULElo8qgFHpDxgZj63sMZyx/xnxOEEizk3oZeIefTkhRQfs+YyjI4r/DpODojO7//5CjkpLbk9lSv5/nIHL9Xjnsh/aRFnJXTNnhbQO/ZCIu9wKoruxzIl1alsB64wsKpjwJZqC7kg1lW1Jq9GPsbv7JXg91mZwR3y6MIDWZ7ivrTlfIxeGU/fjvYZeyW2wWDp77muXeEekM+FAcOQ3mKtLAd3aMq/A3YciVM+Z+espxatpNoHLtNU2WUW99GHJpX0bbXgUD7Nan/MEqZxC70SvEHVYHteSSnULuFbjvvbKPwu/BLpf3/JZgnWVQeuSWUg2BK+5chSJtF2jnwrLOKCFF6XtuauxF/3LuKwCo66S+RdPD//cz5ApjaJvDXadA7Myq2yJrvyv1Suqfk8TI+/Be8aDIwcLcfTJWa/7ODIawY9z2orTXAveatzJKOzOq9pCR9zKG2ydifLYx1uSakb6isOodHfjrhe5KV6F3BqjH7pTIM71KcfH6V0Z1zE02xmb7uSu4D/j0nVJLRP4WEOonmlfl8FdOcGvs1SeJ/CfeyZ4EvopdbmxqAX4VH7oR9kq1J6jGpF6m1ZwLkJ9zY14MjER7vP4ym2KfU88+gfccjEx+UOP4lvVYYmPFXyFdpXcMxG3BzpVjeXQxO7bdXg2IhvN+5KYLJzVOsxIvGX7T9xXhnjnVflhYj97ZfHngbdlhcjHePHGMtNVu3gDgWsw3l8maV1Zn7kBrplPdY15ZjER7vP4iE2L7VbogYnRazXd5YbaJm94A55dOfGFN6ejefiRIYJSsvEm1My3pwn/Qk7o7iOPVNrpkP717bkWkanOiltEZ8znH3/XEciaXX4F88k+EK4kFGcWOZDVXteqXCYzH0rvFxNQj7b8GhiI5ALeZnB5SzG2STSVlMT2S+1XuBmXJzgdkzvslWEY3bm2Qqj+zzuSPTxszmPRYhUy04ezoYmnMZnia1L8jPD2L6cQS69I8xPWsJjGV1VW0d4HzsrgdX5q15wL2k9enAxb6c69nk+73I121TShMUC+vJMYv3uc3mBAeWsetaUoRHeYvzIbrHaxySCe0k3Uz+eSnApiuk8wq5ZGQClHFOPQfxQxbafWNqsTWcM/+UQOqa6Wnu42nTlXN5jeuILiC1kKh8xhA1Tn6TUmrMYm/GkxiXM5UvOoVM5N588ti13Hd/5PBWrlyVaP/SRvJthT/QS5vE1Z7FGBb1iq3JrubePJXzPYak24g05jK8SGO1eyHOR3wt0ZWS5V8FshrF6wp9zXZ4s91MuYhS9st4q1KIHN/FLhm3CYqbzDDtVcP3n05dPy31kKuTxDNfdymMHRpd7jMn8O/FZBFUluC/teT+F/zEt8RkkC5nKKE5jndS2D4xWw60ZxIcZd+HM4VNOo20FR1uTOyqI19+wf8x5TkkFd8hjVY7kbWZnmImKmMHrlT5GQCuxAnrweOAuiOmN9lvALH5hDM9wCj1pQb0qOjasJk3pyaW8y4QEet+L+J1xvMm5bESzLD2m1KQNRzOKSTHHcy7kZ17kQFpV2Njm0537+bXUEDCZyxKaelvWsVtyEK8zJVagWswUXuMI2kS6oTRmEJ+X+mtYwlQeYbPU+9byacclfJ3BA1khozk26HazJsPKWK1oIV9wWArvjfJoysl8XervdgmTuaXCQT5pqcMGXMtXzIk1WnYu3zCczWgYoc3Lpwv3MqXUeLGArzgtgciQx0Y8VUYkKuRNdkrhMbQqBXf4//bu/E2uskwD8NOd7pBAEpKAQyYGAsIkMEaBsBkEFQhogBC5QBYNgdAREAkgjiwGYdgcBEdBkSUQ6CCLio5wMTijuIOCxA25gKBsihCW7IGs3V3zAxIyiFqnUtVd3X3f3z9wvve8deo5Vd/5TtKUwdk+Z+Snea4q8X1F/pSf59+zQzaui19i+2RYpuWezK9oYVBbnsvdmZzNyprLxjktj71pFdszLzdnbMUVqV5wf7UmQzMht+WpCq+jr+TxtOa9GWxdO7U1PJNzTeZ22S4za7Isf84DuSGnZXLen3fmLd1ix9O+2TLvz6n5ep6pcEVkexbmZ/l8puZ92aLTL+V9MiITcnZ+kIWFosaS/CQzsnfeUvYfm5vm4MzOs+tUaWUezpdyYA1W8f91ANk8B2VGfljo9nR5fp4LMjEjClx+mzM2p+XuLFinmqvzRK7LwZ3220u/7JxTcmfhZTMdmZev5+N5e+EuHJJDcnkeWudrrj0L84OcmbE1+xQ3Z9ecnXuyaG107cgreShfyAGdsJfM37NhdkpLrsrvC9wqduTZfC3HZ9dCYXTTTMoVeXSdW8WOLMm9OStjq3bzPyJTMytPrHOT1JZ5+XZOyjY1WfRVb8H9tfi+eSbklNyYxyv+jlydp3JzTso+GVlnL+Hpk5E5OOfkJ4X+m1yWe3JO9s/wAn3QN7vmU/lxFq9zfVyZP+TKHLBe782ubnB/7aq2Z07O7Xmp4MvIbssJGfcmD+hCTQzIDjkoU9KSaZ04WjI1R+VDOSB7ZHQGd8stkxqyaXbLwflYLslt+XUWZ0XWvMnHvSNtWZ2VWZzf5+5cl/NyfA7L3tk6/br434OReV+m5oLcnF/mhaxM2xuOviNtWZWleSTfyHmZmvHZqoIvn6EZl0NydFpybD6SA/OOmi8IeuOv0ftmSs7Pf+XhLMmqN8zy1bOzNL/Pnbkkx2VChUu0mrJF9sqRmZppmZYpOShjOz1KNuaf8558JOfk1vwmC/5qrq/Pd3nm5YF8Nefl6OyeTSv+/PXPmByQo3JsWnJ0Dste2aLmt97NeVv2yWFrO2pCxnTxJ2ndq+mOOTjT85X8JM9keda84bfxjqzJiryQX6Q1Z+aIjKuw9gPzzrVX7ZYcnn3ytqrf/g/KTpmUKWlJS6bkkLw7m9XsOl2fwf01gzM2k3JiLsrNeSDPZsVfndd1f5JZk5VZkF/mllyQYzMxO2doHX+/NWer7JdjcmFuzyNZktVvcn1clcV5NLfn4kzLfhV2WmO2zPgcmWMzLS05Kgdmx/X+8aYWwf3Vb/ZheU8m5+zcnDmZ/ybfjKW0Z3WW5tF8K+fn6Lz37zwHBdRlgO+bIRmTifl4LsyXMzM3ZPbacX2uzKU5N6fkiLw7b03/NNfVZbwhzRmQUZmUT+TiXJFr1x799bkil+SMHJmxGZymbr4fbVM2yY45LKfnklyV6zM7s9OaWbkyl+asTMluGZq+PWTP3aYMyJgckk/m0lydWWlde0Zn5op8Lmfl+EzMqGxUZ73YUzSmf0Zm7xyX83J5rv1L/W/IzHw5F+aUHJRtsqG3KXab4P76lXKjjMqEfDwX5PLMTGtuyi25KbNzY27KV3N9rsnlOS8nZmLGZFA3+nQ1pDlDs3OOyFm5NFf/5TugNdflylyaMzM5O2Xjurs+1iq4v34dHZjtMjHTc3GuzKy13+mtuTZfzGcyObtkSLf/ZgQA6HHBnXpT6+AOAIDgjuAOACC4I7gL7gAAgjuCOwCA4C64I7gDAAjuCO4AAAjuCO4AAIK74I7gDgAguCO4AwAguCO4AwAI7gjugjsAgOCO4A4AgOCO4A4AILgjuAvuAACCO4I7AIDgLrgjuAMACO4I7gAACO4I7gAAgjsI7gAAgjuCOwAAgjuCOwCA4I7gLrgDAAju1IspgjsAgOBO/fOLOwCA4E43cHDZXfPq+ITgDgAguNP5xmWB4A4AILhT70bn+QKxvSPHp0HRAAAEdzrblvlTgeD+YvZWMgAAwZ3ONyT3FAju380IJQMAENzpfH0yvex9ZVbmVAUDABDc6Roj8r0y++YXeadyAQAI7nSVSXmmjK55KYfYUQYAQHCn6zTlhDz5D3rm+XwyGygVAIDgTlfqkwNyf9r/Zsc8nA+nnzIBAAjudH103zan59dZnrZ1OqUtK/LbfDrbp0mJAAAEd+pDc0bn2FycmWnN7NyQmflcjs1ooR0AQHCnPjWmyYOoAEA1NaTR+MtIpgruAADUW2Afkh0yIS05OdONTM/0nJibslJwBwCgfgzOUbk1T6SjwKvaDcEdAIBO1JDtc1MWCN+COwAA9WzPPOCXdsEdAID6tl3uFbsFdwAA6lv/XOfXdsEdAIB6t3+eE7oFdwAA6ltzLhO5BXcAAOrd1rlP5BbcAQCod7vkWZFbcAcAoN7tnTUit+AOAEC9Gy9wC+4AAAjugjsAAAjugjsAAL3D7lkgcldptAruAADUytg8LXJXaVyTfhoKAIBaBfenRO4qjQu1EwAAtTI6vxK5qzTO1U4AANTKlvmxyF2VsSbTtRMAALUyLP8tdFdlLMsx2gkAgFrZKNeXHU1XZ0kW97KxrOzqPJsPaCcAAGrn/LKj6Zwcmj3z3l409sxnyq7O3IzVTAAA1M6paS8zmj6ad/Sy2jQXuq0ZoZkAAKidI7KwzGi6KuN7WW0G5o6yg/v301czAQBQO3vkybLD6Wlp7FW1GZbHyq7NTK0EAEAtjcicssPpjdmwV9Vm9ywq+9+IM7USAAC11JTvlR3cf5tNelVtTsqKsjeDnKSVAACorS+U/XjqouzVi+rSN7eVfUvzUkZrJAAAamtKXikznrblP3pRXbbN7wrsKTNEIwEAUFs7ZEGBvVMG9aIbmqVl1+Ur6aeRAACoraH5VdkB9Y+9ZrFMv1xVdlVK+ag2AgCgniJqR2b0kqqMKrDbzqK8WxsBAFB7U9NRdkj9nwzvFTU5tOwdZUr5UUZqIgAAam/n/KnskLo4B/SCigzMNwsslLkszZoIAIDaG5Y7C8TU2b3gNUzj8mLZ9ViWY7QQAACd49wCwf2ZbNvDq9GQ/0xb2fV4JNtrIAAAOsf+ea7soLo65/Twarw9DxW4kbk1fTQQAACdY9P8tEBUnZNtenAtmnJ2VpVdi+Vp0T4AAHSezxZYHLIqM9LUYysxJg8WuIn5Y7bSPAAAdJ535aUCcfXR7NBD69CccwpsjlnK9emveQAA6DwDc0eBuFrKBT10C8TRmVugCssyUesAANC5PpL2ApH16ezYA2vQJxdnTYEq3J0RGgcAgM41Or8qEFnbMysDe1wN9ivwKqpS2nKmtgEAoLP1ycWFFsss7HEvHhpe6EVUPXmlPwAAdW3PPFkouN6XUT3qxuWUAttAltKRq+3gDgBA10TXawsF9/Z8IRv0mNnvlqcLzf6FjNMyAAB0jX0yv1B4XZQjesjMh+XbhWZeyq3ZSMMAANA1NsrNBePrg9mlB8y7f87N8oK3LPtrFwAAus6+hV7EVEopt2dYN59zQ44q+E9DKbdkiGYBAKDrbJzWghF2TS7p5ivdd83DBef8bD6gVQAA6Fr75pmCMXZJTkhTt53vyHyn4Hw7MjN9NQoAAF2rTy4r9A7VUkp5JoelsVvO9q25MW0FZ/vHvEubAADQ9UZnbsEoW8qjObAbRvdBuTZrCs60LTO68f8LAAD0II05tXCcLeXhjO1m8xyYi7Ki8Dzvz79oEQAA6kPxXc1LKeVn2SUN3WaOg/LZvFJ4jgszWXsAAFA/xhd+RLWUUubkA91kwcyAfDbLCs+vI60ZrDkAAKgffXNBVlcQ3edmQjeI7sNzTcEXLr02ux20BgAA9eWtubuCaFvK3Hwo/ep6ZltldgVr+EtZmpZuuncOAAA92l55qqLoPi+fzoC6ndWuuaui2N6eq7OxpgAAoP405bS8XFF0X57rsnUdzqg5h+fBdFQ0p/vydi0BAEB9GpobK4y5Hflh9qyzPWY2y9l5saLZlPJsJmkHAADq13a5t8KoW8qjOSWb1sk8GvOufK2iJTKllLIsp6dZMwAAUM/G5w8VR/dX8q3smj5dPofBOTmPpL3CWbTlGptAAgBQ7xpzXBZVHN078nSmZ7MuPP4Nske+UcGrll4fd2akNgAAoP4NyKezcj2C7/LcmSOzUZcc+7b5XIV747w2fmvvdgAAuotBuari9eGvjvm5Jftkw0485oZskbPzm4oXyLw6/pD96+wRWwAA+DtG5OvrGYHbMz+zskenrBZvzqgcl/uzar2OuJQ/Z3IdrNAHAIACts2d6xndSynlxdyayRlew+Psl91yXuZk9Xof63OZkiYnHgCA7mZ0vlOF6F7KwtybM/KvGZDGKh5dQ/pmk+yf1jxRlaNcmuOrenwAANBpRuXOtFUhFJeyKi/kWzkhO2VIFY6rX7bOgfl8HsiSqoT2UhbnrE5dkQ8AAFVVnQUzr4+n8rWckYOyXfpVdDyDs3ta8sX8IsureFTP5YQMcLIBAOjORueu9dxh5o1jTV7IQ7krF+Xw7JzhGZwB2SCNaUzjOju6NKQxjWlK/wzKJtky++TEzM69eWK99mh/89h+jEdSAQDo/rZKa1ZUOSy/GuBfzsI8nzm5LV/KJzI9J+fY7JvxGZ9JOSEnZ3o+k1m5O09mfpbU5BhKedwjqQAA9BTDcklerkls7urx6+wntgMA0HMMyhl5sYeF9vZ8N7t53RIAAD1Lcw7Pg+noMbF9RWZmc6cVAICeaNfcVaXtIbt6zMsM+8gAANBzjcxlWdTNQ3tH5uSD6e9kAgDQk/XLkXmoGy+ZWZzrM8rKdgAAer6G7JTWLO2Wsf2RnJSNnUIAAHqLoWnJ3Cq/mKnWY0luyo5etQQAQO/SmDG5sttsEbkmD+SoDHLaAADojfrlg/lOjd5oWs2HUR/PRdnW6QIAoPdqyLB8LL/LqroN7QtybXbPBk4VAAC9XVM2z+mZk5V1F9vn5/bsbeNHAAB4TUO2yafyQB09rjovt+bQDHZqAADg/2vM6Byfe/JKF+/yvjrP5NrslSFOCQAA/K3wvkmm5LY83kW/vS/MfTk/YyyPAQCAf6xfdsuMfD8LO/Ux1CfTmg9nuPIDAED5mjIi++XSPJilNf31vT0r8ly+mZaMzUBlBwCASvTNZtk7F+Z/81heqXJkb8vzuT/XZVpGZ0AaFRsAANbXgOyUllycO/LIer+wqSMv5WeZmX/LRAtjAACg+pryTxmT9+WjuSx35LG8mEV5OSuyJh1/YyeajrRnVZZnaRZmXn6UG3NGDs24vC0bKicAANRWYzbIwAzNFtk9h+fEnJ8vZVa+l7vfMG7PVflizsxHs3+2z2bZOBumj/IBAAAAAAAAAAAAAAAAAAAAAAAAAAAAAAAAAAAAAAAAAAAAAAAAAAAAAAAAAAAAAAAAAAAAAAAAAAAAAAAAAAAAAAAAAAAAAAAAAAAAAAAAAAAAAAAAAAAAAAAAAAAAAAAAAAAAAAAAAAAAAAAAAAAAAAAAAAAAAAAAAAAAAAAAAAAAAAAAAAAAAAAAAAAAAAAAAAAAAAAAAAAAAAAAAAAAAAAAAAAAAAAAAAAAAAAAAAAAAAAAAAAAAAAAAAAAAAAAAAAAAAAAAAAAAAAAAAAAAAAAAAAAAAAAAAAAAAAAAAAAAAAAAAAAAAAAAAAAAAAAAAAAAAAAAAAAAAAAAAAAAAAAAAAAAAAAAAAAAAAAAAAAAAAAAAAAAAAAAAAAAAAAAAAAAAAAAAAAAAAAAAAAAAAAAAAAAAAAAAAAAAAAAAAAAAAAAAAAAAAAAAAAAAAAAAAAAAAAAAAAAAAAAAAAAAAAAAAAAAAAAAAAUAP/Bwl/v0eHz92MAAAAJXRFWHRkYXRlOmNyZWF0ZQAyMDE2LTA5LTIzVDE3OjU4OjEwKzAwOjAwZWm3oQAAACV0RVh0ZGF0ZTptb2RpZnkAMjAxNi0wOS0yM1QxNzo1ODoxMCswMDowMBQ0Dx0AAAAASUVORK5CYII=;fontColor=default;imageBackground=default;" vertex="1" parent="1">
          <mxGeometry x="330" y="300" width="331" height="142.33" as="geometry" />
        </mxCell>
        <mxCell id="c7Pq1dkR-VcAxKLpXhSD-19" value="&lt;p style=&quot;line-height: 120%;&quot;&gt;&lt;font style=&quot;font-size: 26px;&quot;&gt;EOD Stock API&lt;/font&gt;&lt;/p&gt;" style="text;html=1;align=center;verticalAlign=middle;resizable=0;points=[];autosize=1;strokeColor=none;fillColor=none;" vertex="1" parent="1">
          <mxGeometry x="175" y="400" width="200" height="60" as="geometry" />
        </mxCell>
        <mxCell id="c7Pq1dkR-VcAxKLpXhSD-22" style="edgeStyle=orthogonalEdgeStyle;rounded=0;orthogonalLoop=1;jettySize=auto;html=1;" edge="1" parent="1" source="c7Pq1dkR-VcAxKLpXhSD-21">
          <mxGeometry relative="1" as="geometry">
            <mxPoint x="334" y="260" as="targetPoint" />
            <Array as="points">
              <mxPoint x="334" y="260" />
            </Array>
          </mxGeometry>
        </mxCell>
        <mxCell id="c7Pq1dkR-VcAxKLpXhSD-21" value="" style="shape=image;verticalLabelPosition=bottom;labelBackgroundColor=default;verticalAlign=top;aspect=fixed;imageAspect=0;image=data:image/jpeg,/9j/4AAQSkZJRgABAQAAAQABAAD/2wCEAAkGBxISEhUTExMVFhUVFxUWFRIWGBcYFRcVGBUXGBUXFRUYHSggGBolHRUVITEhJSkrLi4uFx8zODMtNygtLisBCgoKDg0OGhAQGi0lICUzLTcuLTUwLS0tKzIwLzY1LS0rLS4rNS0tLS0tLSstLS0tKy0tLS0tLS0rLS0tLS0tLf/AABEIAKQBNAMBIgACEQEDEQH/xAAcAAACAgMBAQAAAAAAAAAAAAAAAQIDBAUGBwj/xABGEAABAwMCAggCBgYIBQUAAAABAAIRAyExBBJBUQUGEyJhcYGhBzIUQpGxwdEVUnKSstIzQ1NiorPh8CNEVGPDFiQlNML/xAAbAQEAAgMBAQAAAAAAAAAAAAAAAQIDBAUGB//EAC8RAQACAgECAgcIAwAAAAAAAAABAgMRBBIhBTIVMUFRgaHRExQiYXGRsfAjQlL/2gAMAwEAAhEDEQA/APbXvBBuqqQgybIbSIM8lJ7g4QMoCuZxfyToWzbzUaY25RUG7CBVWkmRdWseIFwoseGiDlVupE353QJjSCLK6sQRAuh1UEQOKrYwtMnCB0LTNvNFYSbX8k6nexwRTO2xQSpOAEGypcwybcVJ7C4yMKxtUARysgb3gggEKqiIMmyTaRFzwVj3BwgIFXvEX8k6JgXt5qLBtyio3dcIK9S4CXEw0CS44AAuSVyXSfxEoMltFjqpizj3WT96PibrCzTU6QJBe87hza0TBPm5p9FgdSOqNCvQ7asC7cSGtDi0AC02uStnHjpFOu7WyZLzfoowKvxE1EgtpU2+e535Kp3xE1hy2jH7Lv5lrOuPQzdJqTTYSWFoe2cgGRBPG4K0a264scxExDUtlyRMxMu10vxJrtndRpu8i5v5rpehuu1DUuDCDTqGwDsOPJrvzXkhRKrfjUmO0aXryLx630PScAADZUlhnHFaLqVrn6nSMe67hLC4m7i20n0hdGKoiPRc60anUuhWdxs6jgQYKqoiDJshtMgyeCnUcHCAoSVe8RfyTomBe1+KjT7ueKKjd1x5II1WkkkXVweIiRhRa8NEHKr7IzPqgKbSCCQrKxkWuh1QEQMlRpt2mSgdC0zbzUawk2v5KVTvY4Ipu22PmglTcAACVTsM44qT2EmRgqfaDHogdRwIIBVdEQb2QymQZPBTqO3WCCztBzCFj9iUIJmtNudkhT23TNEC/K6QfusgZO+2IQDstmUOGy44oaN9zwQI0910+2i0YskX7bKQog353QRFGLzhMv3WSFUm3OybmbbhAgNmbygjffCbTvzwQTssEAKm2yXYzec3TFPddLtiLcrIGas2jKQZtumaQF+SQfusgHHfi0Jh2y2eK03TfWXT6M7XOLnn+raJdHM8B6lc5U+I7D/y7v3x/KstcOS0biGK2alZ1Mo/Fa4055mr91MLmegeteo0jSyntcwmdrwSAeJEEFdBq+vVCqAKmj3hsxueDE5+r4BYf/qnRf8AQD94fyrcpFop0Wpv9mneazfrrbTlulOkamoqOq1XS532AcABwCxF2p62aL/oG/vD8lousXSdGuWGjQFHaHboIO6YjAGIP2rLW0+rp0xWrHr6ttMUkykskqvWvhjVjRY/rKn4Lq+xm/quO+Hbg3o8vzFR9scWjK3/AOmjjYP3v9FwOXy8OHLNcltS7HHxXvjiaw2Zq7rc0gzbdYmk1jHcw7MHj5HissO3WU4stMteqk7ha1ZrOpM9/wAIQHbLZ4oPcxxQ1u+58lkVI091+al2vD0UTU225KXYjPqgiKW2/JMv3WxxSFXdbmmW7bjyQIdzxn8EFu++OCbe/ngkXbLDzQMVdtuSXY8fVMU91+aXbHHogZqbrc0g3ZfPBM0tt+SQdusfNA/pHgmj6OOZQgrbUJMHirKjA0SMqT2iDYKmiSTe/mglSO7KKh24UqwjFvJKhfN/NA2MDhJyq3VCDA4IqkgwLeSuY0QLDCBOpgCRwVbHFxg4UWOMjKurAAWt5II1RtxxRSG7KVC+b+aK1sW8kCe8tMDCsbSBE87opAEX91S5xk3OUDbUJMHitf1p6RGk0z6rfns1k3G44/E+i2z2iDAC4D4n6k7KNOclziPIAD8Vlw067xDFmt00mXAVqrnOLnElziSXHJJySqypKJXZcclFSUVCSKSZSVVoIpJlDWkkAAkmwAyScABRKz03qI8/o4j/ALj/AL2rPlLobQfRtHTou+d0veORJx9yZXz7x3JW/LnXsh6nw+s1wxsAnK6PT1AabXjJXOLc9COlscAT+ajwXLMZpp7Jj+E8ym6xb3M+l3s8EVDtMBOvaIt5J0BIve/Feoc0MYCJOVWahmOGEVXEExjwVwaIwMIE+mAJGQoU3bjBUabjImVZWEC1vJBGr3ccU6bdwkpULzN8ZRWMG1vJAnvIMDCs7IRPqim0EXH2qncZycoGyoSYOCrKjdokKVRoAsAqqJk3v5oI9s7mhZOwcghBjMYQQYV1VwIgXSdVBEc1FjC0ycICjbNkVhOLpvO7CGHblBKk4AQbKlzDJspPYXGRhTbVAtysgk94IIBVVJsGTZDaRFzwU3vDhAQKsZxdFExmyTO7nih43XCCNVpJkXCua8QBPBRY8NEHKgaRN+d0CY0giQvPfiqZq0f2HfxBejOqgiBxXA/FHSENo1I4uaT9hH4rY4s6yw1+VG8UvPkimkV1nKX9H6GpXqCnTbuceHIcSTwC7XTdQaTR/wAes4u5UoAHq4En7As3qR0cKOlFYjv1jYxcNHygeFifVbYrzXivjNuPf7PHHd2eFwK3r13aJ3UrQ/2mo/w/yKLepeh4v1H+H+Vb4qJXF9P8v8vn9XQ9HYPc0b+peh4VNR/h/lW16J6M0ml71GlNThUfcjynHpCuKiseTxzl3r07iP7+q9OBhrO9JVahcSSZJVRUlErjWmZnct6I12BWz6GFnDxC1i3HQjIaXHBMfct/wmJnlV+P8MHLn/FLYUbTNkqwkyLqVTvY4IY7bY+a9e5KVJwAg2KpLDMxxUnUy4yMFT7URHoglUeCIBVVEQZNkNpkXPBSe7dYICteIunRMC9kqfdzxSeN1x5II1GkmQrt4iJ4KLagaIOQodkc+qBU2kEE4VlYyIF0OqAiBxUWN23KCvszyQr+3CEEOxi84unv3WwkKpNudk3U9twgANl8oI33xCGnfY+yTjssOPNAw/bbKXYzec3TazdcqJrEWtayCRqzaM2QGbb5TNIC/JRa/dYoGTv8IQDstlDhsxx5oaN9z7IEae6/NPtotGLJGptsFIUgb87oEKMXnC0vXDQnU6V7GiXth7BzLcjzIn1hbkVSbWum5m24U1tNZiYRasWiYl4CkvU+m+pNLUvdUpu7J5uQBLCeccD5LR1PhxVH9fT/AHXLq15WOY7y5duLkidadL0O7/2OmH/bYf8AD/qplXUdCaOmo0yZLGtYSMGBEj7FSV4Lxid8qz0nDjWKIIqKkVbptMX4IHmubjxWyW6ax3bM2isbljlIrOqdGkfXakzown67fdbHo/kf8/OPqr9vj97AUStg7ox36zfdT/Qz87m+6ejeTP8Ap84+qfvOP3tYuj0lOGBnEZKxNFoA10kyeHIfmti5m24912vC+DbBE3yeuflDT5OeL6ivqHyeMpFu++OCbe/nhySc7ZYed112oYqbbckdjxnxQKe654qPbHFuSCRq7rc0Bm2+UzSDb8lFrt1igZ7/AIQgO2WzxQ7uY480NbvufKyBdluvzT7bhHgkahbYcFLshn1QIUtt+SC7dbHFJtUuseKbm7bjyugX0fxQl9IPghBY6mAJHBV03Fxg4UWEyMq6qBFs+CCNUbcWRSG7N0qFzf3RXtj2QJ7y0wMKxtMESRlFICL+6peTJygbahJgnKsqNDRIypPAg4VVKZv7oHS72boqnbiyde2PZFC4v7oHTYCJOVWahBibCyKpM2x4K5gEDGECdTAEjgq6bi4wcKLCZEyrqwtb2QRqjbiyKQ3CTdKheZ90V7G3sgw+lcAcAfwWsK2uvpEsBGQZPOFql5fxasxyN++IdHjT+AioqSiVy2ylSpFxhokqVfTuZ8wyr+i9Q1jjuwREq7pfVtcA1pm8k8FvVwYZ405Jt+L3MM3vGTpiOy/odgNO/wCsfwWQahmJssXQsc1oBkZMLYACOGF6Xh1muCkT69Q5+WYm86J9MASMqum4uMG4UaZMiZVtYWt7LZYyq93FpRSbuEm6VC8z7pVrG3sgHvIMDCsFMRMXyikBF/dUkmeOUDY8kwcFWVG7RIspVAItCqo3N/dBKl3s3hKodpgWTr2iPZOgLX90DYwEScqrtDMTbCKhMmJ9FdAjhhAn0wBIyoU3bjBuoUyZEyra1hb2QS7FvL70LH3HmUkGS94IIBVVJpBk2CBSIvyU3vDhAQKsd2LoonbmyTBtyh43YQKq0kyLq1tQAAEqLHhogqBpE353QRYwggkK2q4EQLodVBtzUWsLblAUe7myKw3Yum87scEMO2xQSpuAEGxVLmGZhTcwuuFIVQLcrIJPeCIBVVJsGTZDaRFzwU3v3WCBVjuxdFEwL2SYNueKHjdcIFUaSZFwsWvoGnB2nlwWa14aIOVA0ibrFlwY8sdN42tW9qzuJampoag+rPl/qoDRPP1fcfmt4+qCIC474fdNVtQ7UOrOkNLA0AABs75jzgLQnwXBbcxM/wB+DN98vExDbs6Pecw3z/CFlUejQL/N932LPf3scEMdtsfNZcPhuDFO4jc/mi/IvbttKm8AQTdUlhmYUnUy4yMFTFUY9FvsBveCIBVdIQZNghtMi54KT3brBAVu9EXTonaINkmd3PFJ7d1x5II1GkmQJVwqCIm6i2oGiDwUOyOfVAmMIMkKyq4EQLodUBsOKixu25QFHuzNkqw3GRdSf3scEMdtsfNBKm8AQTdU7DMxxUnUy4yOKn2ox6IHUeCIBuq6QgybIbTLbngpPdusEFnat5oVHYHwQgn202jNktm2+VI0QL3tdRa/dY+yAnfbEJzstmUOGzHHmho33PDkgWzdfCfbRaMWSc/bYKQog3ve6CPYxecXTL91sKIqk2tdSczbce6AjZ4ylG++ITad+eHJJx2WHugfabbZhVVi1o3Pe1oN+8QB9pWJ09qjS01Ws2NzGEgHE4XF9Vuhma9h1GrfUquL3MDC8hgAAIgNg8Tgx4K8V3G5Um2p1DvqHSFOr3WPY4/3XAx9iu2bb5XB9auqdPR0vpWjLqb6JDnDc5wIkCb8pxiJXQ9DdNDVaM1XW7j98TZzQd0fek17bgi3fUtyKgqEgES3ImSJ5jgnu2Wzx5LhfhVUPZVzkl7c3+qV2WvG6jUJ4Mfj9kqLV1Ok1tuNr2gP7wIg8r+64PpDUn9N0AXEtaLCe6P+DUkgYCl8K6pOmrA3BqR9tNuFptV1epN6Up6UF/ZuAJlx3f0b3EB2fqrJWsRaYljtaZiJh6k1ojcCCPD81wXwpE/Sh/epn/MXX9DdH09PT7KnO0knvEuMkXufJeb9SujK1c12srupUtze12We759oBi31vtwVFYjpsm094erh4ZxBngpbd98cFwfT/UukzTvqUX1WvpNL7vLt0XIjgeULcdQ+ln1tKC8y5pLS48YwfsVZr23C0W76l0T9QKY7xAAy4kAe6x6OqovPdq03HO0OaT9gK4GmH9L617XPLdNSmzLbgDAvxLomeA+1bPpfqLp+zcdMHU6rZLSHvIcRwO4mPSFPREdplHXM94h2nbbrRlG3Zdcp1A6bdXpvZVM1aJyfrNOCfEEEH0Wse+pr+kqulq1Xto0g4inTO0O2lnzZmd2fshR0TuYn2J6+0TDtH9J0HGDWpgjhvb+ayg/bbM3lcp0l8P8ARlhFNrmPPyv3udB8Q4wQsD4Xamo4VqNRxIpkbQT8pkhwE8JTpjW4k6p3qYd12e6+JT7bhHgk6oW2HBSFIZvzVF0ey23nCZfuthIVS6x4pubtuPdAfJ4z+CW3ffHBNvfzw5JOdtsPO6B9rttGEux4z4qTaYdc8VDtji3JBLtd1oyjbsvngmaQbccFFrt1j52QP6R4IT+jjxTQVNqEmCcqyo0ASMqT4gxCqpTN/dA6R3ZuiqduLJ1/D2RQ8fdA6bARJyq3VCDAOEVZm3srmRAxhAnUwBIGFXTcSYNwosmRlXVoi3sgjVG3FkUhuzdKhxn3RXzb2Qabrk6NHqAMbPxC1vwuYDojP9q/7mradbf/AKNec7D55C4nqV1nZpaPZ1WVAw1HFtUAlhJDZafERNuay1iZpLFadXh2vWusfoWok/1VQfa0gLlupBf+jdXmAKuzl/RXj1R1y60U9XTGl0gdUNRzdzg0iQ0hwa0G+QJPILqOqvQ/0fTNouyQ4v5bnZA+5PLTuea/Zz/wlaDSrz+uz+ErsOlu7SqAW7jvuK826vdJu6Lr1aGoa7YT8zRmPleL3aR428wuj6R67UXU3soMqV3uaflaYAIgkyJt5Kb1mbbhFLRFdSx/hHTB09af7Uf5bVja8n9O0vAe3Y1Fb8Kp7CtH9qP4GqvrSHaXpKhrHtJpQ1pIvB2OY6fHvT4wpnzyiPJV6DUpgAkDgvP/AIUCTqh/ep/+Rdj0X0jT1DN9J+9kkTBFwLi48QuO+Fv/ADX7VL/yqlfLPwXnzR8XZdPw3T1Y/UfP2Lm/ha2dG/nvdE+S6Dpon6NXtJ7N8A/slc58Mgforv2ykeSSfPDB+Ez4pVue5n2bV6K2mIlecMa/orWOqOYTpa2S0TsJMgeBBm3EeS2vSnXnThhGnc6rUdIY1rXWPCZAnyEqbxNp3CKTFY1LS/D8H9IaiPl21AeX9I2PX8isroEx01qo/VqfxUluuo/QTtNRe+rHbVjucLS0fVbbjdxMc/BabqyP/mdVP6lT+KkrTMTNv0ViJiKu9pd7N4Xn/wAOnRqNXH6x/wAwr0Gvwj2XnPwjHerz+q371Svlle3mh6QxgIk5VRqGYm2EVJkxPorhEcMLGyE9gAkZVdI7jBulTmRMqyti3sgVXu4tKdIbhJulQ4z7qNbNvZAnvIMA2VvZiJjxRTiLqm88coGx5Jgmysqt2iRZSqRFoVVHN/dBHtXc/uQsmB4IQY7aZBkhW1HAiBdI1Qbc1FrC25QFIbc2RVG7F03nfjhzQw7LH2QOm4AQcqp1MkzCm5hdcKQrAWvayBveCCAVXTaQZNkCkRfkpOfusEBV72LoonbmyTBszx5IcN1x7oNN1zE6PUEY2G/qFq/hiGnQua4Ag1akgiQRDchdH0ppG1aL6DiRvaWlwvE3la/qt0A7SUTTLw/vucHCR3SBEjgbK8THRpSYnq22el0TKfyU2sGTta1v2wsmq4EQEGqDYTdRazbcqi6t2nY4RUY1w5OAcJ8isDp6vSoaao4BrWNY4AABokgwAOclZPS1OrVpObQf2dT6ryAQPSCuaHUx1RzXa3VVK0X7MWZPGOQ8gFauvbKlt+yEvhZQ7PSFxP8ASVHOFuAAb/8AmfVdU+lM2kH7CEqOla1obTAawABrRYAC0AK4VQLeiWnc7TWNRpCnTptaW02taD9VoAEnwCKTdpk2QKRF+Sk5+6wVVhV72LopHaINkmdzPHkh43XHldBGtT3TaQbXwRxsVXptDQpmWUqbHYJaxrT43AV7agbY5CiaRz6oExhBkiysqEEQLlDqoNhxUWM23KApDbmyVRsm11J5344c0MdtsfOyCVN4Ag5VJpmZhSdTLjIwVMVhi/JA3vBEDKrpNgybIbTIueCk526wQFbvRF4TpHaINkmdzPHkk5u648roI1GEmQLK7eIiVFtQNseCh2Rz6oExhBkiysqncIF0Oqh1hxUWt23PlZBX2R5IV/0geKEFFPI81kaj5UkIIabJRqchCEFlD5VjVMnzKEIMupg+Sx9PlCEE9TwT02D5oQgqr/MVkswPIIQgxaWQr9RhCEENNxS1OfRCEFtD5R/visd2T5/ikhBlVcFUafKEIJ6ngnpseqaEFNf5j/vgsluPRCEGLSyFfqMIQghpePolqc+iEILaHyhY5z6/ikhBlVsFU6fPohCCWq4eqlpseqEIKa3zFZPD0QhBjUchXanHqhCDGQhCD//Z;" vertex="1" parent="1">
          <mxGeometry x="180" y="-40" width="308" height="164" as="geometry" />
        </mxCell>
        <mxCell id="c7Pq1dkR-VcAxKLpXhSD-23" style="edgeStyle=orthogonalEdgeStyle;rounded=0;orthogonalLoop=1;jettySize=auto;html=1;exitX=0.5;exitY=1;exitDx=0;exitDy=0;" edge="1" parent="1" source="c7Pq1dkR-VcAxKLpXhSD-4" target="c7Pq1dkR-VcAxKLpXhSD-4">
          <mxGeometry relative="1" as="geometry" />
        </mxCell>
        <mxCell id="c7Pq1dkR-VcAxKLpXhSD-24" value="" style="shape=image;verticalLabelPosition=bottom;verticalAlign=top;aspect=fixed;imageAspect=0;image=data:image/png,iVBORw0KGgoAAAANSUhEUgAAANcAAADqCAMAAAAGRyD0AAAAh1BMVEX////u7u4AAADt7e329vb7+/vy8vL8/Pzx8fH4+PhiYmLExMS/v7/i4uKBgYHq6upvb29WVlYlJSWurq7KysqJiYnc3NwaGhotLS3U1NRnZ2eGhoZdXV0yMjKRkZGvr692dnalpaUNDQ09PT2YmJhNTU2dnZ1PT08LCwtEREQiIiIWFhY+Pj6kR5xJAAAUIUlEQVR4nO2d+0OzLhfAcYLA0rnVstzarfbUquf///teb3AOguaWT+n3HT8VOyofQTgXLoSoFHhl8qnK4b7KahEithBVWYEtxLsIMZUjVZbQQl6zkKeFBPx55bpyXbmuXFeu/zqXXyXEpVKLELGFqMoJbCFuCQlbCBX5HCGAyV5yUCUhWZm4VFkBV1mWEGsRCkBItAjxupDQQlQJUZXFtBDrJtRSr36XyjdeUpUlVQ5ztJBmIdwqunwSlpDxSbS01zMbtRZq5WoWavuKHVzUEjK+4ivXlevKdeU6l6vTYOh1GwyrhIpsjdnCEuo0+p+vIlCVpE521iVCFOV8705fCDmvI72+pKqF+B6Vmd6idaZWPcqhbPXQdBBXl0bdSe/NXlZ8WK9n6/VrXBcasz6fzCeQ9ul/hCuePU+MtIr/C1w3DxMrhdC9j5XrYFNlaRYE4+a6c2JlXxkTv8bVg9Gza8CaTI6lnM3ld+HqZAoaqg/hKlFRJapymMoRnYQYWTZiZd+YLIWa78T1naTKkSonOE8oEI4R81KngiAvLVy3lZC67l/rUS31emblM/xxfey3r9v9I8o5lFzqTuPR5+UTQKxLRSO+h6wXb6RcCTDsqiIL3JOEI+Xa17FyO4WEOnc+Uq6FAviLiwzZGz5KLvGhAG5wkanu/B+8UXLFiusxMoocqU7xIf5Jrt7GL821UUZX6Qeg71X+KbdYWsYvfVmPJi75rh7li0gp8ht9WaEiyT+6fQb+v9SjvmUvN+qHwPUYq8ZWFDneVPmfUTBCfV74ut8I1SdTFDk9Ka6Md3xcHn9TXO/q4UWR9bD2yMbI5RPwaoRVZl7kVOdOs1zH9yXqdxoWl0cjrDLlca68S1h+Qqa0uTK7hVh3GhaXR5HeexSESUboQX90WXfimXalHzAa3W3zFHpysFy+YS1/bA+7w3GDco7c5BIkftWf5OTPgUIsc2hxc4xRTycqjNGf+GtT4HntS69p9L88bh7YIXGqcliLUABC7KaFa0cKIRXtJje2cf2YljKMWiVwPM4WYkio17h5oztqMrlXLcQvL3JLblWr6PJJtLuQWtrr+fEvOXcWN7O91MNLVYRsG+SOZZG7fOo/GdcLGsDe9XWiKFvolMrTbpBcnnC6EO+0TMEl2/xxySC5sn+jp1pJ/6QE7pRzsT9OojJN+TC5ssekM1TO1ZJL7GTM7mH0GU/b7f0CZ4TD5MoSJzyp1KelZNQQyupLomFulhuTnEUrVL2DjpuXxv+Dso+By6fIH3cg5ehP+avOy8zq4cbNNZctRKCV3hF9HTki2E7x9t+Im/uaqy6UtRDd5t6oh1qF7kw2fKBx88wEsbig5Wv/1GRX2NXKroQxjQ9Mn+/GBYamLJQPxQXmG0GusTFylWVUXJ5WhLX/8T/BJZSfcbIcKpfk5PZsLmiHbKDtkOy2T6Vz7TTd7iwu7fFYUsyFeAcXNy/Kh2J5RVqnBpfUWtOeeR74e6cq+/n7/SGKm5PADol7VY7XEjfnWChrTfvniZXmiQp3e1kbgzjZMs8OiiKgbv6eOELiqpykJW4ukFCPcfPcwN45qPL0qisc6/ufEalGf5LANJ2bgcXNPSqazOVMt6iaW3w0spcy72YYRVbbRgxMn6de2zyHTXHpri6y2IZpuMUG2f3Q7JS4DWsyeRFkWTc5HemWDoyLv39R4pf9FwJFymcNDIqrycV0XlqRgXE1u5hcpV80/SAHxiXMVrjZ76IoCvdOz/bjjsRT1w+TRdlrDihubsynfFCONc52j1bhj4JnSsbays9+qczcfuPmqgLgZl7jS6oJCWk0JiFLITNeWaa5utlNvS2+p6pdwNtTj7ObjidbhM7Xe536oS+xN3TGqlhkpfrhmnnRNgiVMsQDw98bqgo4nPgXQ4rGwgodox9X+rJMSJLkbjb7s3m7394lZIhxvRi9+Mji8k/wq558kgn5XiDzFZcS3WlQXBJsp1wNskL9qFMJEVd5p+HOB/A56hsSB1cM3f28zjXgeQ4+2ISThXQUmYOb+mlUXFDuvbPIYJy8/zzXxYOhJ0HZOBDXEij4wB5Vx3HpevOu/l7l0s66ptLJzWSg8qqczO5rFWISBqJD3r/VhAIUVXiMG+8U2I+jtpC+rl2oY9zcbxQqXhLYVffMt6ZM+hLqayPKe41jvTn0G1PmKDLqL99ZdadRzIOFfuNdOIocgJ2/UvMwR8GFjK9QWkXGcfIZHxMX0qP+Eq9eZPT5TdKqOMBF8okz+Uc3QC7U0LKe3uTyOarNh1jdqRJKwjylubUxQC6CvYKpvizn8jmal5g1QwrtUCb7x9JZf9rMUwo1OJy4OVJ8Jyc0fz77OcK+gM9VXIXSZd2wXOjlBAOKmxNjqslBEF4KMWb5c7Y+z0fz2PYlLiLSJST+k3Fzak4Nejn4+a4zkoaOqTWbMKv11LFsdvK4JL3pUVDkLo26Kf7lk1mtjG+z/cztdMp+S5tmSN0UboWB6PN5CuhtQ1HPSzf55OYBcfn2h3RR2vjBoLiym7qXZEM6OroKO+25PyyuprmtKm0ZNT1rVQW9LRZ/cUZCh8Xlm6OzhZVP7WX01cy93eV2ZhCi3nFBhrfePP07cadNubQj64r9PayAmOwz9akwqhlYMg+J+Cf15fBj45hks1Du4Kf17r5MU49Xa6cYDijN8oeWzgIEdmBtfmy1BusrP7Yee3uIm+eXJHaMebqE1QACrc95LF5OOfoHVKtb06HFzcuKZPHxCYIoD4tjxCVuIaAvlivQS2PGRz6QAenzSCj3QkVpud7mM01Y4VEDLgEqMkVcXpAMnMsz58GWbhonF8FcHjiFA7vIQ+NidSHEdTK5fD22JePmqteXVjD58NthK1eCueiovi+by/O103uLuLChM6S4OXHPn2debdTB41cZ5CuHJhk9q9z7fx03Vy/7DH1DCdXnwWohhp2N7x5V+gaFJYk7aesbEHTpqm8g/g6V32FeZbF0suL6sIQyeKoJJi+UBMWdfPDhPETe0PR5ldKj8gC8bVOLy3AZ7JeJly7xXIh93/p8X1yRqSFO0zpXcsK/f7w8G/JJMEwuW6Pfs9q+c6122tDs5VIocq1Z2yy18lhwySZHVdZwybD8UZVQ7F7C/LxUYZSy06QfTrHMdEnosPxRpVDc6GxLlTlSPdg9CfM2Yf37D78/GNKmaYWTyV9fGKO/cIk+xbRh9L88bt7DurbWKaN7Ylwmg1dLJLMz+/PP55wufs/xkozKry5DukhklHLzuDH683Imm6guy5Qttsdf2cO91SqMT8Kva2RBVUq76fS83hz38J+vSRzHCdqmopixUttnKQ7nm83H6WPzuD/EHHSlYenzoLlOntSlFPXokcVVFiYt1sQKv613+k0u8GNPqyuZHwSgfGzdXFxkeb7f3uv+Jhd439WTWNb4YYbsws015PkAxaP1kHxERfa5niL7QEfJpfcxg8B5XmSRqLH6Z/dnay7yGfOjDC68P1smoZetFKuifuw8jnxCWDUHTO+5Ug5uaIOV7O+gLlRmaCEeKa4X3xCC/bJCUtypuJV1J2ps8VI8nuJ9YKpy1oSKgtlCYHF/W48S0aeuL6XrFCOSVgWfk6CH825+er057Dv3mSqpgiv50O1wlPvOQUBkqx5eFFlHMce57xyevOxVhS6KrLWQP8QbIZcnkf9MFKUuvi8YrbfOfecGzyUiUN//RCQQnpAkQPphHk4YIZdvLLA5Jpzw6IBWSc3z2w2Wq20wxKtUJpPTo2F+ldGfX+TyuigvLiFObBMYVRfxTC51J5url/VfejDsIe4QNG8M9V7dbIT7tGc6n9+0U+Cn0oUHoPeeH//yZdLApZfpjZIr+zJ8l//sBab8jpTLl4Htn5/DZWPlyo22pbkCdpVvDjt6Li8fAoLX1eb2c/J5e7u6j7n0jJFltFxFkaMkWaZRxFk5kv88V5/jlzU06Szg+qnxC52lctG5MLyTkNoEx3EujD7NBbau0UL2kS+d9rfJz4VB/B0qv1vcXAl1Oc/3n6zz9XrV5+tFHsg5xVeuK9eV68p1LlcPg6EqcpX+xfnmvxA371/oe3Hz3l5SlQZx7m1Le/2O3ltxOVp+o9Ao9Pn/Oy7fE8U67N/hqjaJ7J8rvzTwYoHWm3vix7j8NClSSvvlisL5bR5uPvJcqHpIkgQ/xEXDyUOebtXRa/1wJXMVQt+xXGjy8JGlh+c38VNc+sCQ5VdcRj/fzoVmid6VXFVaWPXVgynoOhpFIq4zzk9pE+LGPm07HkgOXPTLo1HOPz8F8cM4p7lCdtZgWLUQlQMdTyyNZcBh3ow011TW7tSmIrQIfR03B66iAXxf7/WEsV/gzs3V/BX3pM/3zoU33HtcPDXU1/i4UFD9UG5j8d/gCnQASZ2x+t/gitTItVF54+Dyu3LpjR1/mYvVuKoe1eASUnKOplo5+nnNBfsENnDVunCTizOSDWWFAnCRH6Bx/NKywJWv6Fqv90/79boK36EdeDT8Yxcu41WURa7eI813DJ+tV6v17JCxeRheG7TG+KXHORR3sPSogm07m83ui2P+ZlI90ePeDp3BM5kvuYh5WIptZ2FWdfKQX6cmu73kd9ln+YYeVdyrmLaYzLLr1pnMbJ6iVrHEc0P+7IoXMZ+V6QBv7wt72aUf4gOwlqryKTvUI+WrgMIM5kNmv/PVxEqN+mECw/eWai7PsSUuXL4GLsXSWe/1SQizTEJScvn2mVhZekhhCttdzuXYlH7XwEVh2cqR6N7JtazqAJfff4ML7/KSkorLeYbZZHJaauEmrob6Qie/r3KPQcEVuHdZ2ffBxWD+wilUX3QDVqYoXcbloQlW8+IsnJyrcfMY/ZBvcCWwHiNUQi0b9TyrNnsOl0CWzFs56uRczUuUvs/FYFsatf9uZhB9Op9ilr+B68BtLg6rkRYsUEOpe5+Snrjw3EglxIxu7jTd3h3n1q48GZdHk5vlMlT93GKZpZsoqHP5aBnIHxqoMplt4mV/fJ1NzWlyTVxfj18MlkzrlQzE+Limaj6N3Jndfl5fmT4iAjQu574uz6+NXx7aTHChVQRPIqvt9qBGs9qWLIgLjV+uaDfWDwNkYuyJjlHDrPh8Q5oim+XnCsXGpJSwuj3Wo9TjAqRv4FOLXuJAhcTxzk2rKFejWB6mp2yH62ymQvc6uN4YN0d6FINJhTMthGo0r1NfDat5wov29G7YX+mHif5YN5GETwJqf6ayykfh/d1mWkEkIIS4PBcXemUzBkKom1KHY2slEtVYRy4e6/d/SiWofjC6wP7ungU20/sYaKEv9Xm08R0+KQOdD7DSS5PVjdBa325cK1gd+3yD1y/rzvCUmFwZAnxjl3BBo5pSJERhKm9E61yoS+nGNa+djK64YHmt7oY1V6CXjVzEpZN5UobUKtvc4bGEyuzGBemG4yEHKj4Gs0g/TVfmTF7OdRsbQlxrPK+u/Rz0ez6Ta1f1QBWX3h/hndj2Mjgkv8O1NIR8rl8Wd3Hpk83O49pXhVZc+tteObiEvvyrduiyl1XamCebMM3l3HwFdadn1VfIDVeurpEDt6O9cPlMW9VIyBk356pgMPytiERC0LiJI/7N9YveVbeXMegbENq2uCYJR3cCrpQ74ubIruwaN0d6lH7kkWAh/X0RR3CdG3ZK8SYRVyWE9CjoD98pahWw4jR0xc1d9ldnP0CitdHnfEcGm4tZPVXWBvTIfFf1lgJzlUKIawoL8MsOPaj3DK44ke51L9PnQW1ngYPrFcVT9eerd3fsxrXg8D2j882D5FlVo4tL63eXccEpbHMJQroa57C1obpTIHQpO3JR0B5OnuZCOwrGdq8L7qAL7S9Q0u5gpyAouqXh+Ejz7cgVCKrf3htooYG2GQ6O3YH0Qy61K6GYN+Dx1Hn6QBR1J3wedlcujxrFrLgY+DtsbW2FL7iIC0ytDXxMWKUzuARDjpbOXB7arnKptTWkdLPaZAhkSF/sBwDjCMwFZCeo/dWL4IPpkejO5aFzVGNlUBn2F8VWHra/HFwE4uZC8mrhuBS1uDlS0O9IKcWxvbzjRW5+FxIZWyjtiChD24hLqMcZcXMBQ7eOowtu2stFXm6VM+NY0zVRcXOhWLrFzT0OhY2qYInhUXnSW+IfzGPnOtvLZtPSNYCj0hvth68dg+nWo4BLVaId/xJCd1f5vtylkOk8ma+Pr8e3SS2dxYVasH5Ppuv17/H1dWudgnmJ/aXieuBWmZFKyO/gPzyPS+hljB9VuSRrPnEWSnSBnaLjlXCo8oGX/UOjG3sC+vJ5XNLyZ0jhNa1sRFzfqC/sT45kFa9s3L8cKazncPmonyj9T1nXHDcdzwra47e44F2+e0EVwXHvOH8KL+Xy0PEXVdTGl5EbbN7ZrmznQt1VZtdWkanU9cwbUEnP5Qo83QE+CFJOGaTUdV7ulnyPC8XN0dQSpiKJ/LXuk8/3WNJeHTVZg+jNOdB8AKaknjSXz0Czz3OLAVrwtL4u+mXHA2Qvt3IJNH6li2mR3m6ojvwSb15mTp/e0byvwCCbFwrK3VMpuNDLe6Mq500PTdQPqoc83VejaGERbivJ6SLUcXPKlrhf3Bz8bFgl79XlW+oav1xxBzRJFZ5ohurxTDOebNd52iZBMcdB2lJwobKq8SPqW6/pi8FoJSx+Xa9ns/U6rN6CPemgwzxzVWT14FLENbMCXhKXtHDfnz0fWwUGtJBr3zlBM82LcV4XMqYMqpuPa565udnZwOaZf4PLFLpyXbmuXL/G5Ry//Fo/r4XGs06q43z0HxDibRPw+ZlCBPF3qPxfWm9uqQhOoX+y79xw141eua5cV64r17lcPQyGqshV6rTe3CHUx3rzH18J3uG6HoR6XUxWpUHoUS3tdcx67/8APR/bzjOvQcUAAAAASUVORK5CYII=;fontColor=default;labelBackgroundColor=default;" vertex="1" parent="1">
          <mxGeometry x="700" y="-80" width="215" height="234" as="geometry" />
        </mxCell>
        <mxCell id="c7Pq1dkR-VcAxKLpXhSD-25" style="edgeStyle=orthogonalEdgeStyle;rounded=0;orthogonalLoop=1;jettySize=auto;html=1;entryX=-0.06;entryY=0.524;entryDx=0;entryDy=0;entryPerimeter=0;" edge="1" parent="1" source="c7Pq1dkR-VcAxKLpXhSD-21" target="c7Pq1dkR-VcAxKLpXhSD-24">
          <mxGeometry relative="1" as="geometry" />
        </mxCell>
        <mxCell id="c7Pq1dkR-VcAxKLpXhSD-26" value="" style="shape=image;verticalLabelPosition=bottom;labelBackgroundColor=default;verticalAlign=top;aspect=fixed;imageAspect=0;image=data:image/png,iVBORw0KGgoAAAANSUhEUgAAARkAAAC0CAMAAACXO6ihAAAA8FBMVEX///9Sly9XmzJbnzRlqDpQlS5coDVKkCpipTj7/PpIjilRli5pqzwcHBzm8OBGjCjJyckhISEoKCirzJru7u5SUlIAAAD19fUuLi5HR0fj4+Obm5u9vb2fxYyx0p0tLS1dXV3U1NR2dnYWFhazs7OWvIfS5cd7tFZRmSb2+vSNjY1oaGg5OTl8tVdiqDF+s2BGjyAwgwCAgIBvqVBBkQpioz2pqak9PT1VVVXt9emhyItOmR3g7NrS4syUwHvC2bdhn0NtpVO82amOvXJPnBShw5SHtXJFkRl8rWe40K5moUtsola10aqXvImryKAgfAANoyNJAAAJ4ElEQVR4nO2cC3eiSBaAbzSmwzjYgBgeavtsUqKjLjQaAj6SdGJm2sn+/3+zVYUaQBJ7Z9w1p6a+030EhXOsry9VdW+VDcDhcDgcDofD4XA4HA6Hw+FwOBwOh8PhcDisUToqvVM353gInvse1+/yW5rr+1O353gI33K5fJqLDZdpzs/Pyd8tv57/mmT45dTtOR7ETC7LyptqYmL2YM7M0dSwZ+ZYahg0cyQ1LJo5jhomzRxFDZtmjqGGUTNHUMOqmb+vhlkzf1sNu2ZSiQLCxNQMh8MDahg286oGBd5oXr9fL6wti/tyfX7tBcO31bBsJrfRcjmfhb6wd3nPL82+/BZQOxlq2DJzllaDkFsO6Wd+KbTWt/P57ehhPp/X11ZYimxZt6NhlhrGzKTUBKOFjz8oLcq3rhcEpK9BUZeDguB8NF9bpDzlr6+H+2pYMxNXg9wFjgr/3vXyRMj+CIV7Ye+Byrn39tQwZ+YsJgbHi1UP0PuDd3B9j68Lr9Nq2DOzU+OG4M/zKD50Z89rhtcWwCz9QDFoZqMGraHkop+b8n0vA8xT3TCLZiI1yIL66mdnw9c9+JIaoZg0E6mxoPSM0M+oGV4ugJq5ZN7MWfQ0QW/hBgcfqGBYx1MeYT5MzoYZNYPVoEf6Xjh3yQQmn8tSg9ClO6fDNgjXqUSBVTNnOfQV/Bcyz+tZ6/qDe0Eneq/pZRDgZKoeTfVgNoPeeSq9ZNbMGXrqlZBbp7kBzpF8f7G+vR1FzG+/LGa+v1mfnT0MLfC/pzJvtswU4mrufN9F6JtXz8wnKT0/tG7Pg8vvPlhBqijBlpliXM2y1BvRrhh5d09fywsr9F+v9UvWolx/GHkI4W74Ox6aUKpew5iZuBoUCnO0zRS2BJ67yy1xt7PpiT080YtVsi7ZM1OIq1nN4HFrJl6vyRi8RwCjdAGUMTNxNas1rJNmsJoc8i721OTnILjp2jBrZmJq0C0scnu1rMfQGqXVoDJOsS5Tapgz86qmeAdW2gyq4+vCIKUmsGDmpdcU2DJTTKjJQclLVflwmokpX6CEGjSDxWUatswUEmq+gbBMVvlyaEEvDB+i6fA2e5rhHontmCkk1KxCuDtLqXFD3y+RGmj57rUA6pagjNJLdKyZiatZWfA0TqlB3sjz6uSZ8hejIJrQ5Ed4Cuyl1TBnJqYGD9vl8Vk6aoie/IMl0Dx8SRYu8084gfJHF0k17Jl5VTOuw3p1lqUmhzbrLf4a9zh4wBJ6IKyHCTUMmtmpGT9BuDrLVEMKEW69hG/qlepeGXx3BrBAlzE1w/Kp23M8tma2aorPQm9rZl8NWdcdLYgc6IE//H4PwjwfX1Fg0cxWzZ3fyxXfUUMDh6zW4S5nNhPoAHXBpJl/FZJqlqHwvDOTqYaW90Y9oDUsf5SPlc0RU2Y+JdQUczMhGrbfU5PPBz7c19eL9QjFVxQYM5NUgyc0jzEzb6lBAHM8tUHJ3yiwZiahZvU7LOJm3lDjAYwytgOwZiauZvwI1lnxoBoXwNtfh2IuZuJq8IRm5iVqw5mD9xyEjCU6Bs3E1LhC6Y/iITVYQZixesmimVc1SOj9KB5SgxZgZdSGmTSzU/PNh+dx4YCaIIR1RtmcTTNbNasZPI0LB9R4JXjcLuuyb2ajhtYhCgfUjHyY73ZmsW8mUkPrEIX31aAnofeUsZePWTNUDa1DFN9Xg16g5Gbsr2HXDFEz/gG9VNl8Tw1aQ+jl9tWwZeaXtJo/fFgVDqixYBZk7MpizExKzadlCHgS/K4aPDQtgowNa6yZSar5VLDg6+pdNegOoJy1l485M0k14xfoPS6xmyw1ZMsaeg4B3Fh6uVPDnpmkmuUMoLRejgnFRKJA9s8s62EPdjsmkmoYNJOKmujXKus/n57vlme5FQHlPPfH0yP9BEq77UdJNSyaSan5sY62tfb8UhjOKOH2x01g1ZexPTZxNUyaSXXD4/FdOfT9XnwbI/E0q7s5lLEri0Uzn7PVFMbjVe7u+evjy8uC8PLy59PdEq3Q/uIls2ay1ZBxiYTOeEV74SJ+xQdvlrJYNPPLO2oKm4XL4sFSFpNmDqs5kHm/qmHLzOcjqmHOzNHUMGbm8/GihkEzR1LDnJmjRQ2DZo6khk0zx1DDopnjRA1TZv49/osg/CdNwJKZr/8N9UNYp24Ph8PhcNhAMM1Tf4UPykSRJ6f+Dh8Sra0ozVN/iQ9Jq1HpK61Tf4uPSLUzmYjV6FhVcQy1JNLv4JeWFr1pSpJJDzV1A30fvx0JFVT8qdqSWNM76KjSoB81tl8xJ81Bw7Ch1pw2pn3SYrtiKIrRx83WnJsmpY0vVR1D16cOkdhq2qZdGeiGrZ20JUdG6uB29kWJnhjKwHCqjiLf6O2qPRAd0uy2PaneyAMBNLuPaU+VGxwwhty0q31RxsYkfaBUnGpb7zDVk9tilzxRDj0xZJsEQVNpkidjIjY10EyygmtOZexOI7SmCj50ZBJmmiP2BZAGgwmJubbsnLAhx8Y0DOxCFUV6Zog18lIVyfOCw6mpbq9ry9LmhhsFq9Q6Iu1VzOmghWOmYsZuY4SaSP+dmyRy3jLTapnqzkz/ivTWkqjQM7Uvdxk105dtCePIbfLQZJmpVQaDqTFQIjN2h15YEw16qrU7jJox5cYVoaNMydORYaamTKvdbrUSmZko0ShWE6f0fnbN4E7WbGHMPs0Q9s0I7Sh1iJ4mSZejHKvVEekIrTaVGpNmtJtIBUBXrghZZjSDBovWJ2ZapL+NmEbCagruwFk0Iw2MTZ6t0sEmI2b6siOAaZN+Ru0rbYmCg61j1DSQjI4NTJqxr3YzkCY5nF5FZq4iM1c3KkhTsYFTzv6VBKYuyiKmg/sYoaqLjYaskPslOfJbveqfpBX/A4Rad5frtLpYSq1rRse0uzW7OCygZfftmtrCn2jdDVSfhGfEjqTtrtvd9g/irWxI0974fxo5HA6Hw+H8vxFqtmNPaDlYlbYwVdH8i3SnoqIocqcCZJ4rRvBlBiyjoTdkAik4SAo+UHRdH3AzWrPR6LdU1ayRIl70NDV1pa0evJN1TEMXU/FRGygVLoaYUaqJdybKpqL3T6ff0HWn9qpCkpU+H5gINbmhK3rF3rhpTXW9UuX9L6FWEfFgpDSiZ0q6UpSG0qnysMGo3QoZqWVaqTId2zYUXamd+lt9EFr2VG80dxWqdkNhpqL5t7EV/XURtybrxim/zIdiQs1soqaqNHjMaJOu1MIz4IqukJWTqmSqZneg8z19oFbkqVExBnjkNnF2eTXAJ3ik4nM90No4hSS5dpvMYaSpiM/kgcPFkJ13Xcdx7Gi3nmbWbMeZmHw2w+FwOBwOh8PhcDgcDofD4XA4HA6Hw+FwOBzO+/wHOxqvVAL2+QMAAAAASUVORK5CYII=;clipPath=inset(13.33% 32.21% 12.78% 33.27%);" vertex="1" parent="1">
          <mxGeometry x="1060" y="-48" width="131.27819548872182" height="180" as="geometry" />
        </mxCell>
        <mxCell id="c7Pq1dkR-VcAxKLpXhSD-28" style="edgeStyle=orthogonalEdgeStyle;rounded=0;orthogonalLoop=1;jettySize=auto;html=1;exitX=1;exitY=0.5;exitDx=0;exitDy=0;entryX=0.006;entryY=0.467;entryDx=0;entryDy=0;entryPerimeter=0;" edge="1" parent="1" source="c7Pq1dkR-VcAxKLpXhSD-24" target="c7Pq1dkR-VcAxKLpXhSD-26">
          <mxGeometry relative="1" as="geometry" />
        </mxCell>
        <mxCell id="c7Pq1dkR-VcAxKLpXhSD-29" value="" style="shape=image;verticalLabelPosition=bottom;labelBackgroundColor=default;verticalAlign=top;aspect=fixed;imageAspect=0;image=data:image/png,iVBORw0KGgoAAAANSUhEUgAAAkoAAADTCAYAAAB+1Tw7AAAgAElEQVR42u2dB5gTZfv1H4p0WGBpS++9NxFEEFRQFEFQFBREEVFBpIhYUGygKPhSrKAoShMURFGKdAUFRGlL770uvZdvz+MX/mvIZu5nMkkm2fO7rrmWMplMJrMzZ+5y7lRXE1GEEEIIIeQ6UvMQEEIIIYRQKBFCCCGEUCgRQgghhFAoEUIIIYRQKBFCCCGEUCgRQgghhFAoEUIIIYRQKBFCCCGEUCgRQgghhEQXaZP+Zd+OU2r10oPqyIFzPDIkRRKbN4MqUzVWFSkVw4NBCCHkX6F0+fJVNXrQKjXtq408IoQkcueDJVTHPpVVhkxpeTAIISQFo1NvX3+wmiKJkCT8MmGLGjtsLQ8EIYSkdKGEdNv3ozbwSBDixQ9fbtTpaEIIISlYKK384wCPAiHJsOrPgzwIhBCSkoVSwqHzPAqEJMPRg2xsIISQFC2UeAgIIYQQQiiUCCGEEEIolAghhBBCnEBkEhNXOIsqXyOX8cZXLNqvEg77r/HAdrF9QkJN/F+H1b6d7GojhBASoFCCmOk+sJbxxl9uP99SKN3euphq3LIovwkSckYNXEn/MEIIIX5h6o0QQgghhEKJEEIIIYRCiRBCCCHEETjxkxBCIoBTp06pgwcP6uXAgQP6Z7p06VS2bNlU1qxZ9c/cuXOrYsWKpejjdOLECX18PAuOk+cYeY5T/vz5VVxcHE8qQqFESErnt99+U3PmzBGtW6JECfXwww8H9H7Hjh1TQ4cOFa3boEED1bBhw4De748//lAzZ840es0LL7ygMmTIEJLPeO+996qqVavaep+1a9fqz4YF3+OZM2dEr4MAqFWrll5uueUWvUQr+C6+//579d1336n4+HgtjM6ePSt6bd68eVXFihVVpUqVVP369dV9990XlH2cOnWq+uGHHyzXw3nSvXt3XrQolAghoeT9998XXaRB0aJFVY0aNVS5cuVsv1/q1KnV119/rbZs2WK5bvv27QMWSqNGjVKff/650WuqV6+u7rnnHtvvOXfuXNW/f3/RuqYi5fz58+q1117TN/9NmzbZ2r99+/apadOm6cVzA8axfuSRR1SuXLki/pw+ffr0NXEkPbd94Yk44UHif//7n8qXL59q166dXqpVq+bY/u7fv199+eWXlut17dqVFyyXwholQqKU+fPnG0Vbtm/frn755ZeA3hNpDelNZvXq1QG9FyIHS5cuNX7dX3/9FdD7rlq1SrQeInQQZVJGjhypihcvrt59913bIskX//zzj+rZs6dONw0bNiyiz+k33nhDn2MQfoGIpOQEzeDBg/V39txzz6lz5zjnkVAoERLVQCSZXuwhlC5evBjQ+0qFEgQH0kt2WbZsmS2xFSqhhOMQExNjuR6OASJPnTt3Vnv37g3a+YDvFamdJk2aBCxSQ828efN0KhHRtitXrgT9/ZBaLVOmjBo/fjwvJIRCiZBoBCmFGTNmGL/u119/DTiqJI2iXL58WSw6fGEnmgSWL1+u9uzZY+u1qBOSigzJcdi9e7dq1aqVWrRoUcjOjVmzZqkWLVqoHTt2RMS5jAhbo0aN9PcWSnbu3Knatm2rBg4cyAsKhRIhJNqASELKxe5rAwGRFKR5JAQS2UBEyQ5IsdiNKkHYbd682RGhdPLkSV1AvGHDhpCfH1u3blX333+/7qRzM0888YTq27dvWPfhpZdeUs888wwvKhRKhJBowrQTLCmIKK1bt87269FNZJJ+swNavu1GlEAgQklCoUKFLIUSRJJdsecEeO/HHnvMtefwXXfdpYv13cBHH32kXnnlFV5YKJQIIdEABEQgQsmJom4ToZSQkGDrM2I/7WI3jSONgOHzw9MoOaZMmaLTnOFm0qRJun3dbSCSFOg56DRvv/227rQjKQ/aAxASZUAkHT16NKBt4Cb17LPPqrRp7V0ipEJp165dWizBU8mEQCMxiCihPqhgwYJGr5NGlKyiScOHDzfe51tvvVWVLFlSFSlS5Npy5MgRnUrEgmP5xRdfGG+3X79+umbJLaBgO5BIEiKaderUUbGxsSpnzpxa3OJ7Rich0qaBFMxDwDVu3Fhlz56dFxoKJUJIJIK6l0BrjICnqNuu3xCEEm4mMASUiA9ToRRI2g2g2B1RJROhhOJeJ4QSOriwSOnUqZO+QdeuXdty3RdffFF3bI0YMUK8/TVr1qiffvpJ3X333WE/f3HuwgLAFDhuo6UfHX316tXzu+7hw4fVV199pcWqaUE7op+DBg1SAwYM4MUmBcHUGyFRBG40ixcvdmRbgaQ+MEZD2v1mWtCNqECgQgmY1ilBJEmEX548efx+dpglip5i06bVnxP+ShKRBBBxggAwjSz9+OOPYT93r169qv2eTIE4hIiFwLISSQCmm7169dKpW0SuEHkyAUIJpp6EQokQEoEEUpvkSygFUtQdrIJupN0CTS3aEUomtgAFChRI9v+ltVU9evTQ3kF26NixoxYDUjwu3uEEIsnkfIPAgas2ojt2U2GPP/64/uyZM2cWvwa2FnDyJikHUeot4fA5tXrpQeONnz5pbVy3Z9tJW9smJFB2bz0RVZ8HKYWxY8darpclSxb906o1HDd03IjsjjS5+eabtdOxFX/++aeO1Ehvdk5FzGbPnq2Pged4WCGNYlnNdpMKJdQOBQLG13zzzTc6zWgFapxgUwCTxXCAuiET8VG2bFn17bff6jltgVK3bl0tlu644w4tgiSgqBv+ToRC6RorFu3XSzCY/Nl6vRBCAmPChAkiJ24U7iKtI5k/9emnn9qeQYWCWikY+iqtkZF0i0nqoy5duqTft2nTpqL3xQBeCVb1VpK6GESkUHcTKKgxkxZGwyE8XELpk08+MVof8/2cEEkeYGiJh4wHH3xQtD5mGSIFjFQncR5cx5DeTJMmjS7OT58+vfuFEiHE/UDUSOjQoYP+KRFKKPSFQDARPR4wZBRP/uvXWz8IIQ0mEUroVJNs74UXXtC1K1YsWLBAJJQQBULUxfKCmihAEUnzh2REDJzDV6xYYTQrLlChhO8a3k5uPncB5tUhCuQ0bdq0US+//LJooLN+yJ88OSxmmKhxk9TKNWvWTIsMU/D7Hh8fb7kezk2r6KkUpPlRX4kINgSSd2odDz74LKjVu+222/QiNbWlUCKEaNDBhRudFejywkXG82cID8lNzI5QAg0bNhQJG2m0Ruo99Oijj+rOJqv3xuBg6c1DQsWKFS1TefBXQiu/FW+99Za48Ds5ID7RCYbolK8F++pZQnnj8RYcMBCVnk/dunUL2r6gTsrbhRsWAzfeeKO+SWOpWbOmLtgPF/C+QvTYCqQH7Qjf6dOn63PPCox2CUQoIc0JK4gPPvhAjwbyB4QhFqSHv/76a/1vt99+u95PaaMDhRIhKRykIiQ8/PDD/xETkgsiLsq4mNkpmMUNRpJWkQoRPHFKxAqiWRCEVkIJAlNSp4Q6KumN3AqpUIIpZZ8+fXSXlV1Sp07tiF1EMIE1gRScs8Hk6aef1s0CEEOeBemfSMTN+42HGIikQOYNosYQC8Ttm2++qTJlyhS0/WXXGyERDuZ2zZ07V3TTxFOYBwiJdOnSWb4O9QJ2jAyBtI4ET4tLlizxu87Zs2fVypUrLbeFCAq46aabLNdFnZKkU1ASrQOSLjWTtNF7772ni+lRFO9Ep58bQQRDQo4cOa6ljYPJ6NGjdVQJIj9SRZLn992NQNhA8Do1lHnIkCHaFkKaMqVQIiQFghv9xo0bLdeDSELRqgcUHScVTv5ADQFEhSmwCKhSpYpoXSubADzpS1r0PWIFIXncXK2wsglA15jkffFEK6kpwgwzExAV6927t/b/uffee3UqVBKRigQWLlyouzUlhKt+KlJxm8iDTxaK5RGddhoMAIdjut3RRBRKhEQ50tSKpzbJ6t984XHqtvNU65TxpKQ9H2LCU7OAjiRJ/YKVUIKAk7TY43OieN2KO++801YaEzcatLF36dJFFS5cWL8fUnOzZs1S58+fj8hz18Q3yapInlz/u+cmIHQnTpwYtO0jQgWxhO5NCiVCyDUwCkOSOkJdjK/oEf5NWsRr16nbKeNJiVCCMIIruAdJKgxCadu2bbb3y/RzAhTCBsrff/+tU3NINWbIkEGnH55//nld23ThwgUKJeIakB4LxfDlEydO6BmVTiMq5s6QKa3KlsPcx+DY4XPqwnn/Bl7YLrYfCs6duaROJJwPymclkQfOBZwTkQxEkiSagMiRrxRYhQoVtFhCcaVEKOHGZmpAaSKU8FSIYa/eoCtKMgjXO4IkiShhsCzEUlKBZUcombTyIyqEriRpF58EGHF6zDhRe9a8eXNtD/DQQw+pG264wZXnr6QjEiCCRs+iyAS/tyYu8Z4odI0aNXQ3HDyU0EwhdcZHvSaaVF555ZXQCqV6TQqq7gPNrfRfbj9frV56yO86HftUVo1bFg3JFzZnynY19EX/F9uqdfOql0bU5dmdAhg1cKWa9tXGiN1/+PpIR5b4q0WSCiV4CUEs2RFKpUuXtqyjOn78uBYlvoQSokkSR2vvCBKEEm6ymAXmDwil1q1b+/w/yQUa/kmmnkcYXgs3aHgmOQ0iSmi7x4LC5Hbt2ulCaEmBeyjxF8lLCiKiJDJ5/fXXxevC++mzzz7zGeVGs8eTTz4p+n2Eqz2sMZzyeWLqjZAIBSIJRYxWwG3ZXy0S/q9y5cqi97RT1I05WoGm3yTRJESEvCNIHpM6K5KrU0K9gySihM8nPYYeypcvr9NkkoLzQID9AQrA0W0HUWzSjh9sII4l2J3lFo2kSpUqqNt3sggcth/SrkbYBeDcTK4UACIf6eZOnTqJtjd+/HjHPgd9lAiJUEyKuAsVKpTs/0NM4AYqEQSeom6kdExAtEVSyJnc06K0PgnF3N4gyoTIij/QLQObheLFi18n3CTzv+w6aGPfULuBMTHS1EIg4PvDglqmQPyZnELiMA1iYmIC+j2R+oyZAvf3QN3T3SaUnCwC//DDD0XroZuzf//+IhEHXzbUZlrZAYwbN86xeXwUSoREIBAOTqTdkq4jGWAL7Aglk4gSRnwkranBBVEilJIr3JZElBISEnRUyVsoScVLIDfLW265RftDQSx99NFHITl/UASO1vwRI0ZoU8VwAF8sabdeIEIJ72MllO3y0ksvhfy4Bbubzanto1MUQ5klIJokBWIJ56+VXQSmDqBLFLV6AR8T3nIIiTzwlIybuxUIV0ssALw9lqyEkkm3kkco+YtqecB2vSNbEEkSs8XkBBEEFIrWrfDlwRKMQu7kogR4+oZgat++fUjOIRTIwtNp06ZNYTmHJZE6D1YjLsJFOFrwIyX1JnWzR5OJSccoaNmypbr11lst1wt0BBCFEiERClpgTaJJqBGSXPCl5pOeom4TkBKzW6ckiSahPig5oYTPL7UJSAqEqEQo4ULvVPoFnwOF9RCMGOwb7Jlihw4d0mNt7JiJBgrGxkic4T3nvBsJtmgJhzhzavuS31uArkw7SDzLpA86FEqERBkQSZ42cH+grVZqKOkRVdLCYkS0kCIzQSqUvNNd0vokfF5//y8RSps3b/7PRVbigA2R5PTNCzeBd955R6cvMAQUYsbOJHjpDS3pDMBQIj3fKJRCJ5RCHVGSRJoDEUpXrlyhUCIkJQolqfCpX7++eLvwLZFGlTCM0nTYqjTqkvQpEF0uko43q4gRhJLVDQaFxUmjSqGoT5IAEQOxBDsIdBFhAGjTpk0tB/magEL7BQsWuFYoSbvjUgKRUswtjeaY2o14kPhqIb3rRFSJQomQCALDWQMZWSIRV1JM02+IKPnqSvN1gd23b9+1aIdV5AqF31YRI4hAU5uAUNUnmYBBrTDSw7E/efKkFk5w+YYfU6CmksHqDPNH0aJFResFc+BppBEpqTekdaW/PxB/pgs8l5wUbP5g1xshEQRau6UGhRAYX375pdH2TWpVMGV9wIABYo8bhNjxFGg1BBUXWNwY4+Li1G+//Wa53RIlSoiM5bAOhIU/ECnzsGjRIsttQvjBnyhcQDhh6du3r/7u4EoMETVy5Eh1+vRpo20haoV2ahz3UOHdZZgc6FxDZFFSa0ahFBg41oGC33HMJnQDTgyQplAiJIIweeqHV04wOXfunG7/RVu7FMzrshIrAB1oWFcy4kMaOcPATHiw+AMGnh5vH8l4DTfNH4M7OCJLWN544w01fPhw7U1jUksGYQ1voFABkSsF5w2Fkjz1ZnfeH36vnRBKbsGJfWHqjZAIATcKpN7cBByfTcDgVgm///67/qyoy5EIIAlSQTV//nyRmAMNGjRw5bmSNWtW7fGDKIxJajAY41T8UalSJaPz3w5oJcesQOkiMT4MJ9KIkl3B44RQkqbdQgFmOQb8EMLbDyGRgWQeW6iBmMENrE6dOqL1GzZsKL4pSqJJiKJIBRBShNhPqxsuipql6UTp50kKunAgSDwLjPGS/h1zqqTizwpYFyANhxotNwolj32FJE0I00jMAZPYXXhjMivOzvZDiTSiZDeF5oRnlZONBhRKhBARmNcldbkNNYgqSYUSBEjFihUtI2MQDxJhCFdpk4syhI2VUEJEKV++fKLPYjJ0M1OmTKKbF8wxnRJKABEluBPDpdiKvXv3hvz8QaoQM++sQCpp7NixqnPnzin6WhDsiJITQslNs/nQ9EChREgKAE/TEEtuZMKECeqDDz4QXxxR1yNJIUoG/qJN3oQmTZpofyKr95V8Fqk49IBCdonlwHfffSeekSUFtT0SoRTqiJKJUAJ4WKBQCm7FjGkTgC9MBj3DjT4YOGmjQKFESAQgvZGEAzy5fvHFF6pnz56i9dGmb1VULcW0Nb906dKqQIECloJAMqwVM9pMQHeaRCjBZBJmfVjfKaQF3U5OjpeCkS09evQQRUDQiYj0WzDFUjiOQbgEgC+cSFXhQSNjxoyiCCqit8F2oA9YnPIWRIi7waRsU3PHUIOWdKm1APyUnLjYFylSROSNlJT8+fMbv8YpkWYifH744QdHvx9JvReQmPg5DVKSHTt2FK8PUbV169YUK5Skfll2a5SQ9nYCaYeiU2NGKJQIScFAJNlt9Q0VuBFLDShR12M6BDO5C7GdsR5OtJgXLFjQ+DNIO/4ATCQhkJ0AnlSSkTegVKlSYTl/Hn30UfG6qKF57rnnjIbqmiDx7gonEtNWsHPnTlvbd0qESh9IpA744YSpN0JcDKI0SGtJQO0Pxls4CUZbSNNkmNR9zz33iNbF8NcVK1YEtG92U1PotELrfCAg8mKaLsCoBqTrFi5cKFq/U6dO2ik80MLYLl26GH2ucICbKoajjh8/XrT+jz/+qKfHT5o0ybEZeIhsIH08Z86cqBBKdtzMkfJ16qFM+kCC2jlECU2JiYnR1xFYTGBBY0ewfLYolAhxMShelRqm4UZjp13dH6gzQLG2pGYH3WKYei+Z3YQLmqlruDe4MNqhTJkyeh+xr3axe5wffPBBsVDCkz3EEsSD3fEkTzzxhDjtBqQ2AsEAtghSoQRQrwSxNGTIEOOi/qQg1TRs2DD13nvvRcQ1ITY2VrSenQcRGJU6xd13363tO6xS8rhuwEj38ccfF28b1w4MSkb0zzsCiPeEcMI1BgLcZLvJwdQbIS5GOgC3cOHCtma7WYGoDbqSJGzfvl2cfgs09QaLAbu1RjBjDPTJ0+7+QyiZgA44jH7BjdwEpGsRvRo1apT4NUgNQniEC4jX3r17G70GYvfOO+/UN2XJyJmkwP29W7du+vhGikgC0ogSBCDsFKTA5uPnn392bD9Re9aqVSvRuq+++qpRJAuR7uSAMMMwbRT9Dx482JHPQqFEiEtBGNxkAC46uoIBWuqlQChJOqwgNOxODQcQOrgQ2yWQgm6k3OwOwkXbNCInJqALrnv37vp44YY+depUba/g6RJDrc6OHTt0HdK3336r7r33Xi0eTIXDk08+GfZzHp+vUaNGxq+bPn26FoY4Rji+iDJgBA2isefPn9fROUTyELFCKhKNADiHRowYEXHXhbJly4rXff3119XmzZst13v//feNUrRSpEIJ/l3wDlu7dq3lukjTSa+LH3/8sSOfI+ypt3UrjrjqvU4knFdzpmznXToFsHnNUVfvHy4GkpQXcNKg0BtElGCCKLmIeYq6YXDojwwZMmixZDf9FWhEKJDXQyShmNsuSG+gLsPUPwY3/j59+vzn39DF54RJJITDI4884orzfsyYMTq6BfFnCo7RW2+9pZdoBRElCP2lS5darrtp0ybVrFkz1atXL52G9e42xTUGUReT9KwJ999/v742Seq+IG7hJI+aSKScvUGEDMJPGiVFLaJTI4bCLpRmTdqqF7cQ/9dhvRASTpB/l6bdUNAYjLSbB4gCRJUkQslz8bUSSgBCady4ccb7g/btQFv8IZSwYBaaHaEUKIMGDTKK1Pl7EneCF154wTXnPnyu4MqOGW0JCQmu/R3FTdtkVp2TIEUqEUpg48aNOlqITkGk6LHs27dPnztHjwb/YfHdd98V1xMiOgpBh0HbuD5ggcFmfHy8jpBKLUhAoA0bSWHqjRAXArGxZMkS0bp4Ygu2YZu0TgkgoiSJFNmt84HACbToGE/WdsWWE9YGOJ5Id7gBRLieeuopV53/iAQgClGiRAnX/W4WK1ZMpzhRVxMu7KQn4au0YcMGNXv2bJ26DYVIAvhdNR00jHQpRg0hdQaXelhlmIgkpJ+dbGyhUCLEhUijSSCY0SQPiH5IIyDSom5EZooWLWq8L04ZRtpJv6FV34mIEkA6xMmnXjugmNm0ZipUQJDOnTtX1a9f3zX7hKgM0ntIKYUTCG1EXoIBiqCdHpPy2muvqb59+4bk2OC7QR2fk1AoEeIyYMAmLVZEAWsohJLn4ixF4tSNwmY70RmnvFIguEynnEMkFS9e3LFj+vbbbxt3ejkF7CRMu+lCDdJEKMIOt5hDnQ9SXZhpmC5dOlccm6FDhzp6LgIU00OAwRbEaWCiCqEZTNq1a6ejfU5DoUSIy4BIktaeIO0Wqgs3IkqoH5Egdeo2FUqI6DgVUUKHlOm2nEi7+bo5IR0SqnoXuG/jZmKnPixcID2Ic8pOyikQYKCKOYs//fRT0MwM7QIxA/8hJ0xC0UGKSJJHtAfSUeoPCE08HAQDjMGB71wwoFAixEUgCiNNu+FiFqpoEkDnm6lVgNPCAzcrJ20QTG9+TqXdvMH3CGdo3ESCWZfz8ssv6+LecKeO7ODpnkJ31MMPPxy090FNDVKiKCBGd2KLFi1ce0xQh4OGhNatW9veBhovULOUNJUXjIiSBxxbNIZIXfytQD0bTHGlEwwolAiJcBBNko5QwM21bt26Id0/U6FkVdQNoWQygsKpaJKd7UGYBksoJb2JwPcGRpMwUYQ5ZiAgAtemTRsdedi1a1dUtM3DOuDrr79Whw4d0jdHFO4GMmQZxxhCY+TIkdqSAEaUEKyB+HyFEnzHGOUCE0YTh3JPLQ8GMKNAPSnBFEqgfPnyWoTiPIdzdlxcnPE2cF7D1RsL/hxMUo0bvvbq+BH+234btyyqug80Dzu+3H6+Wr30EO9+JGJ5qGuFxKU8DwQJG3jax8w33MBhPgnriJMnT+oFppPZsmXTc688Pz1/hpB2ykfG7eA4IALkWdBQAA+y48eP6wVCKl++fD6XYHqQhQN8/smTJ+v0vWeByIcYwYIGCtTy5M6d21X7jUghRA9MQpMuELIQcthvz4K/w1E9VITdR6l8jVwqrnCWkLzXvp2nLD2SsC/YJxL94FzAOUGIm8G4FiwdOnTgwUgGGJgi2hfsiF8kgGhNOK0L7IKh3ljcSNiF0u2ti+mIVSiA47aVUCpSOsZW9IxEHqMGrlTTvtrIA0EIISRZWKNECCGEEEKhRAghhBBCoUQIIYQQ4ghpeQj+S+asN0T159u345T6a9F+tWVtgko4fE5lzJRW5cidQVW7Oa+qclNelS59mpDuz7kzl/T+rFpyUO/PhfOXVY5cGVTpKjlVrYb5Va58wWtTPX3iAk94QgghFEpGN8+TF6Pycx3ed0b9PH6LmjFhqzrlQyD89M1mVaFWbtW0TXHV4O7CIdmnuVN3qF8S92nDyiPX/R8K78fHxqumDxbX+5Qzj/OCKXO2dDzhCSGEUCgZ3TyjMKK0dd0xNeylZfqnP9YuO6SXDf8cUe17VlIZMgXn9EAUacyQ1Vqc+ePYkXNqwofxauncverZAbVU8XLZnRXFjCgRQgixgDVK3jfPKIsobV6ToEa8stxSJCUFAuarwauDtk9fvr/KUiR5Cz18BnwWR0UxI0qEEEIolFIuV68oNWPiFrV5rbnAwOt+/X674/s0Y+JW9cuEreaCL/EzYJ/wmQghhBAKpTARTam3Rb/sVLMmbbP12suXrqpxw9ao0yeci7ChWPurwasSxc5VW6/HZ1k8e7dj+8PUGyGEEAol05tnFKXeUCwdCIf3n1ULftrp2P7MS9yfQIUXirwdE8VMvRFCCKFQMrx5RklECdGbFYv2B7yd1X8edGyfVjmwrb8TP5NTUS5GlAghhFAomd48oySitHvrSUe2g84zpzh68GzA27h8+ao6sPu0M6KYESVCCCEUSoY3z6ipUbrqyFaOHnROKJ05dcmR7Vy8eNkZUcyIEiGEEAolw5tnlESUsjgULclfNItj+xSbN3DTyFSpU6nssRmcEcWMKBFCCKFQMrx5RklEqVjZ7I6MI4kr7JxQyhWXKeBtZI1Jp/IWzOyMKGZEiRBCCIVSyqV6/XwBb+PmOws5tj8N7wl8W7UaxvGLJYQQEjI4wiSKefCZ8uqPX/fYfn3JijlU+Rq5HBRucXoMiYlLeFLSpEmlHuhSzrH9yZYjvcpTwH90KnNW/ooQQgiFEolKIEoatyxqy3sIoqTrmzUd3R9s86URdVXP1nPUiYTzxq+/4/7iKq6Ic6nAjn0q64UQQghJDqbevIi2WW8PdS2vGji4sDgAACAASURBVNxd2Og1WWLSqSderub4EFqACM7jfavoaI4Jt7Uqpj8LIYQQQqEURqJphIlHmDzzRg1V57YC4tfUbBCn7mpbImj7dOu9RXRaT0rD5kVU55erquy5MvAEJYQQQqFEnCVDprQ65fX2mAaiLrbFM3drZ+9gsW/HKbVy8QHL9RDRem9iI9VzUG39GQghhJBQw7tPCqJS7Tw6fTWkz1K/6104f1l9N3KD6vRilWTXwRiR1UsPakF17PC/9UbZc6VXOXJl0O+TOVvykbnp47Zoh20r2vespMpUieUXRwghhEKJhIa6TQqqj/qvUOfO+HfJnjFhi2revuR1XWHzp+1Q08duUZvXHE1W7KBou2TFnOqexNff0uy/9VGIJmHbVkBwVambl18YIYSQsMLUWwoDJpTe4sUXiCoN6LpY/wSIHj3XcraORm1YecRvRAj/h3Xe7/Wn6tn6V/1aAHGWdJv+QF0SBBchhBASThhRSoE0bVNMzZq01XI9+B0NfWm5drBesWi/rffavCZBvdx+gS4mv3zpqtqx6bjlayCQmrYpzi+KEEIIhZLbiDZ7AF8gLXZ762Jq9uRtlusumr7Tkfc0Mb68q21JR/2SCCGEkIgVSkNfXKYXt4AbevOyk4KybRRHN+9Q2hWfE95Ky+fvC2p3mx3yFcqsbmlWiL+ZhBBCXAFrlEKIm6bVV66TR9VvVth1x6jxfUVVmarsdCOEEEKhlOJw27T6+x4vrereUdA1+1P/rkLqrodK8kQhhBBCoZQScVNECeTMk1E99kJlv55HoTs2N6gOvSqprNnT8UQhhBDiGljMHQFM+2qjOn3Sv+9R45ZFrvM8koDX9Pv4ZtX/iUWW3kreoDutev24a4XX8EhasWifyEwyKXDdxj7Y2X9wcM9pNWfKDv9CLGta19SHEUIIoVAiTgqlMZu1GPBHxdq5bAuN8jVy6TEh8DiSUqthftX1rRraGDIpKA4f8cpfatn8veJt4b2xD3Y5kHhsxo9Y63cdjEOhUHKWq1evqgMHDqj9+/df+wly5cqll9y5c+uf2bJl48EihFAoEWvs1ihBjFgJpRNHA6t/2rXlpOyEuSG1atGxtGr5eBmVNSadz33t8W4t9f3nG9TU0RvVpYtXLLe5Z9vJgPb9+JHzluvE5ORA3UC5cOGCmj17tpo1a5b+uW7dOtHrbrrpJnXbbbepxo0bqwYNGvBAkoCYOnWq+uGHHyzXq1q1qurevTsPGKFQiiTs1iilS29dSnbu7KWA9m3eD9tF67XtVkG17lzW7zpZEgUU5rRlynKDGjNkteU250/bqVo9Udb2vp8/Z+30nSkLT3W7TJkyRX322WdaHF2+fNn49UuWLNHLm2++qSNMTz31lF7i4uJ4cIkxiFx++eWXlut17dqVB4s4Aou5I4DsuTNaXzx2nra9/fi/DqvdW62jOhhQi0iSFKxbsmIOy/Xg1o3ZcbYvnILPjjooYsacOXPU7bffru677z41Y8YMWyLJm8OHD2vBlD9/ftWlSxe1adMmHmhCiKsJ+92j+8BaqnHLoqG58E/ZbmluiX3BPrmJmBzWkSiMG7GLxKEbhdtP9a9uNH8N6z7Zr5p6vs1cy3XnTt2hHcPtIPnsOXIz9SZlx44dqkePHjqSFEw+/fRTNXnyZPXVV1+pZs2a8cATQlwJI0oRQKGS1sWwGEJrB3S6Lfp5l+V6dz5UQhdEm4IoFAbcWrFw+i7RsFy7n71EhRw8kQT88ccfuo4o2CLJw5EjR9Tdd9+tPvjgAx58QgiFErGHRKCcSDhvWfDti99n7hYJlEYtitjef8lrsf8rlxww3jYsCfBaKwoWz8oTyYLvv/9e3XLLLTqiFGp69uypevfuzS+BEEKh5HbcOBQ3Nk9GlT5DGsv15v9oPsB2myBtVbJCDlWoRIzt/S9WJrsqUMxaqGxYaV6ntOgX62gYOvFy58vEk9sPI0aMUK1atVIXL4bv/B88eLB6/fXX+WUQQlwFK1y9yJz1BtftU664TCp3/kyWBdeLZ+5WD3QpZ7RtiTgpWy1Wpc/4f0INXkmnT1xM/HlWXb50VR05cPZfQZc3o0qTNlWiMMmonbY9HksxselVqUo5LW0Atq07bnxs8JmtgL9UJhd+r25h0aJFqlu3bq7Yl/79+6ty5cqpBx54gF8MIYRCicip16SQmvhxvN91UNS8eulBVal2HvF20XFmRcKhc2pIn6WJQu2EFmtSB2+IpbjCWVSRUjFaWFlh2vmGzyop5K7ZMB9PoGRABAmt+napX7++KlKkiMqTJ49u/d+wYYNav369Xo4fP25rm0jDNWnSRMXExPALIoRQKLkNN6beQPmaMufqn8dtEQulk8cviETP74Kojc9jmSiONq9J0Ito/VMXdb1UuvTWacZLl66on77ebLlemrSpVeU6eXliJ8PTTz+t1q5da/QaCKNnn31WtWzZUhUrVizZ9ZYuXaoGDBggMgdMyp49e9Srr76qhg4dyi+IEBJ2WKPkRWaXpmiq1curozOWombGbvH4kLOn3CUKL5y7LI5W/Tlnr1oye4/1Tb1UNlWuWixPbB98/vnnatSoUUaveeONN9T27dt11MefSAK1a9fWLsrwYEKRuAnDhg1T+/bt45dECKFQchtujSiBxvcVFa034cN1oijO2TOXXfcZjwnGkWxceVRN/nS9aHuNWhTlSZ0MH330kdH6sAzo16+f8fsgjTZt2jRVuXJlY7FECCEUSi4js4uLfpu1LanrfqzYtPqoGj1opbp8+Wqy6xzef1av4za+en+13rfkQMTpi8T93hJvLQRRTN70weI8qX3wyy+/qBUrVojXx/iSFi1a2H4/1BtNnDhRD8qVIhlTQQghFErk/0Rcokhq3r60aN3VSw/pAmxfYmnh9J2qW/OZasWi/a77jEgbPtdyts+6KNQvwVkdI1cktHqijKjeKSWC2W1S0LKPobaBUrZsWTVhwgTx+pjpNXfu3KAfi7Nnz+pRKhiv4jQY+4Lt7ty5Uxe6x8fH69TlwYMH9fuSyOTcuXNq69at+rvEn93MpUuX9H7i9ykYoGkD3ms4t3FMkDI/duxYVH3fLOaOMJq3L6VmT97qN+riYVGiIDp26KzqPaSOjq7AmPHj/itsF2eHCuznu92XaEfvJ1+ppgUiPu+Arr+LC8NhCdD0wRI8YXyA4m3UDklAnREKq52iUaNGqm7dumrx4sWi9ceOHatf4w9JnRVGpHgP4f3kk0/U8OHD9QXeQ44cOVTJkiVVvXr11JNPPqnFnQno9kOKEoXsnu4/fyDSljdvXm2JUKtWLe2KfvPNNxu9Jz5H2rRpVZo0afTiC3wmHHfTG6CkEL9GjRqqQoUKRtuGcJw3b54WkriRJzdHsGrVquqmm24K++/MzJkzdRQW8w/37t2rjh79b4du9uzZ9feI77Bx48b6waJgwYKOvDdqCa2oXr26qlat2nW/Ozi///zzz2v/li1bNn0u1KxZU3Xq1EnvrxSIH6TQV61apZeVK1fqh4ArV674XD9LliyqTJkyesHv0z333KMKFSpEoURCE1XqnCgeBnSV3WgQWerV+lfVomNpNXX0RpHAcgvzp+1Qa5YeVPd1KqsmfBgvcuD20H1gTUaTkgGz1aQEw1/p8ccfT1YowW4ANxncbHBxlfDMM8+oCxcu+F1nzJgx6pFHHtF/xtM1fJqWLbt+7mNCQoL+dyz/+9//tEgbOHCgFoz+wA0Ew36XL19uLEawbNy48ZoowU3sxRdf1MOIJUjsHe666y41ffp0o337+uuvRd9/586d9dw+Ez788EM1aNAgy/V+/vnnsP2eXL16Vb322mtqyJAh6vTp05YiAguiht988821h4K33norYKEHI9Z169b5XQf+Yx6hdOrUKdWmTRufx+7EiRM65Y4FUWWca3379tVms8mB8wbnAlLnJmA//vrrL72MGzdO/57iIaBPnz5aNEUSTL1FIHVuK6DqNZE/rUAcjRq4MqJEUtJ9/+ytv41E0t0PlzTykkppLFy4ULRexowZ9QXXaTp06KB/xsbGqvvvv199/PHHOvKCGxP2DREsqUiS4rnR4em6YcOGPkWSL5D6w3HwB47RvffeayySkgPbwY3rscceuy5y4QvJjdiO4EAERYKdbUstI+68886w/I5AGJQoUUKLXyuR5O/cQRTvueeeUydPngzq/nr2EakvnN/S7wTn2g03JF/32qtXLz2L0VQkJcdvv/2mmjdvrpo2barOnDlDoUSCS9c3a4ZsfhnSdhBnnV6sot6b2Eg05LZ157LqnbG3qvY9K+nXSorQnaBkxRz6PYlv8ESZNBRvJQD8XUTtgvQQQvZYvv32W9WlSxcdng8m58+f1xfm9u3bG82ygwVCpUrJn0/wksJnCAajR4/WKS3c/PzRsWNH0faQPjJBerPdvXu3OnBAPqcRNSyIvFiBdGk4eP755/V5sm3bNke2Bz8wCH9EDYMtlCCuEcExAcLFm0OHDukoKqJpwQDnIrphEcGlUCJBA8LjpRH1giZAsN2Wj5VRn868U3312z2J71VXNe9QWpWpEpt4o0tl+fob0qVR5Wvk0oIJrx2/tIUa/uMdehsZMgUn4wtB1++Tm4O2/WhAGk0CVrVBgYBoUqhp27at8c0KdRzJ8eCDD4prveyCAtyHH35YR9uS49FHHxVty2RfTaNjJmk96X4gRRuOc+T99993fLurV6/W6WTpQ4qdB4EePXqoBQsWBHx+QyRBpEqjrnZBdAliKVhF5hRKRIOIUr+PnRUGMLVEDdTo+Xerjn0qq7giWRzbNkaZICqFbeMnCq6dFElvj2l4bb4cCVwooZA2Wvjxxx+NHcIBol2+QPrQqXSEFUuWLPErGhD1QzG4k0IJJqEmSNN0JvuBaF0oQRp4/PjxQds+Im94+EARtNMgdY2aOlPQsOBN9+7dgy6SPOB9IJYolEhQQdSm/8j6AYslvL77wFrq01l36hqfYEZltM1Bh9L6vSDKAi269oikUKUiU4JQypAhg9+UU6SBbiVTUPuTM2fO6/4dnlIoDg8lSMP5sy+QRJXw5C5NO5oIH9P1Z82aZbkOoi+hBOamkydPDvr7IP2L8T9O8/vvvxu/Jl++fLqYOymTJk2yJRbRdYl5j3ZAB10wongUSkHEzc7c/sTSC/+ro6rWtTfTDDVESI81bllUKHTSObLfSOFBlPUdVlfVuMXe4NpaDeNU78F1KJKEIKwuwbvVOCXi62nbc1OVAksCRKVQFDxy5EjdRYV0h50iZVgOBCKUgPQmKLVvuHbdPH1at/w7JahCmXb7+++/dRRFSqpUqbTAQLcfapnws0qVKkYPK+hSCzfYb2+kJq8YSQRbCtRxoWsTw7VRp4bzAGlGbMdkbNF7773n6msBizm8RYCLnbn9UeOWOFW2ai5tJGnS3YY6pPa9Konqjq5dFE9ccHTfazbIpyrXya0+H7hS/TJhi/h1SOU9P6QOa5IMwEVNQjhqiEINisrhKVO0aFFtGeBdYOzpzksKCmV/+ukn0fbRAo+hw8mBQlZ4QKFdWsKaNWt0m78v8DRfoEABPVDYH0h7oR3cH7/++qut44mi9t69e1u+v4SHHnooZOcB5hdKQbcWBK8vjyTUH0EU//PPP5bbgYkrusm8IzpOg849nN+IJiI9l9SvyttW4siRI6ICfoia5L7nTJkyqYoVK+oFvz+wIpGIeBiw4rg+8cQTrrxWMKLkLQIiMKLkYdWfB9Wp47L9T50ojDr0rqTrkExEkhaTDkWUkoL021P9q6u23eTGdceOnFPxKw7zpA2CUIIRYjQDTxdEQHDzQD2O5yYC4QJTvuR8ZeBvJOGDDz7wK5IAzC09HVYSrMwrPT5R/pAUE5um3UxeJ3GEd9oawh8oWpeKt1deeUV/xuSMJG+88UYdnfIVqfEFvIWCBc4FeC9t3rxZC1+IbBh7oq4OwgkRY6TekiKpncqVK5elGPZ+2JDWTrk5/UahFCWcP3tJGzSeS/wp4f7O5VSrTmVd9znuf7KsNscU3fSPntefmQgfAk6f1hdLCRAL0UrPnj3ViBEjVP78+f97MUydWqd8ICaTM+WEXYCVCzVSDvDOkSKNKFl17EltAqxqcezO2LMaN2NlmujBX6eh0yDqJwFdYEifSoD5psTRPViF4+jcQw2dr32A0SrSZb66FGHbYAXSjqYgrYkapqTAzb1r167aPRzjg9DVKbGMCBeinEXC4XNq9dKDQYnO7Nl20ta27YD3sgLzxOzsT8Hi2Sw7rvbtOKUOH/BvspW3QGZb3WB/zt2rlszeI1oXPkjtulewfRydTr0lJU3a1KpD78rq0N4zolEr86ftVI1aFLVVn7V768nEc/tsUL6PSI4mRXNECQXacDq2InPmzMneBK9dFxMSdC0PojRItyCagM4mkyduIPWQ2rVrl9//L126tP7erL5npMhat26drJiWmFz6E3PYD1+4Le2GVJNUFKK2zAS4jvvyJ0oK0mHff/+92IFddB8qWFB98cUXlut5j/MBkvlsqHGEYOzXr5/RfiGqhH2DN5Ov93Y7IqGE4anBGqA6+bP1enELdj8rOsasiqHn/7hTjR+x1u86qBlCOswEDL4dM2SNaF0ICuyrm0EqEPt4YM9p0Wy3L99bpf435Xbj9/lu5Ho1Z8p2/0+3L1bRHXopTSglN3sr0mnXrp1j20LqDJGGQI0R8bSNWimkSQIFIgNFtv7wJ1jspt08IBL39ttv247eINKQPn36kJwL/orjk4IIoslMNIARHXfccYdlh5/TQgmeW3aPH85BCXDOx34jvYfzTSJ8kOqOZJh6CyESj5/jR80nUS9IFGAH91jb7OfKl1Gntkxrkq572g5CjZI3KNBu27WCyprd+r22rjsmjqb95+lZEPGMiY0eXyarURxJgYN3tIG0gZNCySmQknJqAr2kcBYdSskVfQfqDZWc0Dp79qxlobl+MAlh2s3Eod4OkvSb055KgZzfUqEEEEHFeBOkrzG/DfVbsOCA8WU0QqEUQrLnslb6Rw+aXzAXTt8pWg8pt0o3Bj4DLZipt6TUbBinbm4qmzb924zdxtuXzI/LmSd6hBIiIFKCPZsqHGAGFqa8uwEUEb/zzjt6AHD58uV1yk4i9KxAQTG6+azAWA1fWNUvVa7sP9qN9KMvpGk3uJ2HCmlEye7Ee4lQQpE1hKsTQOig28wu6JAzsTnwAA8nRBFxLsN/DYOt0fQA0RwtwolCKYRIoiPo5PIzreA61v99RK3/54j1L23VWHVbq2KOfI5QRJQ8NGlTXBUtY10vs3bZQbVt/THxds+cuqiOHLC2Ucgakz5qzj/Ur0iLMaMxomTnJuAEKFJFXRCeupGOQaE8Ujm4mZgYYaLYXAIcpq2YMmXKdf8mifgkl1ZLCgwEvZGk3ZDiCqWQ9bWfvpC4ngcSoXEqquTE+S3pnLR8aP3tN/0QACsL2AVAQA0YMEBczO9KoZQhUxpFQkPuuEyW62zfcFwd2iufVr103l51RpBCuqttCZXfoXEkoYoogeLlsqs7HyphuR4icf8slg/m3L/rtDqw2/o45yuUOarOQemNyKSeKVJAx1oo8NwoULsEcYrIAtI3EBlw9bYbrZNEioAv/ydvfNVDYcyLFfD+sQIWC76iDlaEMu0GpOarderU0Q8YpgtEsZOCLRTnNzrRnPw9uXLlin4YePnll3XktG7durqZQlI47iqhVKxsdkVCQ2y+TKIhtvF/yb2BFk7fZbkOuraQdotU7ri/uMqWwzqys+jnXeJtSo4xjlu0mVlKhVIw5lGFm7x58wZt2yjaxdN40tQDzPucjMxJhRJMESV4R5Wsoj5IzUgiLNOmTfvP3zGrTgJa10MFHgQuXLjgivPSqpsxlOc3CsGD6WeEcwFdodhXWGg49dmDLpQw/gIOxyT4oIi6Um3rGqGpo2UTzlHALSnivjWCRZLnuN3SzLpOAB1ykrojdAn+OGaT5XqVaueOunMQhnEScIOHvwmFkn8gLvCkjMGe33zzTVBrMqSpNyCJ/HgLI9TL+MPTueTt6OyN9zw5SdoNIszb1yqY+JubF2qc2henzm904QV7pAhEKurkUPOWnGeZq4QSHJF7DKqtO6JI8Kl2s/XJjC4uiYfQX0Ibg0YtikT8cWtwT2HRepL0G0wq9+085ch3FXHHsUED8brBjCp169ZNGzPCqRmDQkOBSdefFWvXrtU1GEhVhKr2QhpRApLup6T1UVYiCaD1HFg5joOkhdIwFbQilLPdgDTtFgrg5+S28xtRn6+//lplzRrcGZpIwaFTU1L7Fk50XgF1IMOnNdGRDJgtmswKI/8iTdFIIkpgzODVelitv1b+VUusjTHLVIlVcQ7VJoUTfA4MvoVJpD9W/XFI3dIseVGFaNK3H8tubE50CLpRKElD63/88UeyxoSBgps0BMaiRYv08Fn45+BGjEUa9QrXjQQiCWM2Aq3jQi3I7bffrgfkotvLKhplIpSwPYlxI0wPMcrCV12RN7lz5xbvB7YHc0GJ2zMIZdoNZMninmuiG4WSRxjfe++9uqZo+PDhARmRWoFGB8wrdOust2t3d9TO/OvWXEGR4IGbPWpfrFJmiHgg8uHPxPKfJdbRE2kkJiJu8omfZexQ/4adVhElaTSpZMUcIt+rSBRKUr777rug1CtAYHhHYTBsFkuPHj10DYxHNBUu7Nz568SNBNEv7JcdkYTiXhz/6tWr6wU3Bg/4s1W9hknqDcAOYf78+X7XGTZsmO5IskqPeafyUKjuawyGhwkTJuhooSTthmG+nvqnUOEWmwjgVB0b6uOcBhGl/v376wWdm/hefXVMOgEGBSO6dMMN7htMz7HrYaB5+5Jq1EDrtAaiSqiT8TVCY8em4+r0CetuN0SlooVaDfNbCiUIUIzc8SVy8H84phKatSsZleceLnzoPMHoDSu2b9+u53c1atTI0X2wqkmAiEKXDBa0FqNTzC03EsyJk0yH94ALP57KIZLQKh1IhMMkouSJ0lgJJbh4QyhZzQD0ftLH4Fd/QsnT2SepdZHOqHMSE0+xYKWg7cxNC7VQ8j6fsCAChkG7ngXXCSeAPcXHH3+snn32WQol8q94WfDTLrVptf9QJm74I/r9pdr3rKQjHP+5iW2wfqKFHUCOXM77AIXSRykpeQpk0gIIx8UfG/45cp1ARKH3mCGrLV8LIE5rNoiL2vMPUQ2JUAIY3Om0UPr888/F6zo5+iDQ0RhIUyWd9eYPpBPfeustR9OIpkIJIs2qngjz6ry71HyB9OB/HvYs5piBhQsXijrLQp1209ewzJm1n5UkmhMbG6ujXm4nVKNfcDxgd+FxLIe9AVLosIDAsnPnTtvbhkWFG4USDSfDcsPPrOo1LShaF6mkSZ+uu26gL3yArChUMpseMhstZEkUaAVLWBcXeqfWUNc06dP1Yp+lek0LqZic6aP2/EM0QApqTX744QfH3htPjFLfGKSaWrRo4ZobyUcffSRaD/VBiNQ4XWtlmnpDqrFmzZqW6yHl4Q9EwnylQ6z8dvr27Su66VaqVCksvwfS+W2rV6+OiN/rUAklb9C5hgeacePG6Y5HdMuOHj1aRwpR/2aCxG+LQikFcffDJcWdhphjNvyV5f9pfd+52fpJKH+R4HQshNJw0huJlcX+nf8nInHMRvRbnngMZSNO4gpn0W7g0UzRokWN0h3PP/+8I7PItmzZolNXUh577DFX3Uiks8FeeOEF420fPGjdmGEaUZJGa1asWOH3/5OL6llZEEj8kySz6YIFis0lOGUIGelCSdqdCkdyfK9ffPGFLuZHTZNknAvATECnitsplKIA2DJ0fbOmeH0YJD7Xcva1qMi+HdbuvqWr5Iy645a/qLX4g70CwLHCMZMaeKLDsOd7tQMeGhwJmKS08IQYaPcbUjy4aZsIrvbt27vqRiJJKSBCUrVqVaPtwiVbcnOwMxPM09IfCPfcc4/Pf3fCSTscaTcP0oiSxLHcF6gHRHdkly5ddFE7hDacqt0slNB5iRo8pNxfffVVPQ4Ho2VQT4V05cCBA423iaiwSVNIMLvr7MIapTBSvX4+1bxDaTXtK5nBJGwbXn1soWr5WBnLNnlQPApd18tWtRZ/u7edUKMHrVJTvthgtO0Hu5bXNgQpAbTjo8hYmlZD4S5SSl9++aVx0Si62eDLYhW5SAqEGRyu3YREKEHw4GZjctOSGu7ZMbOMi4vTT/Pr16+3/bmT+x6sBuRagQJ2aVQnGKBzD+eylXjHSBrUpqHuTArMR0+dOqVrAb3rAZFCRboRQg2LSSrcH5cvX7b9WoxpkURM8bngOm/nWKOzEVFlv5GbxGNTqlQp110vGVEKM807lNTdXCZAAJw7c8lyvZjY4IRiw1XMrT9TTuubNLoBTUUSasaatimRos69fv36Ga0/ceJEnbYbMWKE0XugTsaq+8qbPn36uO54+etaSwqKmKVAWEmPp13X70CiNhDU/mjcuLHtbTsxgDUQ0qVLp1q1aiVa97XXXjMyRsXvSnIgqoROOtT/DRo0yLHPE0i0SjJIGcTHx9uyB0BRv5VIAtJBwhRKKYw8+TOrjn0qB8WzJ1OW4PhRhLNGKXf+TI5vE8e+4/OVo7qAO7mboLSLy8OBAwe0qzZ8fzDK4oMPPtAXT4xhgMsuTCoRIcFTZ8WKFXXnlylIF0nTIqFE2vn0xhtviNZDSz7GRUgHhNoVSp7upGCIrOTScsEWcE4hTSnjvIdVhcQqANHTn376SbRdFP27ARNndJxP+D03QToSBd5fFErEJzCh7PZWTVWyonM1RbF5gzeSJpwRpStXrjo6qBazDlGX5MurKiWAsL+d0D9GQOAij+Js1DDAtRneNDfddJMu5HznnXe0g7UphQoV0iaIbqRKlSqi9ZCqgQeUP9CSD5sGk+gT6rxsnePly6uCBQvaeq23LYA3doux06ZNGwFYBgAAD39JREFU64qbIupnMKdPAorTUX+W3MPF3r17dXoOTtZSUQDx5QZgwCnpUgSolYPIlXSB7t69W7300kvaeVtCIMI7mLBGySXUbBinEjWAGjd8jdoafyzg7QUrmhR2ZZ86lf5sktSjFWWrxqoHnymvqtyUN0WfexA8y5cvN6ohChZIQ5mYAYYS3NTGjBkjWhcmjki/wMcIQgUpS6QesKA4GEZ9pkAoYbFzfJBaQfTPFKvW/ZiYGN0CDo8pE5woMncKpL9mzpwpXh/F2fD6qVatml4g+vBQgNZ2iW+UBysxHWpgE4H5bjB+tAIu8mgIwe9r06ZNtYM+HnJQ8wVxhG3g/N+4caP4/RHhlgxzplBK4dS+NU7lLZhJDXhmsWjMRriEUjhTb/qkvSHwQChsBnq8Wzsq5uAFCjpafvnlF33zcsoF2w6wIZAYGYYLXMTR1SZtX4Yo6tWrl6P7AJ8aO0IJEQBTodSyZUtxFGDkyJHG++MWUJT+5ptvGtXsQRCh+FlqGeHrXHJLNMkDarYw0w3pYClw0XdqKLQ0PReWB3TKE3eBG/jLH9VTd9xfLKDtZMwSPA0cztSbforNGdj7N21TXPUddhNFUhJQczRr1izHOnBMQarOycLWYACBghtqOLF7Y0ZXk+l8M6u0W1KhZIp026ECqaFQRXggROxaDgQbiGOpsarTv/+33norhRKRU7hkNu2xhCJv+C3Z4fLF4Pl1hDuilCGjPRGIY4lj+vTrNVSBYll5ovkA9RdIG4USDE+1Y9IYDlDA7rS/E0BEpkiRIpbrmaSIvJF2NgVbKLkpmpQUNB44HQH05qGHHtLDpt1+jiOyFEqR5PbffwolFwO/pNdH1Ve3tSqmUqU2M0F0Ij2VHOGOKF28YCYCcexuTzyGOJY4psQ/6FhD4aq0yNUu8FaB67H3wFW3g64+p+bflS5dWh9rmDe2a9fOcn1E/UzqYOwKFPgvmRSAw1gx0oUSgDEibtzBoEOHDnrMRyTQtWtXNWnSJJUzZ/BMi+GjhVEnkfCQRKHkcirUyq2efbumeu3Tm43MEC9FcUTplMH745jh2HVLPIY4lkQGUjUzZsxQY8eOddwADrYB8JBBC3W45nwFypw5c3RRbyCgjXzZsmX6WIM77rjD+nfv9GnVv39/W++HmhgUHkswTY2ZRJWk3kXhAjduGHTCkNUJYNgJgQSz1kgC1glbt25VPXr0CNpDUjhH2FAoRSFw8X5vYiP19pgG+s9WwMU7Wrlw/oroeOFY4ZhJjhfxTdu2bXXnCp4uIQzsiiYMVYWzN8QXhoya+La4FQz4nTx5sm7zl4IxEEi/rFmzRhevYoK9B2wHtWJW2Bkj4UGafkMnUzCEklvbv697wCpTRk2dOlV9//33OtqXP39+420gcjZv3jxtAYHvPBJBV+OQIUO0Vxr8wQJxY0exOK4heDjAQ5LVUGU3kepqIrwdRBabVieoXvf7by/GcNdPZwWnYHLUwJWWY1ce6lohcSkflPfv1Gi6OrjXv0vu4Em3qVKVcvBkCcb5t2mTWrBggR54mXRBNxgKhnFxxU/c9KtXr35tiWYwHwujKuChBHNCjK+AQSS65LAghYEoDbr60GVIIg98vxA+MFdNuiCFBPsH3PiT/kS7fDSCaBuiQVhgwAnHcgyzxSgYnNue33/8hEkrIsjwWsPPSD33aQ8QgcBCwAonfIaSI9ypN0mNkuQYEXsgquTGeUzhBEaEWOCbRKKTunXr6iWlg9mBWNxca+Y0TL1FIPBIyhLjv6AadTzHj54PyvuHs5g74fA5dfK4f6GGYxOthpuEEEIolIgF6GizEgKIupw85nzkZ+u6Y2rZvL2W6y2euVuv6zQnEs5bFqrj2ASz648QQgiFEnE5+QpZzybbu+OkY+93ZP9ZNXbYWvVap4Ui1/Adm46rt57+XU38KF4dO3zOsf3YveWkI8eGEEIIkcAapQgFE+8l4sYJ/pyzV838dqtavmCf0esO7zujxdXmtQmqyQPFVc0GcQHvy6F9Zxw5NoQQQgiFUhQTE2stBo4eDCySc/nyVfXtx+sSl3j950CE1vL5+9QDT5VPXMqpNGnsdz4c3HPakWNDCCGESGDqLULJHpvecp1AaoTw2l6tf1XjR6wNSCQlFV3YFrYZ6H5ZEZuXQokQQogzMKIUoRQpHWO5zp5tJ9SFc5dVugzyeXFHDpzVabaZE7fqDjOngdB5s8tvOhXXpE1xozQZOvkO7LaOKBUszjluhBBCKJRSNMXKxKis2dP57Wzbu+OU2rb+mCpTVTb6ZOncvWoGapHm7wvqvkOMjRv+b+1SU9QuNZTVLu3YeEK/1h84JsXL0miSEEIIhVKKJldcJlWsbHa16o+DftfbvvG4pVAKdhTJnzDb8v8LvSXRpZ2bjltus3i5HCo2X0aeIIQQQhyBNUoRTNEy2S3X2Rrvv6bHkwqb8GG8LZGUIVNa1fmVanrBn03xRJdef2KRZf3R9g3WQkmSkiSEEEKkMKIUwZQoby2UNqw8os6evqgyZv6vQeXRg4gibVMzJmyxHUVq2LyIavJAMVWhZm79d0S4EJmaP22H8bY8gu2O+4vp6FLO3P+NCuEz4LM4cUwIIYQQCqUUAIRJqtSp1NUrV/0KkLXLD//Hw2jpvL06zbbMZi1SoRLZ/k2XJS7pM/5foXiFmrlUyQo59ALBtGvLCaPtIro0fkT8v+m4NiVUrSS1S/gMVhEnHAscE0IIIcQpmHqLYIqWiVG546yHv67+85D++W+Lfrwa2HWxbZFUqXZu9dpnN6vmHUr9RyR5wL/h/7AO1rXD0nn71IBnftf76rEm8HwGf+BY4JgQQgghTpHqaiI8DJHF4f1nE4XOXm3kuGbpIXXh/GW/68cVzqJeGHqTGvbSMtseRqg/at+zkrr74ZJGr/vpm81qzJDV6tyZS7bet3i57OrZAbXUu92XWI5OSZc+jaqYKM5ubJxf1bmtAB26CSGEUCilFCCG/vh1j5o7dYdaufiAsQkk3LDtGkciMtR9YC2Vp4C9GWpw0x764jK1eukhW6+3s+94TfX6capRyyI6hQcRRQghhFAoRRnr/zmifY0wZy0QR2s7wLjR07qfIWNg5Wznzl7SdVGoXdq99WRIPweiUqjRgl9TWaGnFCGEEEKh5GL27TilRr+3Si2bt9eRESKmBBpFSo5Ao0uBgChTrVvzq47PV1ZxRbLwJCOEEEKhFGlsiU9QC6btVPN/3KGOHTkf8vcvUCyratqmxP+PIgUnXXX2zCU1C9YEE7eoPdtOhvwzonbplrsLq4bNC6sS5eniTQghhEIpIpgzZbsaNfAfdfrExbC8f7CiSMkRzugSyJztBtXpxaqqccuiPPkIIYRQKLkVdHP9OGaT7hALB4gioRapKaJImUJrrYVuuBn/v3YpHNElgE6+e9qX0t2BhBBCCIWSi0BhM1rfdwjmmFkBkWPahh/qKFJy2I0uoZvNyh5BQpFSMdpCAQXshBBCCIWSS0TSy+3nOzKINluO9Kp6/Xzi8SF2fZGCjanvUr0mBbW4OpEQeD0XapcGT75N5eJQXUIIIRRK4QXiqG/beZYmiv7ADR3GirUb5VeVbsyjzp2+pDrdNl1U4/TSiLr6tW4EflEDui62XA81RqN+baYyZE6rVv95UP32y261YtE+bchpF0SU3h7TkGaVhBBCKJTCBYTM8w/Ose0nBIHTomNpVb5Gruv+D2M/xo9Ya7kN1OMMnXp7yGuSrEAkqXuL2SIB+VDXColL+ev+Pf6vw2rq6I1acNkBabjBkxvTpJIQQohK0z8RHobQMumTdWrJbLObeJZs6XQ7+yM9KqkHniqncuf3PeMte2x6LRSsrAVOHb+gTiRcUFXr5lVp0rpj5B9qjUYNXKn+WXzAcl3MdGvbrYJOOXqDY1P/rkKqVMWc6oZ0abTounTxing/jh89r2fWVaiZmycrIYSkcDgUN8QgLTTli41Gr2nYvIgaPKmx6vpmTV2H5I9CJbKpek0LiraLTrMZE7a45thgX7BPEvAZrQqv4cT97ICaauA3t6paDfMb7cv3n28Im00DIYQQCqUUy9iha8RdWkgBvTP2VtVzUG0jJ+nWncvpsR0SRg9apTavORr244J9wL5IwGfDZ5SC9ft9Uk/1H1lf3N0HkTT+w3iesIQQQqFEQsmin3eJ1kME5L2JjXzWIVmBUR1P9a+uf1qB8SjvdP/Dka4xu6CwHfsgGdVi8tm8QTRu6JTbtSWCBGkHISGEEAol4gAo3pZEk1Cs/dKHdQMqtC5TJVY171BatC48jPq2m6fny4UavCcsErAPEvCZ8Nnsgk65N0Y30LVZVkA8hlNAEkIIoVBKYULphOU6aEvvPqCWrYiJN+26VxAbKELEQSxtWHkkZMcD74X3lHb/4bPgMwUKjm2PQbVFQnTrumM8cQkhJAWTlocgdKCQ26pGBgaKiHo4AdrbUd/0fJu5orQWUmD9Oi7UTt3Yj2Dy+8zd2olbaizp+SxOtezrwbjNClt22B05cJYnLiGEpGDoo5QCQK3NkD5Lxesj4tKxT2Vx6s6UKV9sUGMGrxaJNw+9B9+ohQ0hhBBCoUQcZ9zwtWqCYRcXvIhuvbeIqtkgzpF9WL5gn5r3ww5xQbuHds9WUG2eLs8vkRBCCIUSCR7v9fpTLZq+0+g1iC41vq+YatqmmCpZMaet90Xr//SxW3RkyySKBBq3LKpTgYQQQgiFEgkqqAfq/8Qi7dxth5IVc+goU5Wb8lr6NKEIeuWSAzp6tHlNgq33Q51U7yF1HClsJ4QQQiiUiCWI6Lzf8w9dTB0IKDgvXjZ74s90KnPWf4vPT5+8qNvpd2w6HrCrdf1mhXXxNkUSIYQQCiUSUk4ev6Amf7rOeJRKqGjduay6/8lyKmNmNmUSQgihUCJhYuLH8Wrs0LWu2qf2PStpoUQIIYRQKJGwM3/aTj2Idu3yQ2Hdjwo1c6smDxRXDZvTAoAQQgiFEnERu7ac1GJp5sSt6vy5SyF97/QZ0qombYprkVSoRFZ+GYQQQiiUiDtZNn+vGjVgpdq3MzQz3+IKZ1Fd36qhKtXOw4NPCCGEQom4n5PHLqjfZ+5Si2fusRzvYRcMpK3bpICq16SQypo9HQ86IYQQCiUSefzx6x713cgNjg3KLVMlVrV6ooyqc1sBHlxCCCEUSiQ62Ln5hNq0+qjauOqo2pS4bF4rM5AsWSGHKlU5pyqduJSqlFMVLpmNB5MQQgiFEoluDu8/q40lsRw5cFYlHDqn0qRNpbLlSK/yFMikf2LJkSsDDxYhhJCI5v8BD6QV4FRj8+gAAAAASUVORK5CYII=;clipPath=inset(0% 61.67% 0% 0%);" vertex="1" parent="1">
          <mxGeometry x="1330" y="-72.5" width="181.02" height="170" as="geometry" />
        </mxCell>
        <mxCell id="c7Pq1dkR-VcAxKLpXhSD-40" style="edgeStyle=orthogonalEdgeStyle;rounded=0;orthogonalLoop=1;jettySize=auto;html=1;" edge="1" parent="1" source="c7Pq1dkR-VcAxKLpXhSD-31" target="c7Pq1dkR-VcAxKLpXhSD-35">
          <mxGeometry relative="1" as="geometry">
            <Array as="points">
              <mxPoint x="1880" y="10" />
              <mxPoint x="1880" y="10" />
            </Array>
          </mxGeometry>
        </mxCell>
        <mxCell id="c7Pq1dkR-VcAxKLpXhSD-31" value="" style="shape=image;verticalLabelPosition=bottom;labelBackgroundColor=default;verticalAlign=top;aspect=fixed;imageAspect=0;image=data:image/png,iVBORw0KGgoAAAANSUhEUgAAAOEAAADhCAMAAAAJbSJIAAAAk1BMVEV3RtN3R9T///93RtR4R9RzP9Kni+J1Q9N0QdPRw/BwO9Lt5/n7+f6JXNqafN739fyBU9jCsurm4Pa0mueWc97z8PtsNNFvOdKUb93i2PVpLdCskuPs5vmOatp7TNXPvvCihOHazvO7pOnVx/GLY9rDruze0/W4oOiGXdiKY9nl2/dnKc/Kue2rj+Sbet+AUddjH88ivb/GAAAN6UlEQVR4nO2dCXeiPBSGcQIGQawr1A2ttdW2Vuf//7ovZIGwb0lEv3kPx9NxKd7Jw5t7k5Bqf55d2r2/gHShCA/959UBR9j3jGeV1ycRGgBL62nkMetAIo8dl84e8WGwCDNfvcehs8fcQ2ePlRRGqMlQjz1mHgEQBA55Ry9qQ5Cjh+c2SWla9+e2nN4ibsVTWkwmPnrsURaZPQ6sTEofnsxAjL1sSu9PpjhHleulxdxGWMh01IhSTOYTOmq5lxLdn9umjiqL0iqOKruvL+3xH5jMSHleyl6lj51ksqqjqvDSPG6TWMjhNumlz+eoVb2U6P7c1nfUf9XTY5LJ6xGqp3aOqs5L09xmYyGa25iXkuPJHLWelxLdn9s6jvqvenpMMnk9TvXU1FFVeynPbUFpJZDbDC99Mkdt4qVE9+e2mqP+q54ek0xej1Y91XfUu3gpgKFA0WCVEG5zvVSeowIPjkP5HhAHZKaaeylRfW7hbWBzuvhALr3KqycA7fg6iU/3yaonY/+SWAqiy+VUefVkrIeJCM9QqqMq99J0hA4ssNP23PKUIsl3VBrhcoD0SSMUCWVKbb2UqAa3JMLh2tR1OKIRSs0H7kTpcG0BYIxyKX3k6olFiKAxR92mtKGjZrWh8F7+PtVTnNLT2HHG+5BSIimOmohQvqNSL10skabdpjStStxm9YfCvDSLXvWU9qv3+I9ZPZnzRffzUl6FZALIrdU1IQieBPp7qrYQ3sur6vGhf93PQu2PEJsmWM0uk1CXgw8THxPsqJkRinFUAE+xxtqcbgBza1i8ul7jpxVyC782cR7tLyjUM6vRK5FSmpRxGpnpd/VkkFnDS9s4alaEwkipLonVU2aEsplU6qU0wquDtM+lNE/CuC2IsK2jsuLIhNAKI+QzgZz6SrDEeymRzpV/es/sZ1HaU+Ko8ikN0k6jX0KpREdNV0/CHJVGOLYMw2OUcq3MZ3RQYrcvsXqiEX7s+/39JEkpdLfcDXSOb0hz1Dv1+PDrM57uzLMBFsBtaYTNHTUzQvLtAPxIvLTzBECUKVle2ivs8YE+SLz03bKGyj8kUgq/ErNMmyMrlNIRblxNkqPmVU8CHBX4p1hx8bkGgPb16QinrniIiCRWTzqAXyNO4yDAGKX2HD09t2mEknJUuSNR0OTE1fI0wukKPb2akggLfk0rbitGKHgclUXoou/gTpVRKiERBmTVBWqpIHOxLM+zPCOiFIcVRvhoXgpRUB7wHee83aKrLRiS+tgF+oVRG/6guH84SoEBoWhHLa6eGjqqaXiuM+/PJrv35fJ7ER8gffc11oaL/nq97r+EzQlu6+PY9SyhaapgLwXQ8lw4Wr9N7UVybJtqoIOwtxgGYr0Fsr3DH9uevl3GumsF2bgQRxVKKbDG59MuOaadjjCjx8eUWhP2z8WkP4dWfCS1Ibe1IixxVNNcf06Lw8uNcINN5417Zrg7HEUsmEp5aWNHhau5nQMmJ3szCRZBGZfE8x8WyhD8RJq3OIH2VZUwSqGzTEYzXNib6WZyQgXil+N4q0CuawENV0/2gtMgGNsHfooAVFWpqJ4qOaob42663E1m/bnjo4isoIiHEMS+IERmy4nMkhr7wH5jYdorgZS2EvDDL7Xc9a9HB1h4uil4LZsfnNFBE+JHQJ40DQv4x+tsEEU5N1s6qihKmQ1Of40fD4UWNFkjoTTINNzVzy+9Ji9W/PXajtogwkxHpaNpf6Zvp72B+uycdIDPUXEtlTp6GgpwPA+b8bctXXEv1Ro7KuiFXL1sBgfHc10vwBQ1Zszxdfaoxz8OgrZDuZC38ub7AZcuuKArXmod4i443bzP+qPt0dF1A5sNvuziwkVVkJEbuu44qJhc797iv+XP3mhCZrPqqcxRYWL2GmsxXQ4Gl8kB5Z9XZJm3MafbNnDR/Xp9mFwGg+WnnfH57/ZLUcRVT8a+oL9H6WfQ7W349c8b3BO+DIs+1ofd6fE1zU2OELbXKa/yr8Ft4wjTjgqPZOBp8W4nFzrX1Ocn+QUbEWVUlpc2dVSL9Bj21/G1P9mU5+BZGr5f+qMbqRmDb9USUbGUavBGMjf7jPzRdX+c+f4yWU7RxbdYDHMuN3x9omtyupysUZb3s/KQ7/rEUScGCJmsR2ab6qnQUeGN+OHJA6SDQx2B68KxM39FZjqbpDXDHuuMAcpfg+6TsECWvr3MhUz7i6ue8Hc7kIa58okI6cvxSFRKuJ+kWQFLBqBPmvtg9lojKphSpB8ypfQOmqaliHXasX7+lL61ErctI0w6qnklYxhrq3wcFSt94cATWYB6NVsjhZXvpY0cFRg7HOFb4wWH8LyhjIJYEtsVSlGn+E0YKxqlL5JLxjemILmgr6mjNqueChzVcEg34GTullJaPRlX8vGrsKkiUdVTJJeYzfcxM2fOqZ6YgE4ShYu4QX7xo/pQJ/31zmjgpybpbjbnFKP5KuFWSIRxR7XW+FsuRmaFmakefpHRQ614eArunhWDVKmXNjgJAKRDm9QeJgNRd8o929JRZcw9mVeSlJys8vfGP0hTotTCaE61HbVN9ZR7eGT58+JmFo1HpbzUnL/Q/5m6jV8kkdVTKHgmGfjgltPvZxopoEP9y7Ggvl4epZpmnEny1q/DKS0vh/tG3yUXWoER8o5KM5MN6hSrzPUTRyXp2i5nHLUpUjylWsksR42TAEAa8aP6AgSXXrwge3StMbey5vFrI2fS+6H2lcCu4ajtq6e8BJV0iu+wWvUEHZKxX/R4X99egqsn7hfT4dNDNeunbb448iMXnayeIlmvpEowq6SYcEzePPPanVSulxJFjrqineIYlq9RgSRds3+yjbQNUlGEzEuFOao5p9V6+eJYa4SzmWHpTTUNuJW5cs+lpdC2jFO4Jf8Xk5rzqpUcVVT1lHXAMeXULenr6RqA5RjmQNNGEqqnSGxOcV48JGHMC9/Wweop0opMR9lGEafwyPIfUaeV66VE1FHhljjIhw9yV/1pBv1vOEIuRxWHVMJLBTsqAHQW6TWfU3NL6+Xqo2u1uJV8Pz5YkY7uM7dsBxZ9h15j8CmmEkcVWz2lD3imLeTl9PUsRT+bpWQ2k6TqKZJHrrJp9vBpz6SD+B9laUHnqqdQkE537qys3hze6Oha0eBTQ8n1UiLsqGz4NHEzNZE5IhNN8+SYlThHzfRSoY4KdNrv/00PS4G/xGrfm+w7UJFbBXubgL8kwoOe4tQiZfLwb/uz5DqqjOopeRi/bNo0UT3RfU6Ga6MGmXUlsXoKBSw6berHWQQ+nc/2KzPaseopVJh5xit42pFszjVu068tJddhOHw6PEOOXpMmA32ruLZq6agFXiqQW+DT1IybjgI6Wfr+2W7/llJuFe0TZZBhqZd+1LGbZAR4uBXJaIajyque4v27/4GRfLvBsHoihf2HoTUhs7rkVk+RoIHzT3vL0lO6P88iJ18tVJeqp0geXsy/CEel4Bb760RYYZ8nZRFaLELKLYuQLJ7SihZPtXPUUi8VxW0YIaOURVgf0nrcqm9D+u+oDcUr5qiyq6fwYBGajNIvGmEbMqtIfvVERW8b2t9Wrofk/p3ZLSntTvVEZLE7Doeby243YGuipVAak7oIaR2c0MWizEhz1Ipe2p5b+JUZoZi13EXcqtu/1Duk78IYHlrOiBaJOqqa6ik4NHP+8cbf571Yfux9EWQWS031hAVMa7z9Pey+N9PAbNZbxzPa3xPTleqJCkLD8lwk1F8YUPwQaZbu81dYyMwUAClmJDhqLS+VOFolUAlu7/NXyRRKXYSZ66ZEkpknZdUTPhneExr/iG+EkrE51V291OjPZrPTFe8acT2hnxWdVV2ELh6Zecd7m+DRbtvNZkaoozbw0sbckh2huB145G1/xXGrtA1ZhNxeX/J1lwiBFu1mJpjMtJRVTz0FlN65enpqSuk2GKtUhCu2Q4ZER23spZW5Bd7P2cHyNwlKNz55wRm7kjYSVrLaZJzY1itzr69gIbEkSY/Qiv8JiJiXcgruApPjqNKrJ2+XjrAH/GSEA3H7CKuunqJ99KguQSulxhZ/pX0B+dfhMb6zzjue84VOvBG/c/9gUGtuW3ppBW7hKx1FtK/X0Wh0I9UTHKOfr1ca/curvL9qpaA/NHQa4nJsRXvtQtO0xnSbvhdd5ukV9PjGK22qZWx4DZo0QPvVkNLXJ9tQYvVkMlDfYDSIb8I3hqiMP86iuHqKQHXY2pJwJ8kXIPncqtbTJECNI0rUY49CHVWIl1bgNgGqZER5KaueYqBGiMp0UXpiZfUhB6qZRFROX6+qeuqlHRUoQ1T1eKkenyOV7aL0rCrnLUJQky7KS7SjCvTSOo6qBFEixXNPEahqENXUz5AyUOOIyunrVVVPmY6qClH1lAat6A/s003h+dTPAUPPtUpH1sRxK9xL63D7pJSqVpcilOOoRREWnFHR0WOPRe78/6WUNpD8e0gLdunpBfeWaD3yAztEiaGdjLATZJbnDf9fL81oIIk78GRiyeCsc4DK9Iamyx3lEXaC2xaO+mSUpqVoFbSWvXKPtpFcR82OsBNkCnLUp6Q01kByd+DpgqNWjbAT3DZy1KekNCaVq6A1LdtL5Tpq56un1o76xJTSBrpb9cRQTJEp2lHrRdgJbms66hNTSqU4whi3IKONxDvqg1RPLRz16SntbPUkzlGbRNgJbis76tNTet97SHPbSKSjPlT11MhR/1EqTI2qJxGOyiL0jGeVRyI87PtPqwOO8Mn1/BH+B11rWBpdiMABAAAAAElFTkSuQmCC;" vertex="1" parent="1">
          <mxGeometry x="1620" y="-110" width="185" height="185" as="geometry" />
        </mxCell>
        <mxCell id="c7Pq1dkR-VcAxKLpXhSD-33" value="&lt;font style=&quot;font-size: 25px;&quot;&gt;AWS Glue Crawler&lt;/font&gt;" style="text;html=1;align=center;verticalAlign=middle;resizable=0;points=[];autosize=1;strokeColor=none;fillColor=none;" vertex="1" parent="1">
          <mxGeometry x="1310" y="106" width="230" height="40" as="geometry" />
        </mxCell>
        <mxCell id="c7Pq1dkR-VcAxKLpXhSD-34" value="&lt;span style=&quot;font-size: 24px;&quot;&gt;AWS Glue&lt;/span&gt;" style="text;html=1;align=center;verticalAlign=middle;resizable=0;points=[];autosize=1;strokeColor=none;fillColor=none;" vertex="1" parent="1">
          <mxGeometry x="1630" y="110" width="130" height="40" as="geometry" />
        </mxCell>
        <mxCell id="c7Pq1dkR-VcAxKLpXhSD-35" value="" style="shape=image;verticalLabelPosition=bottom;labelBackgroundColor=default;verticalAlign=top;aspect=fixed;imageAspect=0;image=data:image/jpeg,/9j/4AAQSkZJRgABAQAAAQABAAD/2wCEAAkGBxAQDxAQDxAQFhUPEA8QEA8PDxAREBAQFREWGBYRFR8ZHCgsGB4xGxcVIzElKCsrNzIuFyIzOTM4NyotLisBCgoKDg0OGxAQGy0lICUtLSsyListLTIrKy03Mi0tNisvLS0vLSstLS0tLS0tLSstLS0tLS0tLS0tLS0tLS0tLf/AABEIAKIBNgMBEQACEQEDEQH/xAAbAAEAAgMBAQAAAAAAAAAAAAAAAgYEBQcBA//EAEMQAAICAQICBAkJBwIHAQAAAAABAgMEBRESIQYTMUEHFCJRU2Fxs9IXJTI1c4GDkaMVUmKCocHwM7EjJEJDcpKyFv/EABoBAQADAQEBAAAAAAAAAAAAAAABAgQDBgX/xAAxEQEAAQIDBAkEAgMBAAAAAAAAAQIDBBExEhMhUQUVMjRBcYGh0SIzUmEU4SNDkST/2gAMAwEAAhEDEQA/AO4gAAAAAAAAAAAAAAAAAAAAAAAAAAAAAAAAAAAAAAAAAAAAAAAAAAAAAAAAAAAAAAAAAAAAAAAAAAAAAAAAAAAAAAAAAAAAAAAAAAAAAAAAAAAAAAAAAAAAAAAAAAAAAAAAAAAAAAAAAAAAAAAAAAAAAAAAAAAAAAAAAAAAAAAAAAAAAAAAAAAAAAAAAAAAAAAAAAAAANbr+rww6HfOMpKMoRcYbcXlPbvZ1sWZu1xRSmmM5yVheEvG9BkfpfEb+qrvOPf4X3UvflKxvQZH6fxDqq7zj3+DdS9+UnG9Bf8Ap/EOqrvOPf4N1L35SMf0F/6fxDqq7zj3+E7qXvyjY/oL/wBP4h1Vd5x7/CN1L1eEXH9Bf+n8Q6pu849/hO6l78omP6G/9P4h1Td5x7/Bupe/KHj+hv8A0/iHVN3nHv8ABupe/KDj+hv/AE/iHVN3nHv8G6lm6R0wpyboUwqtTnxbOXBsuGLfc/Ucb+AuWaNuqYRVbmIzWQwuYAAAAAAAAAAAAAAAAAAAAAAAAAAAAAAAVXwmfV1n2lPvEbuju8R6r2+05Amekd0kwJpkiSZCUkyRJMJSTGYmmMxJMkb/AKDP5wo/F91IwdJ93nzhS52XWDzTMAAAAAAAAAAAAAAAAAAAAAAAAAAAAAAAFU8Jv1bZ9pT7xG7o7vEeq9vtOPJnpHdNMDL07BtyLFVTBzk+5dy87fcvWzndvUWqdqqSZy1b16Vg43LLyZWWLtow0movzSnLl/sY9/iL32qco5yptTOj2Oo6WuXiFzX7zyp8X5Jjc4uf9kf8TlVzTjRpd72rtvxpPsV6VlO/tT3XtbG3i7XGqIqj9amdUNdq2j3YrXWJOM/9O2D4qrF/C/7GixiaL2mvLxWiqJYKZoWTTAsHQV/OFH4vupGHpLu8+ilzsusnm2YAAAAAAAAAAAAAAAAAAAAAAAAAAAAAAAKn4Tvq2z7Sj3iN3R3eI9V6NXHkz0jsyMDFndbCqtbzskoxXrfe/V3v1IpcuRRTNU+BM5QsWs6lHEhLAwpbKPLKyY8p32rlKKfdBc1/j3w2LM3p3130jkrEZznLHwuj+1cb8u2OPVJbw4k5XWrzwgue3rOleL47Fmnan2hM1ccofTfSVy+cJfxrxeK9qTI/9k8fpPqfT9hVXpywL+tklu8a2KryNu/h7p/cRGLrtzlepy/caG1PijoetdTxY+TFzx5txtpknvW9/pw/dkn3f3LYjDRX/ktcKvCeZVTnxhj65pjxruBS4oTirKbV2WVS7H7Trhb+9oznWNVqZzhgJmhZYegj+cKPxfdSMPSXd59FLnZdbPNswAAAAAAAAAAAAAAAAAAAAAAAAAAAAAAAVPwn/Vtn2lHvEbuju8R6r0auNpnpHZsdDx8my5eJqbtgnNOuSjKMexvdtefb7zhfqtU0/wCXQnKNVg0bo1ZjynlahTKNWNB28EpQfXWb7Qr5N9+39PWY7+LpuRFuzPGeHlCs1Z8IZGiaVLVHkZmVO2fBPhVFHApvkmox43tGKT5L289+2l+9/EytW4jj4yiqdnhDIekY6e37I1DzcTtlv7eT2K/yLmu9p/5/RtTzY3SHo4sWivLod9T6yMeqvcOthJ77SjKD9R0w2Lm9VNmvKf3Caas5yljaw1lYsM5JK2E1RlqK2UpbeRd965P1nXD52b02Z0njCY4Tklv1+lNv6eBdFJ9/UW8tv/b/AOR9rF/quPc0qaBM+g6LD0DfzjR+L7qRg6S7vPopc7Lrp5tmAAAAAAAAAAAAAAAAAAAAAAAAAAAAAAACpeFH6ss+0o94jd0d3iPVejVxpHpHZvdApw3CUsjNuos4nFRqqslvDZPfeK8+/L1GPEVXs8qaIqj9onPksGodStIyPFsq3IXjNHWTtjZFx7NopS7t9n95jtRX/Kp26Yp4TorHa4td0dk5adqcE2nCONfFp7NcM3xNfckd8VERftzPjwTVrD6aLr9XUyoy7M1OU+KOTTkWN1x2SUXFy7N9+59vqIv4SqK9u1EZR4ZJmnjnDc6rpla0jeGXGxK+eVGye8XeknDg2k9+Jb/mjNZvT/K40ZeGXJSJ+rRpOj63wNU3+iq8Z/z9a+E2YnhiLXnK86wn0ef/ACOqb9nVY6/m6yW39Rivv2suclWsNAj6DosXQJ/ONHst91IwdJd3n0Uudl1482zAAAAAAAAAAAAAAAAAAAAAAAAAAAAAAABUfCl9WWfa0e8Rt6O7xHqvRq4ymeldmdpGoLHs6x002+S49XkQ44c2vK28/L+rOF61NynKJmPJExmtujdIqsrrMG7HxceGXFwVmPXwbXrnW5c+fP8ArsfPvYWuzlepqmqY58lZjLi1uj2rAyMnGzo2RjdRZj2OCTceJrayO/0l27e073onEUU12tYnP+kzxjOE1pGm9v7U8n914V3H7O3+wjEYmOG74+adqrk+XSHPptWLj4vWThjQnCM5w2lbOyabaivYi+Gt10TXcucJn2KYmOMt/bollWmWY1TjLIcq8nLojJO2NOz4YpLt22i2vb51vjjEU1YmLlXCnSJ8FYq+rNrLl4tpcIPlPPtVu3esev6Lftls/vNNM77FbUaUx7ra1K8mfQdFi6Av5xo9l3upmHpLu8+cKXOy7AebZgAAAAAAAAAAAAAAAAAAAAAAAAAAAAAAAqHhT+rLPtaPeI29H/fj1Xo1cYTPSOyUX/j5r7xOgtmbplefV41gQirIRSysGCScWlt1tS74vzL/AH3PnUXasPVu7unhPypE5cJQxektdtcaNSolcq/JhfCXDlVLzbv6X3+bnuWqwtVM7dirL9eCdnxpS8T0d81m5UV+5LH4pL1bpbDeYyNaIM6uTP0nXdMw7o9Rj3S7Yzy7nB21prbirjs13+pnK7h8Tdp+ufSNETFUsDV8bJwMqGTG2U+sfW05e+6ui1v5Xr27V5jtYqtYi1u5jLLWOXktGUxk2GsRWqV+N0b9dTXGORi777Qj/wByrzrm+X9+3lYmcJVuq+zOk/KI+ngqaZ9RdY+gD+csf8b3MzD0l3efOFbnZdiPNs4AAAAAAAAAAAAAAAAAAAAAAAAAAAAAAAVDwqfVdn2tHvEbej/vx6r0auKpno3ZJMkZGHl2UzjZVOUJx+jOD2a/zzFK7dNcbNWgsn/6bHyfrHDhOffk4z6m5+uS7JP7/uMX8O5b+zXl+p0V2ctJebaK+fHqS/h4cd/1JzxmmVJ9T6Q1rT8fniYTnNfRtzZqfC/OoR5f7ETh79z7leUcoRlPinh9LZ2ynXqP/Fov240klKh91lW3Zt5v8a5gYoiKrPCqPdM08mz0XSqsHIWY87HlRWpuHV2b3XJxaVbj5+a39n5cL1+vEUbrYna9oRM5xlkpttnFKUktuKUmoru3e+x9aiNmmIl0WHwffWWP+N7mZi6S7vPnClzsuxnnHAAAAAAAAAAAAAAAAAAAAAAAAAAAAAAAAKf4Vvquz7Wj3iNvR3eI9V6NXFEz0bskmBJMkTTJEkwJJgSTAkgQmmErJ4PX85Y/43uZmDpLu8+cKXOy7KeccAAAAAAAAAAAAAAAAAAAAAAAAAAAAAAAA0PTXRbM7Dnj1ShGUp1y4p78O0ZpvsT8x3wt6LNyK5TTOUuffJVmenxvzt+E+p1rR+Mum3D1eCvM9Pjfnb8I61o/GTbh6vBZmenxvzt+Eda0fjKd5CS8F2Z6fG/O34SetqPxk3kPfkvzPT4352/COtqPxk3kPV4MMv0+P+dvwjrWj8ZN5CS8GOX6fH/O34R1tR+Mm8hL5Msv02P+dnwk9a2/xn2N5D1eDPL9Nj/nZ8I61t/jPsbyG26L9B8jEy6r7LaZRr6zdQc+J8VcorbePrM2Kx9F63NERKtVecL8fLcwAAAAAAAAAAAAAAAAAAAAAAAAAAAAAAAAAAAAAAAAAAAAAAAAAAAAAAAAAAAAAAAAAAAAAAABhatq2PiV9blXV1Q4lHjtkox4nvtHn38n+QH2wsuu6uFtM4zhZFShOD3jKL7GmB9wAAAAAAAAADV6P0hw8xzjiZNNrr241VNS4d99t9vYwNk7IpqLa3fNR3W7S8wGrl0jxVnLT3N+MSq65V8E9ur5+Vxbbdz7wNsAAAAAAAAAAAAAAAAAAAAAAAAAAAAByXwp6jj5Grabp+VbXDHpby8yds1CG7jJVwb7ntGS/FQH18EOs7adn4cbVOWmzyOoti1JTonxyrsi+xrijN+xoCu0dI9et0Zav+0YRjj2RrdKxaeK9O6MHZNtbLyp7bJLlHzgbHP6Ra1ivStQuzKpVandQpYEMeEa6q7VGSgpPeUnwN89+T86A3vhC1yVeXGmvXPFNqlvi04DzL3a92pS4YtxXDw8n5mwPh0L1vUdV0i2Xj0ce/FypVzzXj1zU6YVRm3KEtkn5fN7L6PtAweg/SXU5Q1LUMjLnk4WDRkdS5Y9OO8u2tcXHBQjvGO0Wubf013ppBgz13XoaZHXZZ9Tg7It6f4tBVdVK7ql5Xb27d++z7e4Dc9JelmfbnaRVp10ao6phq1K2qFirdkXLrXut3KMd2lvs2uYGT0H1jUatZy9Jz8pZKqx1kV39VCqS/0uW0V2bW9j35x7eYFh8JuueJaVlWxe05w6inbt623yVJexNy/lA5X0Jy8XTtT0nxfIpnHNwo4udGqxS6rLlLii57d/G64L/wAZAbjXsTULulKppz1VZ4nKePcsaFiooblvTwye0ny5z9fqA96RY2ZPpTTViXwrvlpkISyp1KfVx2sc7Iw7HLkkk+XlAbDot0vzsZ65RqFscmWk1ddC1QjXKzyZvhfClye0PZu+b5AU9eEvOrqjmPVI2XdZvZpPiEoUKnifJW8Pbsk+3fn2trmF06Q67qdut1afgZUaYZOBXbxWU129Q27JStimt3LaCik3t5XZ3gZHg+6QZqy9VwNSyYW/s/gkspwhVtB8TcpbbLbbhfPs582gKXq3TvMxUsmjW/HXC7htxlprpxXDZvaNnDs+xLk9+e+/LmHe4PdJ+dJgegAAAAAAAAAAAAAAAAAAAAAUTT/B3XLUM7O1HxfJ8alHqap0KUaIR5JeVvu+CNa3W3Y/OB5jeD7xfUr8rDnTTRk4k8azEjU4xUpQS447PZeVGL7O+XnA+ON4O7YaBPR/GIcU58av6uXCv+Yjbtw7/wAO3aBka90EsycPScZXwi9MniynNwk1b1Nai1Fb+TvsB8dR6DZsdVyNQwM6qnxytV3K3H62da4YRbr57f8ARF8/6gYFXgyyqtLydOoz4pZWa752yrk5Tx+rjHqZ7S7W4Rba5PmttmBtujnRHOpqeHl5ePbhvGsxnjU4qpe047b8W7fY5b+dvcDQvwX6g8dadLVU8BW9Yq/F14xwcfHwcW/73Pzb923ICzZ/Qri1LTMyqyEKtNpdMaOFtyjwSjFJ78tlJfkB9cPonOGuX6q7YuN2MsdUqD4otKrym9+f+m+7vAh096IWapPCi7oRoxr1dfTKDk7+aXCnvy8jjXf9MDB6X+DLEyaIRwasfEuruhbHIqojF+Sn5L4dt+bTXrigPOkXQrOt1CjUsPMqpvhjRx7usp6yEvpbyiv5nyfmXMDOq6IW/tmrVJ3wl1eFHFnDq2pTns97OT2XN9mwHzwegqjmavffZGdWrVqqVMYuMoQ4XF89+3Zga3Sehus4dSxMXVqVjxlLq3ZiKeRXCUt3Fbvbvf58tuSQbu7onOWuV6r1seGGL4u6eF8Tfl+Vvv8Axf0AwI9AG8nWbbL1wavT1KjCDU6VwOPFu35XaBXsjwWahdp8NPu1KnqseTnjwrxtk5OT3la993ynPZLve7b2A6zBbJLzJICQAAAAAAAAAAAAAAAAAAAAAAAAAAAAAAAAAAAAAAAAAAAAAAAAAAAAAAAAAAAAAAAAAAAAAAAAAAAAAAAAAAAAAAAAAAAAAAAAAAAAB//Z;clipPath=inset(18.15% 33.33% 18.15% 33.33%);" vertex="1" parent="1">
          <mxGeometry x="1950" y="-118.5" width="202" height="202" as="geometry" />
        </mxCell>
        <mxCell id="c7Pq1dkR-VcAxKLpXhSD-37" value="&lt;span style=&quot;font-size: 24px;&quot;&gt;AWS Athena&lt;/span&gt;&lt;div&gt;&lt;span style=&quot;font-size: 24px;&quot;&gt;&lt;br&gt;&lt;/span&gt;&lt;/div&gt;" style="text;html=1;align=center;verticalAlign=middle;resizable=0;points=[];autosize=1;strokeColor=none;fillColor=none;" vertex="1" parent="1">
          <mxGeometry x="1971" y="91" width="160" height="70" as="geometry" />
        </mxCell>
        <mxCell id="c7Pq1dkR-VcAxKLpXhSD-38" style="edgeStyle=orthogonalEdgeStyle;rounded=0;orthogonalLoop=1;jettySize=auto;html=1;entryX=0;entryY=0.674;entryDx=0;entryDy=0;entryPerimeter=0;" edge="1" parent="1">
          <mxGeometry relative="1" as="geometry">
            <mxPoint x="1191.2781954887218" y="20" as="sourcePoint" />
            <mxPoint x="1330" y="20.079999999999927" as="targetPoint" />
          </mxGeometry>
        </mxCell>
        <mxCell id="c7Pq1dkR-VcAxKLpXhSD-39" style="edgeStyle=orthogonalEdgeStyle;rounded=0;orthogonalLoop=1;jettySize=auto;html=1;entryX=0.002;entryY=0.664;entryDx=0;entryDy=0;entryPerimeter=0;" edge="1" parent="1" source="c7Pq1dkR-VcAxKLpXhSD-29" target="c7Pq1dkR-VcAxKLpXhSD-31">
          <mxGeometry relative="1" as="geometry" />
        </mxCell>
      </root>
    </mxGraphModel>
  </diagram>
</mxfile>
